SplineFontDB: 3.2
FontName: KoreeneSans-ExtraLightItalic
FullName: Koreene Sans ExtraLight Italic
FamilyName: Koreene Sans ExtraLight
Weight: Extra-Light
Copyright: (C) Copyright HanYang I&C Co.,Ltd. All rights reserved.
Version: 2.50; ttfautohint (v1.8.4.7-5d5b-dirty)
ItalicAngle: 0
UnderlinePosition: -122
UnderlineWidth: 45
Ascent: 819
Descent: 205
InvalidEm: 0
sfntRevision: 0x00020147
LayerCount: 2
Layer: 0 1 "Back" 1
Layer: 1 1 "Fore" 0
XUID: [1021 531 -1996577725 15096407]
StyleMap: 0x0001
FSType: 0
OS2Version: 4
OS2_WeightWidthSlopeOnly: 0
OS2_UseTypoMetrics: 1
CreationTime: 1068260456
ModificationTime: 1706914716
PfmFamily: 81
TTFWeight: 200
TTFWidth: 5
LineGap: 256
VLineGap: 0
Panose: 0 0 0 0 0 0 0 0 0 0
OS2TypoAscent: 970
OS2TypoAOffset: 0
OS2TypoDescent: -235
OS2TypoDOffset: 0
OS2TypoLinegap: 256
OS2WinAscent: 1098
OS2WinAOffset: 0
OS2WinDescent: 363
OS2WinDOffset: 0
HheadAscent: 970
HheadAOffset: 0
HheadDescent: -235
HheadDOffset: 0
OS2SubXSize: 205
OS2SubYSize: 205
OS2SubXOff: 0
OS2SubYOff: 287
OS2SupXSize: 205
OS2SupYSize: 205
OS2SupXOff: 0
OS2SupYOff: 963
OS2StrikeYSize: 102
OS2StrikeYPos: 512
OS2CapHeight: 735
OS2XHeight: 523
OS2Vendor: 'HY  '
OS2CodePages: 2000019f.00000000
OS2UnicodeRanges: e10002ff.4000001b.00000000.00000000
Lookup: 1 0 0 "'aalt' Access All Alternates lookup 0" { "'aalt' Access All Alternates lookup 0 subtable"  } ['aalt' ('DFLT' <'dflt' > 'cyrl' <'dflt' > 'grek' <'dflt' > 'hang' <'dflt' > 'jamo' <'dflt' > 'latn' <'dflt' > ) ]
Lookup: 3 0 0 "'aalt' Access All Alternates lookup 1" { "'aalt' Access All Alternates lookup 1 subtable"  } ['aalt' ('DFLT' <'dflt' > 'cyrl' <'dflt' > 'grek' <'dflt' > 'hang' <'dflt' > 'jamo' <'dflt' > 'latn' <'dflt' > ) ]
Lookup: 1 0 0 "'locl' Localized Forms in Latin lookup 2" { "'locl' Localized Forms in Latin lookup 2 subtable"  } ['locl' ('latn' <'MOL ' > ) ]
Lookup: 1 0 0 "'locl' Localized Forms in Latin lookup 3" { "'locl' Localized Forms in Latin lookup 3 subtable"  } ['locl' ('latn' <'ROM ' > ) ]

StartChar: exclam
Encoding: 33 33 4
Width: 293
GlyphClass: 2
Flags: W
LayerCount: 2
Fore
SplineSet
51 -9 m 1,0,-1
 66 86 l 1,1,-1
 163 86 l 1,2,-1
 148 -9 l 1,3,-1
 51 -9 l 1,0,-1
155 209 m 1,4,-1
 114 209 l 1,5,-1
 194 736 l 1,6,-1
 250 736 l 1,7,-1
 155 209 l 1,4,-1
EndSplineSet
EndChar

StartChar: quotedbl
Encoding: 34 34 5
Width: 450
GlyphClass: 2
Flags: W
LayerCount: 2
Fore
SplineSet
297 553 m 1,0,-1
 429 832 l 1,1,-1
 502 832 l 1,2,-1
 337 553 l 1,3,-1
 297 553 l 1,0,-1
109 553 m 1,4,-1
 241 832 l 1,5,-1
 313 832 l 1,6,-1
 148 553 l 1,7,-1
 109 553 l 1,4,-1
EndSplineSet
EndChar

StartChar: numbersign
Encoding: 35 35 6
Width: 677
GlyphClass: 2
Flags: W
LayerCount: 2
Fore
SplineSet
33 212 m 1,0,-1
 39 249 l 1,1,-1
 168 249 l 1,2,-1
 236 467 l 1,3,-1
 107 467 l 1,4,-1
 113 503 l 1,5,-1
 246 503 l 1,6,-1
 309 711 l 1,7,-1
 350 711 l 1,8,-1
 288 503 l 1,9,-1
 503 503 l 1,10,-1
 567 711 l 1,11,-1
 607 711 l 1,12,-1
 545 503 l 1,13,-1
 670 503 l 1,14,-1
 664 467 l 1,15,-1
 535 467 l 1,16,-1
 468 249 l 1,17,-1
 596 249 l 1,18,-1
 590 212 l 1,19,-1
 458 212 l 1,20,-1
 396 3 l 1,21,-1
 353 3 l 1,22,-1
 416 212 l 1,23,-1
 200 212 l 1,24,-1
 138 3 l 1,25,-1
 95 3 l 1,26,-1
 158 212 l 1,27,-1
 33 212 l 1,0,-1
210 249 m 1,28,-1
 426 249 l 1,29,-1
 493 467 l 1,30,-1
 277 467 l 1,31,-1
 210 249 l 1,28,-1
EndSplineSet
EndChar

StartChar: dollar
Encoding: 36 36 7
Width: 571
GlyphClass: 2
Flags: W
LayerCount: 2
Fore
SplineSet
43 121 m 1,0,-1
 82 142 l 1,1,2
 104 97 104 97 152 68.5 c 128,-1,3
 200 40 200 40 247 40 c 0,4,5
 319 40 319 40 371.5 74 c 128,-1,6
 424 108 424 108 436 180 c 0,7,8
 441 211 441 211 434 237 c 128,-1,9
 427 263 427 263 414.5 280 c 128,-1,10
 402 297 402 297 376 313.5 c 128,-1,11
 350 330 350 330 329 340 c 128,-1,12
 308 350 308 350 274 365 c 0,13,14
 263 370 263 370 257 372 c 0,15,16
 187 402 187 402 153 445 c 128,-1,17
 119 488 119 488 131 561 c 0,18,19
 142 629 142 629 199 679 c 128,-1,20
 256 729 256 729 338 733 c 1,21,-1
 352 817 l 1,22,-1
 396 817 l 1,23,-1
 382 732 l 1,24,25
 434 731 434 731 476.5 699.5 c 128,-1,26
 519 668 519 668 531 630 c 1,27,-1
 493 612 l 1,28,29
 447 694 447 694 355 694 c 0,30,31
 282 694 282 694 234.5 656.5 c 128,-1,32
 187 619 187 619 178 560 c 0,33,34
 167 496 167 496 202 461.5 c 128,-1,35
 237 427 237 427 315 393 c 0,36,37
 350 378 350 378 369.5 368.5 c 128,-1,38
 389 359 389 359 417.5 339.5 c 128,-1,39
 446 320 446 320 459.5 300 c 128,-1,40
 473 280 473 280 481.5 250 c 128,-1,41
 490 220 490 220 484 185 c 0,42,43
 469 97 469 97 406.5 50.5 c 128,-1,44
 344 4 344 4 261 0 c 1,45,-1
 248 -80 l 1,46,-1
 204 -80 l 1,47,-1
 217 1 l 1,48,49
 167 3 167 3 117 34.5 c 128,-1,50
 67 66 67 66 43 121 c 1,0,-1
EndSplineSet
EndChar

StartChar: percent
Encoding: 37 37 8
Width: 945
GlyphClass: 2
Flags: W
LayerCount: 2
Fore
SplineSet
500 155 m 0,0,1
 513 231 513 231 571.5 279.5 c 128,-1,2
 630 328 630 328 705 328 c 256,3,4
 780 328 780 328 823 279 c 128,-1,5
 866 230 866 230 853 155 c 0,6,7
 840 77 840 77 781.5 29.5 c 128,-1,8
 723 -18 723 -18 648 -18 c 0,9,10
 574 -18 574 -18 530.5 29.5 c 128,-1,11
 487 77 487 77 500 155 c 0,0,1
544 155 m 0,12,13
 534 95 534 95 568 57 c 128,-1,14
 602 19 602 19 654 19 c 0,15,16
 707 19 707 19 753 57 c 128,-1,17
 799 95 799 95 809 155 c 256,18,19
 819 215 819 215 787 252.5 c 128,-1,20
 755 290 755 290 699 290 c 0,21,22
 644 290 644 290 599 252 c 128,-1,23
 554 214 554 214 544 155 c 0,12,13
122 581 m 256,24,25
 135 658 135 658 193 706 c 128,-1,26
 251 754 251 754 326 754 c 0,27,28
 400 754 400 754 443 706 c 128,-1,29
 486 658 486 658 473 581 c 0,30,31
 460 505 460 505 401 457 c 128,-1,32
 342 409 342 409 269 409 c 0,33,34
 195 409 195 409 152 456.5 c 128,-1,35
 109 504 109 504 122 581 c 256,24,25
164 581 m 0,36,37
 154 521 154 521 188 483.5 c 128,-1,38
 222 446 222 446 275 446 c 256,39,40
 328 446 328 446 373.5 483.5 c 128,-1,41
 419 521 419 521 429 581 c 256,42,43
 439 641 439 641 407 679 c 128,-1,44
 375 717 375 717 320 717 c 0,45,46
 266 717 266 717 220 678.5 c 128,-1,47
 174 640 174 640 164 581 c 0,36,37
140 -3 m 1,48,-1
 786 738 l 1,49,-1
 835 738 l 1,50,-1
 188 -3 l 1,51,-1
 140 -3 l 1,48,-1
EndSplineSet
EndChar

StartChar: ampersand
Encoding: 38 38 9
Width: 626
GlyphClass: 2
Flags: W
LayerCount: 2
Fore
SplineSet
97 182 m 0,0,1
 85 112 85 112 125 66 c 128,-1,2
 165 20 165 20 237 20 c 0,3,4
 297 20 297 20 352 52.5 c 128,-1,5
 407 85 407 85 446 133 c 1,6,-1
 288 400 l 1,7,8
 118 308 118 308 97 182 c 0,0,1
50 181 m 0,9,10
 75 333 75 333 269 435 c 1,11,12
 247 475 247 475 238.5 494.5 c 128,-1,13
 230 514 230 514 222 545 c 128,-1,14
 214 576 214 576 218 601 c 0,15,16
 228 662 228 662 279.5 703.5 c 128,-1,17
 331 745 331 745 409 745 c 0,18,19
 473 745 473 745 513.5 711 c 128,-1,20
 554 677 554 677 569 628 c 1,21,-1
 528 612 l 1,22,23
 516 648 516 648 483 676.5 c 128,-1,24
 450 705 450 705 405 705 c 0,25,26
 347 705 347 705 309.5 674 c 128,-1,27
 272 643 272 643 265 600 c 0,28,29
 262 580 262 580 270.5 550 c 128,-1,30
 279 520 279 520 305.5 469 c 128,-1,31
 332 418 332 418 349.5 386.5 c 128,-1,32
 367 355 367 355 413 278 c 128,-1,33
 459 201 459 201 477 172 c 1,34,35
 524 241 524 241 552 335 c 1,36,-1
 595 328 l 1,37,38
 563 221 563 221 500 133 c 1,39,-1
 579 0 l 1,40,-1
 525 0 l 1,41,-1
 467 96 l 1,42,43
 367 -19 367 -19 230 -19 c 0,44,45
 132 -19 132 -19 84 38.5 c 128,-1,46
 36 96 36 96 50 181 c 0,9,10
EndSplineSet
EndChar

StartChar: quotesingle
Encoding: 39 39 10
Width: 262
GlyphClass: 2
Flags: W
LayerCount: 2
Fore
SplineSet
111 553 m 1,0,-1
 242 832 l 1,1,-1
 315 832 l 1,2,-1
 151 553 l 1,3,-1
 111 553 l 1,0,-1
EndSplineSet
EndChar

StartChar: parenleft
Encoding: 40 40 11
Width: 435
GlyphClass: 2
Flags: W
LayerCount: 2
Fore
SplineSet
168 351 m 0,0,1
 217 646 217 646 422 858 c 1,2,-1
 451 840 l 1,3,4
 411 793 411 793 383.5 755.5 c 128,-1,5
 356 718 356 718 319 656 c 128,-1,6
 282 594 282 594 255.5 517 c 128,-1,7
 229 440 229 440 215 351 c 0,8,9
 202 275 202 275 202.5 205 c 128,-1,10
 203 135 203 135 209 90.5 c 128,-1,11
 215 46 215 46 233.5 -7.5 c 128,-1,12
 252 -61 252 -61 260.5 -79 c 128,-1,13
 269 -97 269 -97 290 -138 c 1,14,-1
 254 -156 l 1,15,16
 120 62 120 62 168 351 c 0,0,1
EndSplineSet
Substitution2: "'sups' Superscript lookup 5 subtable" uni207D
Substitution2: "'aalt' Access All Alternates lookup 0 subtable" uni207D
EndChar

StartChar: parenright
Encoding: 41 41 12
Width: 435
GlyphClass: 2
Flags: W
LayerCount: 2
Fore
SplineSet
8 -138 m 1,0,1
 48 -90 48 -90 74.5 -53.5 c 128,-1,2
 101 -17 101 -17 138 45 c 128,-1,3
 175 107 175 107 202.5 184.5 c 128,-1,4
 230 262 230 262 244 351 c 0,5,6
 259 439 259 439 258 515 c 128,-1,7
 257 591 257 591 241.5 652.5 c 128,-1,8
 226 714 226 714 210 753 c 128,-1,9
 194 792 194 792 169 840 c 1,10,-1
 205 858 l 1,11,12
 340 648 340 648 290 351 c 0,13,14
 242 60 242 60 37 -156 c 1,15,-1
 8 -138 l 1,0,1
EndSplineSet
Substitution2: "'sups' Superscript lookup 5 subtable" uni207E
Substitution2: "'aalt' Access All Alternates lookup 0 subtable" uni207E
EndChar

StartChar: asterisk
Encoding: 42 42 13
Width: 545
GlyphClass: 2
Flags: W
LayerCount: 2
Fore
SplineSet
56 427 m 1,0,-1
 80 469 l 1,1,-1
 273 389 l 1,2,-1
 300 597 l 1,3,-1
 349 597 l 1,4,-1
 309 389 l 1,5,-1
 528 469 l 1,6,-1
 538 427 l 1,7,-1
 315 353 l 1,8,-1
 442 171 l 1,9,-1
 400 143 l 1,10,-1
 280 329 l 1,11,-1
 98 143 l 1,12,-1
 67 171 l 1,13,-1
 255 352 l 1,14,-1
 56 427 l 1,0,-1
EndSplineSet
EndChar

StartChar: plus
Encoding: 43 43 14
Width: 545
GlyphClass: 2
Flags: W
LayerCount: 2
Fore
SplineSet
42 343 m 1,0,-1
 48 383 l 1,1,-1
 268 383 l 1,2,-1
 304 600 l 1,3,-1
 348 600 l 1,4,-1
 312 383 l 1,5,-1
 530 383 l 1,6,-1
 524 343 l 1,7,-1
 305 343 l 1,8,-1
 268 116 l 1,9,-1
 224 116 l 1,10,-1
 261 343 l 1,11,-1
 42 343 l 1,0,-1
EndSplineSet
Substitution2: "'sups' Superscript lookup 5 subtable" uni207A
Substitution2: "'aalt' Access All Alternates lookup 0 subtable" uni207A
EndChar

StartChar: comma
Encoding: 44 44 15
Width: 275
GlyphClass: 2
Flags: W
LayerCount: 2
Fore
SplineSet
-46 -183 m 1,0,-1
 86 96 l 1,1,-1
 158 96 l 1,2,-1
 -7 -183 l 1,3,-1
 -46 -183 l 1,0,-1
EndSplineSet
EndChar

StartChar: hyphen
Encoding: 45 45 16
Width: 379
GlyphClass: 2
Flags: W
LayerCount: 2
Fore
SplineSet
44 343 m 1,0,-1
 51 383 l 1,1,-1
 363 383 l 1,2,-1
 356 343 l 1,3,-1
 44 343 l 1,0,-1
EndSplineSet
EndChar

StartChar: period
Encoding: 46 46 17
Width: 275
GlyphClass: 2
Flags: W
LayerCount: 2
Fore
SplineSet
40 0 m 1,0,-1
 56 96 l 1,1,-1
 153 96 l 1,2,-1
 137 0 l 1,3,-1
 40 0 l 1,0,-1
EndSplineSet
EndChar

StartChar: slash
Encoding: 47 47 18
Width: 316
GlyphClass: 2
Flags: W
LayerCount: 2
Fore
SplineSet
-66 -64 m 1,0,-1
 362 790 l 1,1,-1
 409 790 l 1,2,-1
 -18 -64 l 1,3,-1
 -66 -64 l 1,0,-1
EndSplineSet
EndChar

StartChar: zero
Encoding: 48 48 19
Width: 550
GlyphClass: 2
Flags: W
LayerCount: 2
Fore
SplineSet
121 368 m 0,0,1
 94 206 94 206 122 113.5 c 128,-1,2
 150 21 150 21 234 21 c 0,3,4
 296 21 296 21 343 71.5 c 128,-1,5
 390 122 390 122 417.5 196 c 128,-1,6
 445 270 445 270 461 368 c 0,7,8
 488 531 488 531 460 623 c 128,-1,9
 432 715 432 715 348 715 c 0,10,11
 267 715 267 715 207.5 624.5 c 128,-1,12
 148 534 148 534 121 368 c 0,0,1
73 368 m 0,13,14
 105 564 105 564 181.5 659 c 128,-1,15
 258 754 258 754 355 754 c 0,16,17
 456 754 456 754 498.5 656.5 c 128,-1,18
 541 559 541 559 509 368 c 0,19,20
 491 259 491 259 456.5 175.5 c 128,-1,21
 422 92 422 92 362.5 37 c 128,-1,22
 303 -18 303 -18 228 -18 c 0,23,24
 128 -18 128 -18 85 81.5 c 128,-1,25
 42 181 42 181 73 368 c 0,13,14
EndSplineSet
EndChar

StartChar: one
Encoding: 49 49 20
Width: 550
GlyphClass: 2
Flags: W
LayerCount: 2
Fore
SplineSet
163 595 m 1,0,-1
 169 631 l 1,1,-1
 205 631 l 2,2,3
 280 631 280 631 308.5 650 c 128,-1,4
 337 669 337 669 345 717 c 2,5,-1
 350 746 l 1,6,-1
 390 746 l 1,7,-1
 265 -12 l 1,8,-1
 217 -12 l 1,9,-1
 317 595 l 1,10,-1
 163 595 l 1,0,-1
EndSplineSet
Substitution2: "'subs' Subscript lookup 6 subtable" uni2081
Substitution2: "'sups' Superscript lookup 5 subtable" onesuperior
Substitution2: "'sinf' Scientific Inferiors lookup 4 subtable" uni2081
AlternateSubs2: "'aalt' Access All Alternates lookup 1 subtable" uni2081 onesuperior
EndChar

StartChar: two
Encoding: 50 50 21
Width: 550
GlyphClass: 2
Flags: W
LayerCount: 2
Fore
SplineSet
108 580 m 1,0,1
 144 661 144 661 205.5 707.5 c 128,-1,2
 267 754 267 754 354 754 c 0,3,4
 443 754 443 754 490.5 701.5 c 128,-1,5
 538 649 538 649 523 556 c 0,6,7
 504 443 504 443 375 336 c 0,8,9
 223 211 223 211 162.5 153 c 128,-1,10
 102 95 102 95 77 40 c 1,11,-1
 437 40 l 1,12,-1
 431 0 l 1,13,-1
 14 0 l 1,14,15
 18 27 18 27 30.5 54 c 128,-1,16
 43 81 43 81 71 113.5 c 128,-1,17
 99 146 99 146 119.5 168.5 c 128,-1,18
 140 191 140 191 187 231.5 c 128,-1,19
 234 272 234 272 256.5 291.5 c 128,-1,20
 279 311 279 311 338 359 c 0,21,22
 460 461 460 461 476 556 c 0,23,24
 489 632 489 632 453 673.5 c 128,-1,25
 417 715 417 715 344 715 c 0,26,27
 277 715 277 715 226.5 675 c 128,-1,28
 176 635 176 635 148 569 c 1,29,-1
 108 580 l 1,0,1
EndSplineSet
Substitution2: "'subs' Subscript lookup 6 subtable" uni2082
Substitution2: "'sups' Superscript lookup 5 subtable" twosuperior
Substitution2: "'sinf' Scientific Inferiors lookup 4 subtable" uni2082
AlternateSubs2: "'aalt' Access All Alternates lookup 1 subtable" uni2082 twosuperior
EndChar

StartChar: three
Encoding: 51 51 22
Width: 550
GlyphClass: 2
Flags: W
LayerCount: 2
Fore
SplineSet
19 111 m 1,0,-1
 62 129 l 1,1,2
 105 21 105 21 219 21 c 0,3,4
 298 21 298 21 358.5 66.5 c 128,-1,5
 419 112 419 112 433 201 c 0,6,7
 447 284 447 284 397.5 327 c 128,-1,8
 348 370 348 370 268 370 c 0,9,10
 226 370 226 370 216 369 c 1,11,-1
 223 410 l 1,12,13
 232 409 232 409 271 409 c 0,14,15
 345 409 345 409 398.5 451.5 c 128,-1,16
 452 494 452 494 464 567 c 0,17,18
 475 632 475 632 439 673.5 c 128,-1,19
 403 715 403 715 334 715 c 0,20,21
 231 715 231 715 159 599 c 1,22,-1
 122 614 l 1,23,24
 203 754 203 754 343 754 c 0,25,26
 435 754 435 754 480 701 c 128,-1,27
 525 648 525 648 512 570 c 0,28,29
 501 502 501 502 456 455.5 c 128,-1,30
 411 409 411 409 356 392 c 1,31,32
 416 379 416 379 455.5 330.5 c 128,-1,33
 495 282 495 282 481 201 c 0,34,35
 463 95 463 95 389.5 38.5 c 128,-1,36
 316 -18 316 -18 213 -18 c 0,37,38
 67 -18 67 -18 19 111 c 1,0,-1
EndSplineSet
Substitution2: "'subs' Subscript lookup 6 subtable" uni2083
Substitution2: "'sups' Superscript lookup 5 subtable" threesuperior
Substitution2: "'sinf' Scientific Inferiors lookup 4 subtable" uni2083
AlternateSubs2: "'aalt' Access All Alternates lookup 1 subtable" uni2083 threesuperior
EndChar

StartChar: four
Encoding: 52 52 23
Width: 550
GlyphClass: 2
Flags: W
LayerCount: 2
Fore
SplineSet
20 217 m 1,0,-1
 448 747 l 1,1,-1
 495 747 l 1,2,-1
 407 218 l 1,3,-1
 523 218 l 1,4,-1
 516 179 l 1,5,-1
 401 179 l 1,6,-1
 369 -12 l 1,7,-1
 323 -12 l 1,8,-1
 355 179 l 1,9,-1
 14 179 l 1,10,-1
 20 217 l 1,0,-1
66 218 m 1,11,-1
 361 218 l 1,12,-1
 418 560 l 2,13,14
 425 602 425 602 440 680 c 1,15,-1
 437 680 l 1,16,-1
 358 578 l 1,17,-1
 66 218 l 1,11,-1
EndSplineSet
Substitution2: "'subs' Subscript lookup 6 subtable" uni2084
Substitution2: "'sups' Superscript lookup 5 subtable" uni2074
Substitution2: "'sinf' Scientific Inferiors lookup 4 subtable" uni2084
AlternateSubs2: "'aalt' Access All Alternates lookup 1 subtable" uni2084 uni2074
EndChar

StartChar: five
Encoding: 53 53 24
Width: 550
GlyphClass: 2
Flags: W
LayerCount: 2
Fore
SplineSet
26 106 m 1,0,-1
 68 122 l 1,1,2
 85 75 85 75 123.5 48 c 128,-1,3
 162 21 162 21 212 21 c 0,4,5
 295 21 295 21 351.5 76.5 c 128,-1,6
 408 132 408 132 421 214 c 0,7,8
 436 302 436 302 396 355 c 128,-1,9
 356 408 356 408 277 408 c 0,10,11
 238 408 238 408 193 391 c 128,-1,12
 148 374 148 374 112 344 c 1,13,-1
 87 354 l 1,14,-1
 187 735 l 1,15,-1
 510 735 l 1,16,-1
 504 695 l 1,17,-1
 224 695 l 1,18,-1
 144 403 l 1,19,20
 216 448 216 448 299 448 c 0,21,22
 391 448 391 448 439 384.5 c 128,-1,23
 487 321 487 321 469 215 c 0,24,25
 453 117 453 117 382.5 49.5 c 128,-1,26
 312 -18 312 -18 205 -18 c 0,27,28
 70 -18 70 -18 26 106 c 1,0,-1
EndSplineSet
EndChar

StartChar: six
Encoding: 54 54 25
Width: 550
GlyphClass: 2
Flags: W
LayerCount: 2
Fore
SplineSet
103 225 m 0,0,1
 89 140 89 140 127 80.5 c 128,-1,2
 165 21 165 21 242 21 c 0,3,4
 316 21 316 21 374 79.5 c 128,-1,5
 432 138 432 138 446 225 c 0,6,7
 461 315 461 315 422 373 c 128,-1,8
 383 431 383 431 307 431 c 0,9,10
 234 431 234 431 175.5 371.5 c 128,-1,11
 117 312 117 312 103 225 c 0,0,1
66 323 m 0,12,13
 76 385 76 385 93 443.5 c 128,-1,14
 110 502 110 502 138 559.5 c 128,-1,15
 166 617 166 617 201 659 c 128,-1,16
 236 701 236 701 285 727.5 c 128,-1,17
 334 754 334 754 390 754 c 0,18,19
 508 754 508 754 551 636 c 1,20,-1
 510 620 l 1,21,22
 471 715 471 715 383 715 c 0,23,24
 332 715 332 715 289.5 687 c 128,-1,25
 247 659 247 659 217 611.5 c 128,-1,26
 187 564 187 564 167.5 518.5 c 128,-1,27
 148 473 148 473 135 421 c 0,28,29
 126 389 126 389 113 326 c 1,30,31
 141 390 141 390 196.5 430 c 128,-1,32
 252 470 252 470 321 470 c 0,33,34
 414 470 414 470 462.5 399.5 c 128,-1,35
 511 329 511 329 493 225 c 0,36,37
 476 122 476 122 405.5 52 c 128,-1,38
 335 -18 335 -18 239 -18 c 0,39,40
 141 -18 141 -18 95 45 c 0,41,42
 33 124 33 124 66 323 c 0,12,13
EndSplineSet
EndChar

StartChar: seven
Encoding: 55 55 26
Width: 550
GlyphClass: 2
Flags: W
LayerCount: 2
Fore
SplineSet
112 694 m 1,0,-1
 118 735 l 1,1,-1
 554 735 l 1,2,-1
 549 701 l 1,3,4
 410 516 410 516 317.5 353.5 c 128,-1,5
 225 191 225 191 148 -12 c 1,6,-1
 100 -12 l 1,7,8
 181 201 181 201 272 358 c 128,-1,9
 363 515 363 515 494 694 c 1,10,-1
 112 694 l 1,0,-1
EndSplineSet
EndChar

StartChar: eight
Encoding: 56 56 27
Width: 550
GlyphClass: 2
Flags: W
LayerCount: 2
Fore
SplineSet
168 565 m 0,0,1
 157 498 157 498 196.5 456 c 128,-1,2
 236 414 236 414 298 414 c 0,3,4
 363 414 363 414 415.5 457.5 c 128,-1,5
 468 501 468 501 479 565 c 0,6,7
 490 632 490 632 452 673.5 c 128,-1,8
 414 715 414 715 348 715 c 0,9,10
 279 715 279 715 228.5 671.5 c 128,-1,11
 178 628 178 628 168 565 c 0,0,1
35 193 m 0,12,13
 48 274 48 274 100.5 325.5 c 128,-1,14
 153 377 153 377 220 396 c 1,15,16
 168 415 168 415 139 457.5 c 128,-1,17
 110 500 110 500 122 568 c 0,18,19
 135 644 135 644 200.5 699 c 128,-1,20
 266 754 266 754 354 754 c 0,21,22
 441 754 441 754 490.5 700.5 c 128,-1,23
 540 647 540 647 527 568 c 0,24,25
 516 501 516 501 471.5 457 c 128,-1,26
 427 413 427 413 373 396 c 1,27,28
 435 377 435 377 470 325 c 128,-1,29
 505 273 505 273 491 191 c 0,30,31
 476 100 476 100 400.5 41 c 128,-1,32
 325 -18 325 -18 226 -18 c 0,33,34
 130 -18 130 -18 74.5 40.5 c 128,-1,35
 19 99 19 99 35 193 c 0,12,13
83 195 m 0,36,37
 70 119 70 119 113 70 c 128,-1,38
 156 21 156 21 233 21 c 0,39,40
 311 21 311 21 371.5 70.5 c 128,-1,41
 432 120 432 120 444 195 c 0,42,43
 457 273 457 273 412 324 c 128,-1,44
 367 375 367 375 292 375 c 0,45,46
 219 375 219 375 157.5 324 c 128,-1,47
 96 273 96 273 83 195 c 0,36,37
EndSplineSet
EndChar

StartChar: nine
Encoding: 57 57 28
Width: 550
GlyphClass: 2
Flags: W
LayerCount: 2
Fore
SplineSet
134 511 m 0,0,1
 119 419 119 419 160.5 363 c 128,-1,2
 202 307 202 307 271 307 c 0,3,4
 341 307 341 307 400.5 365.5 c 128,-1,5
 460 424 460 424 475 511 c 0,6,7
 489 597 489 597 451 656 c 128,-1,8
 413 715 413 715 338 715 c 0,9,10
 265 715 265 715 207 657 c 128,-1,11
 149 599 149 599 134 511 c 0,0,1
29 105 m 1,12,-1
 72 121 l 1,13,14
 86 76 86 76 121.5 48.5 c 128,-1,15
 157 21 157 21 206 21 c 0,16,17
 395 21 395 21 462 396 c 1,18,19
 435 345 435 345 380.5 306 c 128,-1,20
 326 267 326 267 259 267 c 0,21,22
 170 267 170 267 119 333.5 c 128,-1,23
 68 400 68 400 87 511 c 0,24,25
 105 617 105 617 176.5 685.5 c 128,-1,26
 248 754 248 754 345 754 c 0,27,28
 428 754 428 754 473 702 c 128,-1,29
 518 650 518 650 523 571 c 0,30,31
 526 517 526 517 507 406 c 0,32,33
 437 -18 437 -18 198 -18 c 0,34,35
 130 -18 130 -18 88 18 c 128,-1,36
 46 54 46 54 29 105 c 1,12,-1
EndSplineSet
EndChar

StartChar: colon
Encoding: 58 58 29
Width: 275
GlyphClass: 2
Flags: W
LayerCount: 2
Fore
SplineSet
40 0 m 1,0,-1
 56 96 l 1,1,-1
 153 96 l 1,2,-1
 137 0 l 1,3,-1
 40 0 l 1,0,-1
104 387 m 1,4,-1
 120 483 l 1,5,-1
 217 483 l 1,6,-1
 201 387 l 1,7,-1
 104 387 l 1,4,-1
EndSplineSet
EndChar

StartChar: semicolon
Encoding: 59 59 30
Width: 275
GlyphClass: 2
Flags: W
LayerCount: 2
Fore
SplineSet
-46 -183 m 1,0,-1
 86 97 l 1,1,-1
 158 97 l 1,2,-1
 -7 -183 l 1,3,-1
 -46 -183 l 1,0,-1
107 388 m 1,4,-1
 123 484 l 1,5,-1
 220 484 l 1,6,-1
 204 388 l 1,7,-1
 107 388 l 1,4,-1
EndSplineSet
EndChar

StartChar: less
Encoding: 60 60 31
Width: 541
GlyphClass: 2
Flags: W
LayerCount: 2
Fore
SplineSet
72 333 m 1,0,-1
 79 376 l 1,1,-1
 533 692 l 1,2,-1
 553 658 l 1,3,-1
 119 354 l 1,4,-1
 452 51 l 1,5,-1
 421 16 l 1,6,-1
 72 333 l 1,0,-1
EndSplineSet
EndChar

StartChar: equal
Encoding: 61 61 32
Width: 543
GlyphClass: 2
Flags: W
LayerCount: 2
Fore
SplineSet
43 249 m 1,0,-1
 50 290 l 1,1,-1
 495 290 l 1,2,-1
 488 249 l 1,3,-1
 43 249 l 1,0,-1
74 437 m 1,4,-1
 81 477 l 1,5,-1
 526 477 l 1,6,-1
 519 437 l 1,7,-1
 74 437 l 1,4,-1
EndSplineSet
Substitution2: "'sups' Superscript lookup 5 subtable" uni207C
Substitution2: "'aalt' Access All Alternates lookup 0 subtable" uni207C
EndChar

StartChar: greater
Encoding: 62 62 33
Width: 541
GlyphClass: 2
Flags: W
LayerCount: 2
Fore
SplineSet
32 16 m 1,0,-1
 13 51 l 1,1,-1
 445 354 l 1,2,-1
 114 658 l 1,3,-1
 144 692 l 1,4,-1
 493 376 l 1,5,-1
 486 333 l 1,6,-1
 32 16 l 1,0,-1
EndSplineSet
EndChar

StartChar: question
Encoding: 63 63 34
Width: 524
GlyphClass: 2
Flags: W
LayerCount: 2
Fore
SplineSet
117 607 m 1,0,1
 157 677 157 677 216 715.5 c 128,-1,2
 275 754 275 754 339 754 c 0,3,4
 427 754 427 754 469.5 701 c 128,-1,5
 512 648 512 648 498 561 c 0,6,7
 490 515 490 515 465.5 478.5 c 128,-1,8
 441 442 441 442 410.5 416 c 128,-1,9
 380 390 380 390 349.5 364.5 c 128,-1,10
 319 339 319 339 294 302.5 c 128,-1,11
 269 266 269 266 262 220 c 2,12,-1
 259 200 l 1,13,-1
 212 200 l 1,14,-1
 215 222 l 2,15,16
 223 272 223 272 248.5 312 c 128,-1,17
 274 352 274 352 304.5 378.5 c 128,-1,18
 335 405 335 405 365.5 429.5 c 128,-1,19
 396 454 396 454 420 487 c 128,-1,20
 444 520 444 520 451 561 c 0,21,22
 462 629 462 629 431 671.5 c 128,-1,23
 400 714 400 714 334 714 c 0,24,25
 230 714 230 714 155 591 c 1,26,-1
 117 607 l 1,0,1
152 -9 m 1,27,-1
 168 86 l 1,28,-1
 265 86 l 1,29,-1
 249 -9 l 1,30,-1
 152 -9 l 1,27,-1
EndSplineSet
EndChar

StartChar: at
Encoding: 64 64 35
Width: 933
GlyphClass: 2
Flags: W
LayerCount: 2
Fore
SplineSet
71 344 m 0,0,1
 101 527 101 527 239 642.5 c 128,-1,2
 377 758 377 758 569 758 c 0,3,4
 741 758 741 758 830.5 657.5 c 128,-1,5
 920 557 920 557 893 396 c 0,6,7
 870 257 870 257 807.5 189 c 128,-1,8
 745 121 745 121 673 121 c 0,9,10
 628 121 628 121 602 155.5 c 128,-1,11
 576 190 576 190 583 243 c 1,12,-1
 582 243 l 1,13,14
 557 197 557 197 508 159.5 c 128,-1,15
 459 122 459 122 399 122 c 0,16,17
 332 122 332 122 296 173.5 c 128,-1,18
 260 225 260 225 274 311 c 0,19,20
 293 424 293 424 364.5 491 c 128,-1,21
 436 558 436 558 516 558 c 0,22,23
 551 558 551 558 577 543 c 128,-1,24
 603 528 603 528 612 514 c 128,-1,25
 621 500 621 500 627 484 c 1,26,-1
 643 548 l 1,27,-1
 679 548 l 1,28,-1
 623 278 l 2,29,30
 622 274 622 274 621 269 c 0,31,32
 613 219 613 219 629.5 189 c 128,-1,33
 646 159 646 159 683 159 c 0,34,35
 742 159 742 159 787 220.5 c 128,-1,36
 832 282 832 282 850 391 c 0,37,38
 874 537 874 537 797.5 629.5 c 128,-1,39
 721 722 721 722 562 722 c 0,40,41
 394 722 394 722 267 617.5 c 128,-1,42
 140 513 140 513 112 344 c 0,43,44
 84 172 84 172 171.5 70.5 c 128,-1,45
 259 -31 259 -31 423 -31 c 0,46,47
 540 -31 540 -31 647 0 c 1,48,-1
 650 -34 l 1,49,50
 539 -67 539 -67 417 -67 c 0,51,52
 231 -67 231 -67 136 46.5 c 128,-1,53
 41 160 41 160 71 344 c 0,0,1
317 311 m 0,54,55
 306 245 306 245 332 203 c 128,-1,56
 358 161 358 161 408 161 c 0,57,58
 432 161 432 161 459 171.5 c 128,-1,59
 486 182 486 182 515.5 206.5 c 128,-1,60
 545 231 545 231 569.5 280 c 128,-1,61
 594 329 594 329 605 396 c 0,62,63
 613 444 613 444 591 482.5 c 128,-1,64
 569 521 569 521 510 521 c 0,65,66
 450 521 450 521 391.5 465 c 128,-1,67
 333 409 333 409 317 311 c 0,54,55
EndSplineSet
EndChar

StartChar: A
Encoding: 65 65 36
Width: 613
GlyphClass: 2
Flags: W
LayerCount: 2
Fore
SplineSet
150 271 m 1,0,-1
 460 271 l 1,1,-1
 400 573 l 2,2,3
 382 662 382 662 377 691 c 1,4,-1
 373 691 l 1,5,6
 367 680 367 680 311 573 c 2,7,-1
 150 271 l 1,0,-1
-46 0 m 1,8,-1
 352 735 l 1,9,-1
 412 735 l 1,10,-1
 567 0 l 1,11,-1
 514 0 l 1,12,-1
 468 232 l 1,13,-1
 130 232 l 1,14,-1
 6 0 l 1,15,-1
 -46 0 l 1,8,-1
EndSplineSet
Substitution2: "Single Substitution lookup 12 subtable" ordfeminine
EndChar

StartChar: B
Encoding: 66 66 37
Width: 652
GlyphClass: 2
Flags: W
LayerCount: 2
Fore
SplineSet
61 0 m 1,0,-1
 183 735 l 1,1,-1
 440 735 l 2,2,3
 540 735 540 735 585 684 c 128,-1,4
 630 633 630 633 616 550 c 0,5,6
 605 485 605 485 564.5 443.5 c 128,-1,7
 524 402 524 402 470 384 c 1,8,9
 529 369 529 369 563.5 318.5 c 128,-1,10
 598 268 598 268 586 200 c 0,11,12
 572 113 572 113 507 56.5 c 128,-1,13
 442 0 442 0 349 0 c 2,14,-1
 61 0 l 1,0,-1
114 41 m 1,15,-1
 344 41 l 2,16,17
 418 41 418 41 473 85.5 c 128,-1,18
 528 130 528 130 539 199 c 0,19,20
 550 267 550 267 509 313.5 c 128,-1,21
 468 360 468 360 392 360 c 2,22,-1
 167 360 l 1,23,-1
 114 41 l 1,15,-1
174 400 m 1,24,-1
 373 400 l 2,25,26
 446 400 446 400 501 437.5 c 128,-1,27
 556 475 556 475 569 548 c 0,28,29
 580 612 580 612 545.5 653 c 128,-1,30
 511 694 511 694 427 694 c 2,31,-1
 222 694 l 1,32,-1
 174 400 l 1,24,-1
EndSplineSet
EndChar

StartChar: C
Encoding: 67 67 38
Width: 619
GlyphClass: 2
Flags: W
LayerCount: 2
Fore
SplineSet
69 368 m 0,0,1
 99 549 99 549 197.5 651.5 c 128,-1,2
 296 754 296 754 429 754 c 0,3,4
 510 754 510 754 558.5 709 c 128,-1,5
 607 664 607 664 621 605 c 1,6,-1
 578 588 l 1,7,8
 541 713 541 713 422 713 c 0,9,10
 309 713 309 713 226 619 c 128,-1,11
 143 525 143 525 117 368 c 0,12,13
 91 208 91 208 144 115 c 128,-1,14
 197 22 197 22 307 22 c 0,15,16
 377 22 377 22 433 60 c 128,-1,17
 489 98 489 98 525 155 c 1,18,-1
 565 141 l 1,19,20
 463 -18 463 -18 302 -18 c 0,21,22
 169 -18 169 -18 104 85 c 128,-1,23
 39 188 39 188 69 368 c 0,0,1
EndSplineSet
EndChar

StartChar: D
Encoding: 68 68 39
Width: 663
GlyphClass: 2
Flags: W
LayerCount: 2
Fore
SplineSet
61 0 m 1,0,-1
 183 735 l 1,1,-1
 366 735 l 2,2,3
 518 735 518 735 590 643 c 128,-1,4
 662 551 662 551 632 368 c 0,5,6
 603 190 603 190 500.5 95 c 128,-1,7
 398 0 398 0 245 0 c 2,8,-1
 61 0 l 1,0,-1
114 41 m 1,9,-1
 239 41 l 2,10,11
 374 41 374 41 464.5 119 c 128,-1,12
 555 197 555 197 584 368 c 0,13,14
 638 694 638 694 349 694 c 2,15,-1
 222 694 l 1,16,-1
 114 41 l 1,9,-1
EndSplineSet
EndChar

StartChar: E
Encoding: 69 69 40
Width: 593
GlyphClass: 2
Flags: W
LayerCount: 2
Fore
SplineSet
61 0 m 1,0,-1
 183 735 l 1,1,-1
 619 735 l 1,2,-1
 612 694 l 1,3,-1
 222 694 l 1,4,-1
 174 402 l 1,5,-1
 527 402 l 1,6,-1
 520 362 l 1,7,-1
 167 362 l 1,8,-1
 114 41 l 1,9,-1
 516 41 l 1,10,-1
 509 0 l 1,11,-1
 61 0 l 1,0,-1
EndSplineSet
EndChar

StartChar: F
Encoding: 70 70 41
Width: 559
GlyphClass: 2
Flags: W
LayerCount: 2
Fore
SplineSet
61 0 m 1,0,-1
 183 735 l 1,1,-1
 602 735 l 1,2,-1
 596 694 l 1,3,-1
 222 694 l 1,4,-1
 172 391 l 1,5,-1
 508 391 l 1,6,-1
 502 352 l 1,7,-1
 166 352 l 1,8,-1
 107 0 l 1,9,-1
 61 0 l 1,0,-1
EndSplineSet
EndChar

StartChar: G
Encoding: 71 71 42
Width: 691
GlyphClass: 2
Flags: W
LayerCount: 2
Fore
SplineSet
69 368 m 0,0,1
 98 541 98 541 195.5 647.5 c 128,-1,2
 293 754 293 754 437 754 c 0,3,4
 522 754 522 754 572 711 c 128,-1,5
 622 668 622 668 639 611 c 1,6,-1
 598 595 l 1,7,8
 553 713 553 713 430 713 c 256,9,10
 308 713 308 713 225 618 c 128,-1,11
 142 523 142 523 117 368 c 0,12,13
 91 209 91 209 143.5 115.5 c 128,-1,14
 196 22 196 22 314 22 c 0,15,16
 369 22 369 22 415 43.5 c 128,-1,17
 461 65 461 65 491.5 101.5 c 128,-1,18
 522 138 522 138 541.5 180.5 c 128,-1,19
 561 223 561 223 569 270 c 2,20,-1
 581 344 l 1,21,-1
 359 344 l 1,22,-1
 365 384 l 1,23,-1
 634 384 l 1,24,-1
 570 0 l 1,25,-1
 533 0 l 1,26,-1
 554 137 l 1,27,28
 521 69 521 69 459.5 25.5 c 128,-1,29
 398 -18 398 -18 306 -18 c 0,30,31
 166 -18 166 -18 103 86.5 c 128,-1,32
 40 191 40 191 69 368 c 0,0,1
EndSplineSet
EndChar

StartChar: H
Encoding: 72 72 43
Width: 710
GlyphClass: 2
Flags: W
LayerCount: 2
Fore
SplineSet
61 0 m 1,0,-1
 183 735 l 1,1,-1
 229 735 l 1,2,-1
 174 400 l 1,3,-1
 575 400 l 1,4,-1
 631 735 l 1,5,-1
 678 735 l 1,6,-1
 556 0 l 1,7,-1
 509 0 l 1,8,-1
 569 360 l 1,9,-1
 167 360 l 1,10,-1
 107 0 l 1,11,-1
 61 0 l 1,0,-1
EndSplineSet
EndChar

StartChar: I
Encoding: 73 73 44
Width: 261
GlyphClass: 2
Flags: W
LayerCount: 2
Fore
SplineSet
61 0 m 1,0,-1
 183 735 l 1,1,-1
 229 735 l 1,2,-1
 107 0 l 1,3,-1
 61 0 l 1,0,-1
EndSplineSet
EndChar

StartChar: J
Encoding: 74 74 45
Width: 471
GlyphClass: 2
Flags: W
LayerCount: 2
Fore
SplineSet
-13 102 m 1,0,-1
 33 118 l 1,1,2
 44 72 44 72 72 47 c 128,-1,3
 100 22 100 22 140 22 c 0,4,5
 141 22 141 22 142 22 c 0,6,7
 275 25 275 25 306 209 c 2,8,-1
 393 735 l 1,9,-1
 440 735 l 1,10,-1
 351 198 l 2,11,12
 333 91 333 91 278 36.5 c 128,-1,13
 223 -18 223 -18 138 -18 c 0,14,15
 15 -18 15 -18 -13 102 c 1,0,-1
EndSplineSet
EndChar

StartChar: K
Encoding: 75 75 46
Width: 612
GlyphClass: 2
Flags: W
LayerCount: 2
Fore
SplineSet
61 0 m 1,0,-1
 183 735 l 1,1,-1
 229 735 l 1,2,-1
 158 303 l 1,3,-1
 158 303 l 1,4,-1
 598 735 l 1,5,-1
 661 735 l 1,6,-1
 338 420 l 1,7,-1
 560 0 l 1,8,-1
 500 0 l 1,9,-1
 301 384 l 1,10,-1
 146 233 l 1,11,-1
 107 0 l 1,12,-1
 61 0 l 1,0,-1
EndSplineSet
EndChar

StartChar: L
Encoding: 76 76 47
Width: 518
GlyphClass: 2
Flags: W
LayerCount: 2
Fore
SplineSet
61 0 m 1,0,-1
 183 735 l 1,1,-1
 229 735 l 1,2,-1
 114 41 l 1,3,-1
 469 41 l 1,4,-1
 462 0 l 1,5,-1
 61 0 l 1,0,-1
EndSplineSet
EndChar

StartChar: M
Encoding: 77 77 48
Width: 858
GlyphClass: 2
Flags: W
LayerCount: 2
Fore
SplineSet
61 0 m 1,0,-1
 183 735 l 1,1,-1
 244 735 l 1,2,-1
 361 291 l 2,3,4
 368 259 368 259 381 203 c 128,-1,5
 394 147 394 147 401 121 c 1,6,-1
 405 121 l 1,7,8
 418 144 418 144 450 201 c 128,-1,9
 482 258 482 258 500 291 c 2,10,-1
 764 735 l 1,11,-1
 827 735 l 1,12,-1
 705 0 l 1,13,-1
 658 0 l 1,14,-1
 737 478 l 2,15,16
 748 543 748 543 776 674 c 1,17,-1
 773 674 l 1,18,-1
 415 63 l 1,19,-1
 372 63 l 1,20,-1
 215 675 l 1,21,-1
 213 675 l 1,22,23
 201 565 201 565 186 478 c 2,24,-1
 107 0 l 1,25,-1
 61 0 l 1,0,-1
EndSplineSet
EndChar

StartChar: N
Encoding: 78 78 49
Width: 717
GlyphClass: 2
Flags: W
LayerCount: 2
Fore
SplineSet
61 0 m 1,0,-1
 183 735 l 1,1,-1
 238 735 l 1,2,-1
 469 209 l 1,3,-1
 531 66 l 1,4,-1
 535 66 l 1,5,6
 542 150 542 150 559 253 c 2,7,-1
 639 735 l 1,8,-1
 686 735 l 1,9,-1
 564 0 l 1,10,-1
 508 0 l 1,11,-1
 215 669 l 1,12,-1
 212 669 l 1,13,14
 202 574 202 574 185 470 c 2,15,-1
 107 0 l 1,16,-1
 61 0 l 1,0,-1
EndSplineSet
EndChar

StartChar: O
Encoding: 79 79 50
Width: 682
GlyphClass: 2
Flags: W
LayerCount: 2
Fore
SplineSet
69 368 m 256,0,1
 98 542 98 542 193 648 c 128,-1,2
 288 754 288 754 421 754 c 256,3,4
 553 754 553 754 612 648 c 128,-1,5
 671 542 671 542 642 367 c 0,6,7
 613 193 613 193 518.5 87.5 c 128,-1,8
 424 -18 424 -18 293 -18 c 0,9,10
 160 -18 160 -18 100 88 c 128,-1,11
 40 194 40 194 69 368 c 256,0,1
117 368 m 0,12,13
 91 213 91 213 139 117.5 c 128,-1,14
 187 22 187 22 299 22 c 0,15,16
 410 22 410 22 489.5 116 c 128,-1,17
 569 210 569 210 595 367 c 0,18,19
 621 525 621 525 572.5 619 c 128,-1,20
 524 713 524 713 414 713 c 0,21,22
 304 713 304 713 223.5 619.5 c 128,-1,23
 143 526 143 526 117 368 c 0,12,13
EndSplineSet
Substitution2: "Single Substitution lookup 12 subtable" ordmasculine
EndChar

StartChar: P
Encoding: 80 80 51
Width: 636
GlyphClass: 2
Flags: W
LayerCount: 2
Fore
SplineSet
61 0 m 1,0,-1
 183 735 l 1,1,-1
 450 735 l 2,2,3
 549 735 549 735 599 678.5 c 128,-1,4
 649 622 649 622 634 527 c 0,5,6
 618 430 618 430 547 374 c 128,-1,7
 476 318 476 318 380 318 c 2,8,-1
 160 318 l 1,9,-1
 107 0 l 1,10,-1
 61 0 l 1,0,-1
166 357 m 1,11,-1
 376 357 l 2,12,13
 460 357 460 357 516 400.5 c 128,-1,14
 572 444 572 444 586 527 c 0,15,16
 599 608 599 608 558 651 c 128,-1,17
 517 694 517 694 430 694 c 2,18,-1
 222 694 l 1,19,-1
 166 357 l 1,11,-1
EndSplineSet
EndChar

StartChar: Q
Encoding: 81 81 52
Width: 681
GlyphClass: 2
Flags: W
LayerCount: 2
Fore
SplineSet
68 367 m 0,0,1
 97 542 97 542 192 648 c 128,-1,2
 287 754 287 754 421 754 c 0,3,4
 552 754 552 754 611 647.5 c 128,-1,5
 670 541 670 541 642 367 c 256,6,7
 613 193 613 193 519 88 c 0,8,9
 512 79 512 79 503 71 c 1,10,-1
 576 -23 l 1,11,-1
 540 -51 l 1,12,-1
 469 41 l 1,13,14
 392 -18 392 -18 293 -18 c 0,15,16
 160 -18 160 -18 99.5 87.5 c 128,-1,17
 39 193 39 193 68 367 c 0,0,1
328 222 m 1,18,-1
 364 252 l 1,19,-1
 479 104 l 1,20,21
 484 110 484 110 489 116 c 0,22,23
 568 210 568 210 595 367 c 0,24,25
 622 528 622 528 572.5 620.5 c 128,-1,26
 523 713 523 713 414 713 c 0,27,28
 304 713 304 713 223.5 619.5 c 128,-1,29
 143 526 143 526 116 367 c 0,30,31
 90 211 90 211 140 116.5 c 128,-1,32
 190 22 190 22 299 22 c 0,33,34
 379 22 379 22 444 72 c 1,35,-1
 328 222 l 1,18,-1
EndSplineSet
EndChar

StartChar: R
Encoding: 82 82 53
Width: 644
GlyphClass: 2
Flags: W
LayerCount: 2
Fore
SplineSet
169 373 m 1,0,-1
 391 373 l 2,1,2
 472 373 472 373 524.5 417.5 c 128,-1,3
 577 462 577 462 589 535 c 0,4,5
 601 605 601 605 562.5 649.5 c 128,-1,6
 524 694 524 694 435 694 c 2,7,-1
 222 694 l 1,8,-1
 169 373 l 1,0,-1
61 0 m 1,9,-1
 183 735 l 1,10,-1
 455 735 l 2,11,12
 558 735 558 735 604 678.5 c 128,-1,13
 650 622 650 622 636 537 c 0,14,15
 622 454 622 454 571 407 c 128,-1,16
 520 360 520 360 467 349 c 1,17,18
 507 329 507 329 524.5 293.5 c 128,-1,19
 542 258 542 258 545 201 c 0,20,21
 545 192 545 192 547 168.5 c 128,-1,22
 549 145 549 145 550 138.5 c 128,-1,23
 551 132 551 132 552.5 114 c 128,-1,24
 554 96 554 96 555.5 89.5 c 128,-1,25
 557 83 557 83 559 68.5 c 128,-1,26
 561 54 561 54 563.5 45.5 c 128,-1,27
 566 37 566 37 570 24.5 c 128,-1,28
 574 12 574 12 579 0 c 1,29,-1
 526 0 l 1,30,31
 516 29 516 29 510 62.5 c 128,-1,32
 504 96 504 96 502 117.5 c 128,-1,33
 500 139 500 139 496 198 c 0,34,35
 493 224 493 224 488.5 245 c 128,-1,36
 484 266 484 266 471.5 287.5 c 128,-1,37
 459 309 459 309 435.5 320.5 c 128,-1,38
 412 332 412 332 378 332 c 2,39,-1
 162 332 l 1,40,-1
 107 0 l 1,41,-1
 61 0 l 1,9,-1
EndSplineSet
EndChar

StartChar: S
Encoding: 83 83 54
Width: 594
GlyphClass: 2
Flags: W
LayerCount: 2
Fore
SplineSet
21 122 m 1,0,-1
 69 140 l 1,1,2
 92 87 92 87 141.5 54.5 c 128,-1,3
 191 22 191 22 261 22 c 0,4,5
 347 22 347 22 408.5 65.5 c 128,-1,6
 470 109 470 109 483 186 c 0,7,8
 489 222 489 222 478.5 250 c 128,-1,9
 468 278 468 278 438 299 c 128,-1,10
 408 320 408 320 383.5 330.5 c 128,-1,11
 359 341 359 341 313 359 c 0,12,13
 270 374 270 374 247.5 382.5 c 128,-1,14
 225 391 225 391 192 410.5 c 128,-1,15
 159 430 159 430 143 449.5 c 128,-1,16
 127 469 127 469 117.5 500 c 128,-1,17
 108 531 108 531 114 569 c 0,18,19
 128 654 128 654 199 704 c 128,-1,20
 270 754 270 754 378 754 c 0,21,22
 454 754 454 754 507.5 718 c 128,-1,23
 561 682 561 682 580 630 c 1,24,-1
 537 614 l 1,25,26
 491 713 491 713 368 713 c 0,27,28
 282 713 282 713 227 673.5 c 128,-1,29
 172 634 172 634 161 569 c 0,30,31
 156 539 156 539 165 514 c 128,-1,32
 174 489 174 489 188 473 c 128,-1,33
 202 457 202 457 232.5 441 c 128,-1,34
 263 425 263 425 284 416.5 c 128,-1,35
 305 408 305 408 343 395 c 0,36,37
 383 380 383 380 406 370.5 c 128,-1,38
 429 361 429 361 459 342.5 c 128,-1,39
 489 324 489 324 504.5 304 c 128,-1,40
 520 284 520 284 528.5 254 c 128,-1,41
 537 224 537 224 531 188 c 0,42,43
 515 91 515 91 441 36.5 c 128,-1,44
 367 -18 367 -18 252 -18 c 0,45,46
 81 -18 81 -18 21 122 c 1,0,-1
EndSplineSet
EndChar

StartChar: T
Encoding: 84 84 55
Width: 532
GlyphClass: 2
Flags: W
LayerCount: 2
Fore
SplineSet
84 694 m 1,0,-1
 91 735 l 1,1,-1
 593 735 l 1,2,-1
 586 694 l 1,3,-1
 360 694 l 1,4,-1
 245 0 l 1,5,-1
 198 0 l 1,6,-1
 313 694 l 1,7,-1
 84 694 l 1,0,-1
EndSplineSet
EndChar

StartChar: U
Encoding: 85 85 56
Width: 709
GlyphClass: 2
Flags: W
LayerCount: 2
Fore
SplineSet
103 256 m 2,0,-1
 182 735 l 1,1,-1
 228 735 l 1,2,-1
 149 260 l 2,3,4
 130 144 130 144 174 83 c 128,-1,5
 218 22 218 22 311 22 c 0,6,7
 406 22 406 22 470 84 c 128,-1,8
 534 146 534 146 553 260 c 2,9,-1
 632 735 l 1,10,-1
 679 735 l 1,11,-1
 600 256 l 2,12,13
 578 125 578 125 502 53.5 c 128,-1,14
 426 -18 426 -18 304 -18 c 0,15,16
 186 -18 186 -18 133.5 52.5 c 128,-1,17
 81 123 81 123 103 256 c 2,0,-1
EndSplineSet
EndChar

StartChar: V
Encoding: 86 86 57
Width: 557
GlyphClass: 2
Flags: W
LayerCount: 2
Fore
SplineSet
72 735 m 1,0,-1
 125 735 l 1,1,-1
 213 200 l 2,2,3
 217 177 217 177 225 127 c 128,-1,4
 233 77 233 77 236 50 c 1,5,-1
 239 50 l 1,6,7
 253 78 253 78 278 127.5 c 128,-1,8
 303 177 303 177 314 200 c 2,9,-1
 584 735 l 1,10,-1
 635 735 l 1,11,-1
 258 0 l 1,12,-1
 202 0 l 1,13,-1
 72 735 l 1,0,-1
EndSplineSet
EndChar

StartChar: W
Encoding: 87 87 58
Width: 825
GlyphClass: 2
Flags: W
LayerCount: 2
Fore
SplineSet
85 735 m 1,0,-1
 137 735 l 1,1,-1
 171 201 l 2,2,3
 173 154 173 154 176 54 c 1,4,-1
 180 54 l 1,5,6
 190 80 190 80 209 128.5 c 128,-1,7
 228 177 228 177 238 201 c 2,8,-1
 461 735 l 1,9,-1
 515 735 l 1,10,-1
 561 201 l 2,11,12
 563 175 563 175 566 125.5 c 128,-1,13
 569 76 569 76 571 54 c 1,14,-1
 574 54 l 1,15,16
 607 146 607 146 628 201 c 2,17,-1
 839 735 l 1,18,-1
 891 735 l 1,19,-1
 592 0 l 1,20,-1
 535 0 l 1,21,-1
 490 525 l 2,22,23
 482 617 482 617 480 678 c 1,24,-1
 477 678 l 1,25,26
 457 624 457 624 415 525 c 2,27,-1
 197 0 l 1,28,-1
 141 0 l 1,29,-1
 85 735 l 1,0,-1
EndSplineSet
EndChar

StartChar: X
Encoding: 88 88 59
Width: 529
GlyphClass: 2
Flags: W
LayerCount: 2
Fore
SplineSet
-51 0 m 1,0,-1
 250 378 l 1,1,-1
 84 735 l 1,2,-1
 142 735 l 1,3,-1
 238 522 l 2,4,5
 242 514 242 514 284 414 c 1,6,-1
 288 414 l 1,7,8
 349 494 349 494 372 522 c 2,9,-1
 538 735 l 1,10,-1
 597 735 l 1,11,-1
 312 378 l 1,12,-1
 487 0 l 1,13,-1
 431 0 l 1,14,-1
 327 227 l 2,15,16
 317 249 317 249 298.5 290.5 c 128,-1,17
 280 332 280 332 276 340 c 1,18,-1
 272 340 l 1,19,20
 254 317 254 317 186 227 c 2,21,-1
 7 0 l 1,22,-1
 -51 0 l 1,0,-1
EndSplineSet
EndChar

StartChar: Y
Encoding: 89 89 60
Width: 557
GlyphClass: 2
Flags: W
LayerCount: 2
Fore
SplineSet
72 735 m 1,0,-1
 129 735 l 1,1,-1
 242 464 l 2,2,3
 248 449 248 449 264.5 408 c 128,-1,4
 281 367 281 367 288 348 c 1,5,-1
 290 348 l 1,6,7
 324 392 324 392 377 464 c 2,8,-1
 579 735 l 1,9,-1
 635 735 l 1,10,-1
 306 303 l 1,11,-1
 256 0 l 1,12,-1
 210 0 l 1,13,-1
 260 303 l 1,14,-1
 72 735 l 1,0,-1
EndSplineSet
EndChar

StartChar: Z
Encoding: 90 90 61
Width: 599
GlyphClass: 2
Flags: W
LayerCount: 2
Fore
SplineSet
12 37 m 1,0,-1
 549 694 l 1,1,-1
 153 694 l 1,2,-1
 160 735 l 1,3,-1
 614 735 l 1,4,-1
 607 698 l 1,5,-1
 67 41 l 1,6,-1
 508 41 l 1,7,-1
 502 0 l 1,8,-1
 6 0 l 1,9,-1
 12 37 l 1,0,-1
EndSplineSet
EndChar

StartChar: bracketleft
Encoding: 91 91 62
Width: 434
GlyphClass: 2
Flags: W
LayerCount: 2
Fore
SplineSet
89 -134 m 1,0,-1
 250 837 l 1,1,-1
 428 837 l 1,2,-1
 422 798 l 1,3,-1
 290 798 l 1,4,-1
 142 -96 l 1,5,-1
 274 -96 l 1,6,-1
 268 -134 l 1,7,-1
 89 -134 l 1,0,-1
EndSplineSet
EndChar

StartChar: backslash
Encoding: 92 92 63
Width: 299
GlyphClass: 2
Flags: W
LayerCount: 2
Fore
SplineSet
76 790 m 1,0,-1
 122 790 l 1,1,-1
 251 -64 l 1,2,-1
 205 -64 l 1,3,-1
 76 790 l 1,0,-1
EndSplineSet
EndChar

StartChar: bracketright
Encoding: 93 93 64
Width: 434
GlyphClass: 2
Flags: W
LayerCount: 2
Fore
SplineSet
35 -96 m 1,0,-1
 168 -96 l 1,1,-1
 316 798 l 1,2,-1
 183 798 l 1,3,-1
 190 837 l 1,4,-1
 368 837 l 1,5,-1
 207 -134 l 1,6,-1
 29 -134 l 1,7,-1
 35 -96 l 1,0,-1
EndSplineSet
EndChar

StartChar: asciicircum
Encoding: 94 94 65
Width: 477
GlyphClass: 2
Flags: W
LayerCount: 2
Fore
SplineSet
62 495 m 1,0,-1
 305 816 l 1,1,-1
 350 816 l 1,2,-1
 487 495 l 1,3,-1
 438 495 l 1,4,-1
 321 776 l 1,5,-1
 320 776 l 1,6,-1
 276 718 l 1,7,-1
 111 495 l 1,8,-1
 62 495 l 1,0,-1
EndSplineSet
EndChar

StartChar: underscore
Encoding: 95 95 66
Width: 420
GlyphClass: 2
Flags: W
LayerCount: 2
Fore
SplineSet
-46 -40 m 1,0,-1
 361 -40 l 1,1,-1
 355 -80 l 1,2,-1
 -53 -80 l 1,3,-1
 -46 -40 l 1,0,-1
EndSplineSet
EndChar

StartChar: grave
Encoding: 96 96 67
Width: 259
GlyphClass: 2
Flags: W
LayerCount: 2
Fore
SplineSet
198 553 m 1,0,-1
 129 832 l 1,1,-1
 201 832 l 1,2,-1
 238 553 l 1,3,-1
 198 553 l 1,0,-1
EndSplineSet
EndChar

StartChar: a
Encoding: 97 97 68
Width: 525
GlyphClass: 2
Flags: W
LayerCount: 2
Fore
SplineSet
62 124 m 0,0,1
 55 82 55 82 84 51 c 128,-1,2
 113 20 113 20 175 20 c 0,3,4
 251 20 251 20 314.5 71.5 c 128,-1,5
 378 123 378 123 392 204 c 2,6,-1
 407 298 l 1,7,8
 357 280 357 280 249 263 c 0,9,10
 80 235 80 235 62 124 c 0,0,1
18 122 m 0,11,12
 30 193 30 193 86 237 c 128,-1,13
 142 281 142 281 254 298.5 c 128,-1,14
 366 316 366 316 414 335 c 1,15,-1
 418 363 l 2,16,17
 428 424 428 424 395.5 463.5 c 128,-1,18
 363 503 363 503 292 503 c 0,19,20
 245 503 245 503 199.5 480 c 128,-1,21
 154 457 154 457 117 417 c 1,22,-1
 91 440 l 1,23,24
 130 484 130 484 184.5 512 c 128,-1,25
 239 540 239 540 297 540 c 0,26,27
 396 540 396 540 435 488 c 128,-1,28
 474 436 474 436 459 351 c 2,29,-1
 401 0 l 1,30,-1
 359 0 l 1,31,-1
 376 104 l 1,32,33
 351 55 351 55 293 18.5 c 128,-1,34
 235 -18 235 -18 165 -18 c 0,35,36
 86 -18 86 -18 47 21.5 c 128,-1,37
 8 61 8 61 18 122 c 0,11,12
EndSplineSet
Substitution2: "Single Substitution lookup 12 subtable" ordfeminine
EndChar

StartChar: b
Encoding: 98 98 69
Width: 550
GlyphClass: 2
Flags: W
LayerCount: 2
Fore
SplineSet
41 0 m 1,0,-1
 168 766 l 1,1,-1
 212 766 l 1,2,-1
 152 401 l 1,3,4
 173 453 173 453 224.5 496.5 c 128,-1,5
 276 540 276 540 340 540 c 0,6,7
 432 540 432 540 476 465 c 128,-1,8
 520 390 520 390 499 262 c 0,9,10
 476 123 476 123 403 52.5 c 128,-1,11
 330 -18 330 -18 247 -18 c 0,12,13
 188 -18 188 -18 151 20 c 128,-1,14
 114 58 114 58 104 114 c 1,15,-1
 85 0 l 1,16,-1
 41 0 l 1,0,-1
127 262 m 0,17,18
 108 150 108 150 145 85 c 128,-1,19
 182 20 182 20 249 20 c 0,20,21
 322 20 322 20 379.5 85.5 c 128,-1,22
 437 151 437 151 456 262 c 0,23,24
 474 372 474 372 438.5 437 c 128,-1,25
 403 502 403 502 330 502 c 0,26,27
 264 502 264 502 204.5 437.5 c 128,-1,28
 145 373 145 373 127 262 c 0,17,18
EndSplineSet
EndChar

StartChar: c
Encoding: 99 99 70
Width: 474
GlyphClass: 2
Flags: W
LayerCount: 2
Fore
SplineSet
45 262 m 0,0,1
 65 384 65 384 135 462 c 128,-1,2
 205 540 205 540 306 540 c 0,3,4
 368 540 368 540 407 505 c 128,-1,5
 446 470 446 470 456 418 c 1,6,-1
 415 406 l 1,7,8
 406 448 406 448 375 475 c 128,-1,9
 344 502 344 502 300 502 c 0,10,11
 224 502 224 502 165 434.5 c 128,-1,12
 106 367 106 367 89 262 c 0,13,14
 71 154 71 154 108.5 87 c 128,-1,15
 146 20 146 20 220 20 c 0,16,17
 268 20 268 20 312 50.5 c 128,-1,18
 356 81 356 81 382 122 c 1,19,-1
 418 108 l 1,20,21
 387 55 387 55 332 18.5 c 128,-1,22
 277 -18 277 -18 214 -18 c 0,23,24
 118 -18 118 -18 71 58.5 c 128,-1,25
 24 135 24 135 45 262 c 0,0,1
EndSplineSet
EndChar

StartChar: d
Encoding: 100 100 71
Width: 550
GlyphClass: 2
Flags: W
LayerCount: 2
Fore
SplineSet
45 262 m 0,0,1
 66 391 66 391 135.5 465.5 c 128,-1,2
 205 540 205 540 297 540 c 0,3,4
 358 540 358 540 395 500 c 128,-1,5
 432 460 432 460 439 403 c 1,6,-1
 499 766 l 1,7,-1
 542 766 l 1,8,-1
 415 0 l 1,9,-1
 373 0 l 1,10,-1
 392 115 l 1,11,12
 364 58 364 58 314 20 c 128,-1,13
 264 -18 264 -18 203 -18 c 0,14,15
 120 -18 120 -18 71 52 c 128,-1,16
 22 122 22 122 45 262 c 0,0,1
89 262 m 0,17,18
 71 153 71 153 105 86.5 c 128,-1,19
 139 20 139 20 214 20 c 0,20,21
 282 20 282 20 340 85 c 128,-1,22
 398 150 398 150 417 262 c 0,23,24
 435 373 435 373 397.5 437.5 c 128,-1,25
 360 502 360 502 293 502 c 0,26,27
 220 502 220 502 163.5 437 c 128,-1,28
 107 372 107 372 89 262 c 0,17,18
EndSplineSet
EndChar

StartChar: e
Encoding: 101 101 72
Width: 525
GlyphClass: 2
Flags: W
LayerCount: 2
Fore
SplineSet
45 265 m 0,0,1
 65 386 65 386 137 463 c 128,-1,2
 209 540 209 540 308 540 c 0,3,4
 408 540 408 540 452.5 464 c 128,-1,5
 497 388 497 388 479 278 c 0,6,7
 478 272 478 272 476 263 c 128,-1,8
 474 254 474 254 473 248 c 1,9,-1
 86 248 l 1,10,11
 71 155 71 155 107 87.5 c 128,-1,12
 143 20 143 20 224 20 c 0,13,14
 276 20 276 20 324 48 c 128,-1,15
 372 76 372 76 402 119 c 1,16,-1
 437 105 l 1,17,18
 402 50 402 50 346 16 c 128,-1,19
 290 -18 290 -18 218 -18 c 0,20,21
 117 -18 117 -18 70.5 61 c 128,-1,22
 24 140 24 140 45 265 c 0,0,1
93 283 m 1,23,-1
 435 283 l 1,24,25
 450 373 450 373 414 437.5 c 128,-1,26
 378 502 378 502 301 502 c 0,27,28
 222 502 222 502 165.5 436 c 128,-1,29
 109 370 109 370 93 283 c 1,23,-1
EndSplineSet
EndChar

StartChar: f
Encoding: 102 102 73
Width: 310
GlyphClass: 2
Flags: W
LayerCount: 2
Fore
SplineSet
58 483 m 1,0,-1
 64 523 l 1,1,-1
 156 523 l 1,2,-1
 172 620 l 2,3,4
 184 695 184 695 226.5 730.5 c 128,-1,5
 269 766 269 766 329 766 c 2,6,-1
 379 766 l 1,7,-1
 373 727 l 1,8,-1
 326 727 l 2,9,10
 234 727 234 727 215 613 c 2,11,-1
 200 523 l 1,12,-1
 326 523 l 1,13,-1
 319 483 l 1,14,-1
 194 483 l 1,15,-1
 114 0 l 1,16,-1
 70 0 l 1,17,-1
 150 483 l 1,18,-1
 58 483 l 1,0,-1
EndSplineSet
EndChar

StartChar: g
Encoding: 103 103 74
Width: 541
GlyphClass: 2
Flags: W
LayerCount: 2
Fore
SplineSet
90 271 m 0,0,1
 73 168 73 168 107 103.5 c 128,-1,2
 141 39 141 39 211 39 c 0,3,4
 285 39 285 39 338.5 101 c 128,-1,5
 392 163 392 163 410 272 c 0,6,7
 427 375 427 375 393 438.5 c 128,-1,8
 359 502 359 502 290 502 c 0,9,10
 215 502 215 502 161 437 c 128,-1,11
 107 372 107 372 90 271 c 0,0,1
46 271 m 0,12,13
 66 391 66 391 133.5 465.5 c 128,-1,14
 201 540 201 540 293 540 c 0,15,16
 357 540 357 540 390 501.5 c 128,-1,17
 423 463 423 463 433 412 c 1,18,-1
 451 523 l 1,19,-1
 494 523 l 1,20,-1
 416 47 l 2,21,22
 391 -101 391 -101 332.5 -172.5 c 128,-1,23
 274 -244 274 -244 167 -244 c 0,24,25
 59 -244 59 -244 9 -155 c 1,26,-1
 44 -134 l 1,27,28
 94 -206 94 -206 175 -206 c 0,29,30
 331 -206 331 -206 370 32 c 2,31,-1
 385 125 l 1,32,33
 319 0 319 0 204 0 c 0,34,35
 112 0 112 0 69 76 c 128,-1,36
 26 152 26 152 46 271 c 0,12,13
EndSplineSet
EndChar

StartChar: h
Encoding: 104 104 75
Width: 541
GlyphClass: 2
Flags: W
LayerCount: 2
Fore
SplineSet
41 0 m 1,0,-1
 168 766 l 1,1,-1
 212 766 l 1,2,-1
 155 421 l 1,3,-1
 156 421 l 1,4,5
 181 468 181 468 233.5 504 c 128,-1,6
 286 540 286 540 347 540 c 0,7,8
 424 540 424 540 456 489 c 128,-1,9
 488 438 488 438 472 338 c 2,10,-1
 416 0 l 1,11,-1
 374 0 l 1,12,-1
 429 329 l 2,13,14
 458 502 458 502 333 502 c 0,15,16
 269 502 269 502 209.5 447 c 128,-1,17
 150 392 150 392 138 318 c 2,18,-1
 85 0 l 1,19,-1
 41 0 l 1,0,-1
EndSplineSet
Substitution2: "'sups' Superscript lookup 5 subtable" uni02B0
Substitution2: "'aalt' Access All Alternates lookup 0 subtable" uni02B0
EndChar

StartChar: i
Encoding: 105 105 76
Width: 254
GlyphClass: 2
Flags: W
LayerCount: 2
Fore
SplineSet
153 662 m 1,0,-1
 167 746 l 1,1,-1
 240 746 l 1,2,-1
 226 662 l 1,3,-1
 153 662 l 1,0,-1
60 0 m 1,4,-1
 147 523 l 1,5,-1
 189 523 l 1,6,-1
 102 0 l 1,7,-1
 60 0 l 1,4,-1
EndSplineSet
EndChar

StartChar: j
Encoding: 106 106 77
Width: 262
GlyphClass: 2
Flags: W
LayerCount: 2
Fore
SplineSet
160 662 m 1,0,-1
 174 746 l 1,1,-1
 248 746 l 1,2,-1
 234 662 l 1,3,-1
 160 662 l 1,0,-1
-85 -194 m 1,4,-1
 -60 -194 l 2,5,6
 35 -194 35 -194 57 -61 c 2,7,-1
 154 523 l 1,8,-1
 196 523 l 1,9,-1
 99 -65 l 2,10,11
 85 -148 85 -148 45 -190.5 c 128,-1,12
 5 -233 5 -233 -58 -233 c 2,13,-1
 -91 -233 l 1,14,-1
 -85 -194 l 1,4,-1
EndSplineSet
Substitution2: "'sups' Superscript lookup 5 subtable" uni02B2
Substitution2: "'aalt' Access All Alternates lookup 0 subtable" uni02B2
EndChar

StartChar: k
Encoding: 107 107 78
Width: 468
GlyphClass: 2
Flags: W
LayerCount: 2
Fore
SplineSet
42 0 m 1,0,-1
 169 766 l 1,1,-1
 214 766 l 1,2,-1
 124 222 l 1,3,-1
 427 523 l 1,4,-1
 485 523 l 1,5,-1
 276 316 l 1,6,-1
 422 0 l 1,7,-1
 369 0 l 1,8,-1
 240 282 l 1,9,-1
 113 158 l 1,10,-1
 87 0 l 1,11,-1
 42 0 l 1,0,-1
EndSplineSet
EndChar

StartChar: l
Encoding: 108 108 79
Width: 227
GlyphClass: 2
Flags: W
LayerCount: 2
Fore
SplineSet
45 0 m 1,0,-1
 172 766 l 1,1,-1
 216 766 l 1,2,-1
 89 0 l 1,3,-1
 45 0 l 1,0,-1
EndSplineSet
Substitution2: "'sups' Superscript lookup 5 subtable" uni02E1
Substitution2: "'aalt' Access All Alternates lookup 0 subtable" uni02E1
EndChar

StartChar: m
Encoding: 109 109 80
Width: 799
GlyphClass: 2
Flags: W
LayerCount: 2
Fore
SplineSet
38 0 m 1,0,-1
 124 523 l 1,1,-1
 167 523 l 1,2,-1
 151 429 l 1,3,-1
 152 429 l 1,4,5
 173 472 173 472 217 506 c 128,-1,6
 261 540 261 540 323 540 c 0,7,8
 430 540 430 540 433 408 c 1,9,10
 437 420 437 420 450.5 439.5 c 128,-1,11
 464 459 464 459 487 483 c 128,-1,12
 510 507 510 507 547 523.5 c 128,-1,13
 584 540 584 540 626 540 c 0,14,15
 698 540 698 540 723 490 c 128,-1,16
 748 440 748 440 732 339 c 2,17,-1
 676 0 l 1,18,-1
 631 0 l 1,19,-1
 686 332 l 2,20,21
 700 416 700 416 685.5 459 c 128,-1,22
 671 502 671 502 609 502 c 256,23,24
 547 502 547 502 495.5 449.5 c 128,-1,25
 444 397 444 397 431 313 c 2,26,-1
 379 0 l 1,27,-1
 335 0 l 1,28,-1
 389 332 l 2,29,30
 417 502 417 502 309 502 c 0,31,32
 244 502 244 502 195.5 451.5 c 128,-1,33
 147 401 147 401 134 320 c 2,34,-1
 81 0 l 1,35,-1
 38 0 l 1,0,-1
EndSplineSet
EndChar

StartChar: n
Encoding: 110 110 81
Width: 538
GlyphClass: 2
Flags: W
LayerCount: 2
Fore
SplineSet
38 0 m 1,0,-1
 124 523 l 1,1,-1
 167 523 l 1,2,-1
 149 415 l 1,3,-1
 150 415 l 1,4,5
 165 457 165 457 220 498.5 c 128,-1,6
 275 540 275 540 343 540 c 0,7,8
 372 540 372 540 396.5 531.5 c 128,-1,9
 421 523 421 523 442 502.5 c 128,-1,10
 463 482 463 482 470.5 440.5 c 128,-1,11
 478 399 478 399 468 338 c 2,12,-1
 412 0 l 1,13,-1
 368 0 l 1,14,-1
 422 329 l 2,15,16
 451 502 451 502 328 502 c 0,17,18
 264 502 264 502 205 447 c 128,-1,19
 146 392 146 392 134 318 c 2,20,-1
 81 0 l 1,21,-1
 38 0 l 1,0,-1
EndSplineSet
Substitution2: "'sups' Superscript lookup 5 subtable" uni207F
Substitution2: "'aalt' Access All Alternates lookup 0 subtable" uni207F
EndChar

StartChar: o
Encoding: 111 111 82
Width: 530
GlyphClass: 2
Flags: W
LayerCount: 2
Fore
SplineSet
89 262 m 0,0,1
 71 155 71 155 108 87.5 c 128,-1,2
 145 20 145 20 222 20 c 256,3,4
 299 20 299 20 358.5 88 c 128,-1,5
 418 156 418 156 436 262 c 0,6,7
 454 370 454 370 415 436 c 128,-1,8
 376 502 376 502 301 502 c 0,9,10
 227 502 227 502 167 436.5 c 128,-1,11
 107 371 107 371 89 262 c 0,0,1
45 262 m 0,12,13
 65 383 65 383 135.5 461.5 c 128,-1,14
 206 540 206 540 308 540 c 0,15,16
 408 540 408 540 454 461.5 c 128,-1,17
 500 383 500 383 480 262 c 0,18,19
 471 208 471 208 449 159 c 128,-1,20
 427 110 427 110 395 70 c 128,-1,21
 363 30 363 30 316 6 c 128,-1,22
 269 -18 269 -18 215 -18 c 0,23,24
 110 -18 110 -18 68 64.5 c 128,-1,25
 26 147 26 147 45 262 c 0,12,13
EndSplineSet
Substitution2: "Single Substitution lookup 12 subtable" ordmasculine
EndChar

StartChar: p
Encoding: 112 112 83
Width: 550
GlyphClass: 2
Flags: W
LayerCount: 2
Fore
SplineSet
128 263 m 0,0,1
 110 155 110 155 144 87.5 c 128,-1,2
 178 20 178 20 250 20 c 0,3,4
 321 20 321 20 379 85 c 128,-1,5
 437 150 437 150 456 262 c 0,6,7
 473 367 473 367 441 434.5 c 128,-1,8
 409 502 409 502 330 502 c 0,9,10
 261 502 261 502 203 434 c 128,-1,11
 145 366 145 366 128 263 c 0,0,1
2 -240 m 1,12,-1
 128 523 l 1,13,-1
 171 523 l 1,14,-1
 151 404 l 1,15,16
 181 466 181 466 231.5 503 c 128,-1,17
 282 540 282 540 340 540 c 0,18,19
 432 540 432 540 476 464 c 128,-1,20
 520 388 520 388 499 262 c 0,21,22
 477 127 477 127 405.5 54.5 c 128,-1,23
 334 -18 334 -18 247 -18 c 0,24,25
 186 -18 186 -18 150.5 19.5 c 128,-1,26
 115 57 115 57 105 116 c 1,27,-1
 46 -240 l 1,28,-1
 2 -240 l 1,12,-1
EndSplineSet
EndChar

StartChar: q
Encoding: 113 113 84
Width: 549
GlyphClass: 2
Flags: W
LayerCount: 2
Fore
SplineSet
89 262 m 0,0,1
 71 152 71 152 106 86 c 128,-1,2
 141 20 141 20 213 20 c 0,3,4
 286 20 286 20 342 88 c 128,-1,5
 398 156 398 156 416 263 c 0,6,7
 433 368 433 368 398 435 c 128,-1,8
 363 502 363 502 293 502 c 0,9,10
 215 502 215 502 160.5 434.5 c 128,-1,11
 106 367 106 367 89 262 c 0,0,1
45 262 m 0,12,13
 66 388 66 388 135 464 c 128,-1,14
 204 540 204 540 296 540 c 0,15,16
 352 540 352 540 391 504.5 c 128,-1,17
 430 469 430 469 440 405 c 1,18,-1
 460 523 l 1,19,-1
 502 523 l 1,20,-1
 376 -240 l 1,21,-1
 332 -240 l 1,22,-1
 391 116 l 1,23,24
 361 57 361 57 312.5 19.5 c 128,-1,25
 264 -18 264 -18 204 -18 c 0,26,27
 116 -18 116 -18 69.5 55 c 128,-1,28
 23 128 23 128 45 262 c 0,12,13
EndSplineSet
EndChar

StartChar: r
Encoding: 114 114 85
Width: 347
GlyphClass: 2
Flags: W
LayerCount: 2
Fore
SplineSet
38 0 m 1,0,-1
 124 523 l 1,1,-1
 166 523 l 1,2,-1
 151 432 l 1,3,4
 171 472 171 472 213 506 c 128,-1,5
 255 540 255 540 317 540 c 0,6,7
 360 540 360 540 388 525 c 1,8,-1
 381 483 l 1,9,10
 349 500 349 500 310 500 c 0,11,12
 242 500 242 500 194 446 c 128,-1,13
 146 392 146 392 132 309 c 2,14,-1
 81 0 l 1,15,-1
 38 0 l 1,0,-1
EndSplineSet
Substitution2: "'sups' Superscript lookup 5 subtable" uni02B3
Substitution2: "'aalt' Access All Alternates lookup 0 subtable" uni02B3
EndChar

StartChar: s
Encoding: 115 115 86
Width: 459
GlyphClass: 2
Flags: W
LayerCount: 2
Fore
SplineSet
9 92 m 1,0,-1
 46 112 l 1,1,2
 86 20 86 20 189 20 c 0,3,4
 253 20 253 20 297 48 c 128,-1,5
 341 76 341 76 349 123 c 0,6,7
 352 142 352 142 349.5 156 c 128,-1,8
 347 170 347 170 334.5 182.5 c 128,-1,9
 322 195 322 195 313.5 202 c 128,-1,10
 305 209 305 209 281 219 c 128,-1,11
 257 229 257 229 246.5 233.5 c 128,-1,12
 236 238 236 238 205 248 c 0,13,14
 174 259 174 259 152 269 c 128,-1,15
 130 279 130 279 107.5 297 c 128,-1,16
 85 315 85 315 76 341 c 128,-1,17
 67 367 67 367 73 401 c 0,18,19
 84 465 84 465 139.5 502.5 c 128,-1,20
 195 540 195 540 275 540 c 0,21,22
 333 540 333 540 374.5 509.5 c 128,-1,23
 416 479 416 479 431 435 c 1,24,-1
 398 415 l 1,25,26
 382 453 382 453 348.5 477.5 c 128,-1,27
 315 502 315 502 268 502 c 0,28,29
 205 502 205 502 164.5 473.5 c 128,-1,30
 124 445 124 445 117 400 c 0,31,32
 109 351 109 351 141 323.5 c 128,-1,33
 173 296 173 296 236 277 c 0,34,35
 272 266 272 266 296.5 256 c 128,-1,36
 321 246 321 246 348 228 c 128,-1,37
 375 210 375 210 386 183.5 c 128,-1,38
 397 157 397 157 391 123 c 0,39,40
 381 63 381 63 326 22.5 c 128,-1,41
 271 -18 271 -18 182 -18 c 0,42,43
 52 -18 52 -18 9 92 c 1,0,-1
EndSplineSet
Substitution2: "'hist' Historical Forms lookup 11 subtable" longs
Substitution2: "'sups' Superscript lookup 5 subtable" uni02E2
AlternateSubs2: "'aalt' Access All Alternates lookup 1 subtable" uni02E2 longs
EndChar

StartChar: t
Encoding: 116 116 87
Width: 335
GlyphClass: 2
Flags: W
LayerCount: 2
Fore
SplineSet
58 483 m 1,0,-1
 64 523 l 1,1,-1
 157 523 l 1,2,-1
 186 699 l 1,3,-1
 232 699 l 1,4,-1
 202 523 l 1,5,-1
 336 523 l 1,6,-1
 330 483 l 1,7,-1
 196 483 l 1,8,-1
 140 144 l 2,9,10
 131 88 131 88 146.5 64 c 128,-1,11
 162 40 162 40 205 40 c 0,12,13
 207 40 207 40 209 40 c 2,14,-1
 256 40 l 1,15,-1
 250 0 l 1,16,-1
 198 0 l 2,17,18
 196 0 196 0 194 0 c 0,19,20
 136 0 136 0 109 33 c 128,-1,21
 82 66 82 66 93 137 c 2,22,-1
 151 483 l 1,23,-1
 58 483 l 1,0,-1
EndSplineSet
EndChar

StartChar: u
Encoding: 117 117 88
Width: 534
GlyphClass: 2
Flags: W
LayerCount: 2
Fore
SplineSet
62 179 m 2,0,-1
 119 523 l 1,1,-1
 162 523 l 1,2,-1
 108 195 l 2,3,4
 79 20 79 20 205 20 c 0,5,6
 283 20 283 20 333.5 80 c 128,-1,7
 384 140 384 140 397 222 c 2,8,-1
 447 523 l 1,9,-1
 489 523 l 1,10,-1
 403 0 l 1,11,-1
 361 0 l 1,12,-1
 378 103 l 1,13,14
 362 60 362 60 313 21 c 128,-1,15
 264 -18 264 -18 190 -18 c 0,16,17
 114 -18 114 -18 80.5 35.5 c 128,-1,18
 47 89 47 89 62 179 c 2,0,-1
EndSplineSet
EndChar

StartChar: v
Encoding: 118 118 89
Width: 457
GlyphClass: 2
Flags: W
LayerCount: 2
Fore
SplineSet
51 523 m 1,0,-1
 100 523 l 1,1,-1
 169 160 l 2,2,3
 173 142 173 142 179 100.5 c 128,-1,4
 185 59 185 59 189 40 c 1,5,-1
 191 40 l 1,6,7
 223 104 223 104 251 160 c 2,8,-1
 437 523 l 1,9,-1
 487 523 l 1,10,-1
 210 0 l 1,11,-1
 155 0 l 1,12,-1
 51 523 l 1,0,-1
EndSplineSet
EndChar

StartChar: w
Encoding: 119 119 90
Width: 664
GlyphClass: 2
Flags: W
LayerCount: 2
Fore
SplineSet
50 523 m 1,0,-1
 99 523 l 1,1,-1
 133 155 l 2,2,3
 134 141 134 141 136.5 102 c 128,-1,4
 139 63 139 63 140 42 c 1,5,-1
 143 42 l 1,6,7
 151 60 151 60 166.5 98.5 c 128,-1,8
 182 137 182 137 189 155 c 2,9,-1
 345 523 l 1,10,-1
 400 523 l 1,11,-1
 435 153 l 2,12,13
 436 141 436 141 440 103 c 128,-1,14
 444 65 444 65 445 43 c 1,15,-1
 447 43 l 1,16,17
 456 66 456 66 472 106 c 128,-1,18
 488 146 488 146 491 155 c 2,19,-1
 646 523 l 1,20,-1
 696 523 l 1,21,-1
 467 0 l 1,22,-1
 410 0 l 1,23,-1
 375 357 l 2,24,25
 368 425 368 425 365 474 c 1,26,-1
 363 474 l 1,27,28
 358 460 358 460 348 436 c 128,-1,29
 338 412 338 412 330.5 392.5 c 128,-1,30
 323 373 323 373 316 357 c 2,31,-1
 163 0 l 1,32,-1
 106 0 l 1,33,-1
 50 523 l 1,0,-1
EndSplineSet
Substitution2: "'sups' Superscript lookup 5 subtable" uni02B7
Substitution2: "'aalt' Access All Alternates lookup 0 subtable" uni02B7
EndChar

StartChar: x
Encoding: 120 120 91
Width: 423
GlyphClass: 2
Flags: W
LayerCount: 2
Fore
SplineSet
-42 0 m 1,0,-1
 183 272 l 1,1,-1
 55 523 l 1,2,-1
 107 523 l 1,3,-1
 182 371 l 2,4,5
 190 357 190 357 200.5 335 c 128,-1,6
 211 313 211 313 214 306 c 1,7,-1
 216 306 l 1,8,9
 224 317 224 317 242.5 339 c 128,-1,10
 261 361 261 361 269 371 c 2,11,-1
 393 523 l 1,12,-1
 446 523 l 1,13,-1
 237 272 l 1,14,-1
 371 0 l 1,15,-1
 318 0 l 1,16,-1
 235 173 l 2,17,18
 226 190 226 190 205 238 c 1,19,-1
 203 238 l 1,20,21
 194 226 194 226 177 205.5 c 128,-1,22
 160 185 160 185 151 173 c 2,23,-1
 11 0 l 1,24,-1
 -42 0 l 1,0,-1
EndSplineSet
Substitution2: "'sups' Superscript lookup 5 subtable" uni02E3
Substitution2: "'aalt' Access All Alternates lookup 0 subtable" uni02E3
EndChar

StartChar: y
Encoding: 121 121 92
Width: 450
GlyphClass: 2
Flags: W
LayerCount: 2
Fore
SplineSet
50 523 m 1,0,-1
 101 523 l 1,1,-1
 165 167 l 2,2,3
 169 143 169 143 175.5 99 c 128,-1,4
 182 55 182 55 186 37 c 1,5,-1
 189 37 l 1,6,7
 246 154 246 154 253 169 c 2,8,-1
 430 523 l 1,9,-1
 480 523 l 1,10,-1
 158 -101 l 2,11,12
 120 -176 120 -176 82.5 -208 c 128,-1,13
 45 -240 45 -240 0 -240 c 2,14,-1
 -24 -240 l 1,15,-1
 -18 -201 l 1,16,-1
 0 -201 l 2,17,18
 67 -201 67 -201 123 -89 c 2,19,-1
 155 -20 l 1,20,-1
 50 523 l 1,0,-1
EndSplineSet
Substitution2: "'sups' Superscript lookup 5 subtable" uni02B8
Substitution2: "'aalt' Access All Alternates lookup 0 subtable" uni02B8
EndChar

StartChar: z
Encoding: 122 122 93
Width: 448
GlyphClass: 2
Flags: W
LayerCount: 2
Fore
SplineSet
-11 0 m 1,0,-1
 -5 33 l 1,1,-1
 381 483 l 1,2,-1
 94 483 l 1,3,-1
 101 523 l 1,4,-1
 443 523 l 1,5,-1
 437 491 l 1,6,-1
 51 39 l 1,7,-1
 372 39 l 1,8,-1
 366 0 l 1,9,-1
 -11 0 l 1,0,-1
EndSplineSet
EndChar

StartChar: braceleft
Encoding: 123 123 94
Width: 442
GlyphClass: 2
Flags: W
LayerCount: 2
Fore
SplineSet
83 327 m 1,0,-1
 89 364 l 1,1,-1
 113 364 l 2,2,3
 198 364 198 364 224 518 c 2,4,-1
 257 718 l 2,5,6
 266 775 266 775 301 806 c 128,-1,7
 336 837 336 837 378 837 c 2,8,-1
 449 837 l 1,9,-1
 443 798 l 1,10,-1
 380 798 l 2,11,12
 353 798 353 798 331 774.5 c 128,-1,13
 309 751 309 751 302 708 c 2,14,-1
 269 509 l 2,15,16
 249 388 249 388 167 345 c 1,17,18
 197 330 197 330 211.5 291.5 c 128,-1,19
 226 253 226 253 216 192 c 2,20,-1
 185 2 l 2,21,22
 177 -47 177 -47 190.5 -71.5 c 128,-1,23
 204 -96 204 -96 234 -96 c 2,24,-1
 295 -96 l 1,25,-1
 289 -134 l 1,26,-1
 218 -134 l 2,27,28
 177 -134 177 -134 151.5 -103.5 c 128,-1,29
 126 -73 126 -73 136 -14 c 2,30,-1
 168 179 l 2,31,32
 180 252 180 252 163.5 289.5 c 128,-1,33
 147 327 147 327 107 327 c 2,34,-1
 83 327 l 1,0,-1
EndSplineSet
EndChar

StartChar: bar
Encoding: 124 124 95
Width: 227
GlyphClass: 2
Flags: W
LayerCount: 2
Fore
SplineSet
17 -168 m 1,0,-1
 188 866 l 1,1,-1
 233 866 l 1,2,-1
 62 -168 l 1,3,-1
 17 -168 l 1,0,-1
EndSplineSet
EndChar

StartChar: braceright
Encoding: 125 125 96
Width: 442
GlyphClass: 2
Flags: W
LayerCount: 2
Fore
SplineSet
22 -96 m 1,0,-1
 82 -96 l 2,1,2
 112 -96 112 -96 134.5 -71.5 c 128,-1,3
 157 -47 157 -47 165 2 c 2,4,-1
 197 196 l 2,5,6
 207 255 207 255 234 292.5 c 128,-1,7
 261 330 261 330 296 345 c 1,8,9
 229 387 229 387 249 507 c 2,10,-1
 282 708 l 2,11,12
 289 751 289 751 274.5 774.5 c 128,-1,13
 260 798 260 798 231 798 c 2,14,-1
 170 798 l 1,15,-1
 176 837 l 1,16,-1
 247 837 l 2,17,18
 290 837 290 837 314 806 c 128,-1,19
 338 775 338 775 329 718 c 2,20,-1
 296 518 l 2,21,22
 271 364 271 364 356 364 c 2,23,-1
 380 364 l 1,24,-1
 374 327 l 1,25,-1
 350 327 l 2,26,27
 309 327 309 327 280 288.5 c 128,-1,28
 251 250 251 250 240 183 c 2,29,-1
 208 -14 l 2,30,31
 198 -74 198 -74 162.5 -104 c 128,-1,32
 127 -134 127 -134 85 -134 c 2,33,-1
 15 -134 l 1,34,-1
 22 -96 l 1,0,-1
EndSplineSet
EndChar

StartChar: asciitilde
Encoding: 126 126 97
Width: 718
GlyphClass: 2
Flags: W
LayerCount: 2
Fore
SplineSet
74 314 m 1,0,1
 158 437 158 437 265 437 c 0,2,3
 305 437 305 437 336 416.5 c 128,-1,4
 367 396 367 396 383.5 371.5 c 128,-1,5
 400 347 400 347 426.5 326 c 128,-1,6
 453 305 453 305 484 305 c 0,7,8
 510 305 510 305 533.5 314.5 c 128,-1,9
 557 324 557 324 577.5 345 c 128,-1,10
 598 366 598 366 608 377 c 128,-1,11
 618 388 618 388 636 414 c 1,12,-1
 669 395 l 1,13,14
 578 266 578 266 479 266 c 0,15,16
 446 266 446 266 420 280 c 128,-1,17
 394 294 394 294 377.5 313.5 c 128,-1,18
 361 333 361 333 345.5 352.5 c 128,-1,19
 330 372 330 372 308 386 c 128,-1,20
 286 400 286 400 259 400 c 0,21,22
 182 400 182 400 108 294 c 1,23,-1
 74 314 l 1,0,1
EndSplineSet
EndChar

StartChar: exclamdown
Encoding: 161 161 99
Width: 293
GlyphClass: 2
Flags: W
LayerCount: 2
Fore
SplineSet
36 -216 m 1,0,-1
 131 310 l 1,1,-1
 172 310 l 1,2,-1
 92 -216 l 1,3,-1
 36 -216 l 1,0,-1
123 433 m 1,4,-1
 139 527 l 1,5,-1
 236 527 l 1,6,-1
 220 433 l 1,7,-1
 123 433 l 1,4,-1
EndSplineSet
EndChar

StartChar: cent
Encoding: 162 162 100
Width: 487
GlyphClass: 2
Flags: W
LayerCount: 2
Fore
SplineSet
45 262 m 0,0,1
 64 377 64 377 131.5 456 c 128,-1,2
 199 535 199 535 296 539 c 1,3,-1
 310 619 l 1,4,-1
 353 619 l 1,5,-1
 339 538 l 1,6,7
 392 530 392 530 425 497 c 128,-1,8
 458 464 458 464 468 419 c 1,9,-1
 427 406 l 1,10,11
 417 446 417 446 385 474 c 128,-1,12
 353 502 353 502 308 502 c 0,13,14
 228 502 228 502 168 434.5 c 128,-1,15
 108 367 108 367 91 262 c 0,16,17
 73 154 73 154 111 87 c 128,-1,18
 149 20 149 20 227 20 c 0,19,20
 275 20 275 20 321.5 50.5 c 128,-1,21
 368 81 368 81 394 122 c 1,22,-1
 430 108 l 1,23,24
 402 61 402 61 354 27 c 128,-1,25
 306 -7 306 -7 248 -16 c 1,26,-1
 234 -99 l 1,27,-1
 191 -99 l 1,28,-1
 204 -17 l 1,29,30
 114 -12 114 -12 69.5 64 c 128,-1,31
 25 140 25 140 45 262 c 0,0,1
EndSplineSet
EndChar

StartChar: sterling
Encoding: 163 163 101
Width: 550
GlyphClass: 2
Flags: W
LayerCount: 2
Fore
SplineSet
46 345 m 1,0,-1
 52 385 l 1,1,-1
 164 385 l 1,2,-1
 195 570 l 2,3,4
 210 660 210 660 267.5 707 c 128,-1,5
 325 754 325 754 409 754 c 0,6,7
 468 754 468 754 506.5 725 c 128,-1,8
 545 696 545 696 559 655 c 1,9,-1
 524 635 l 1,10,11
 490 714 490 714 405 714 c 0,12,13
 340 714 340 714 296 676 c 128,-1,14
 252 638 252 638 240 566 c 2,15,-1
 210 385 l 1,16,-1
 442 385 l 1,17,-1
 436 345 l 1,18,-1
 203 345 l 1,19,-1
 180 204 l 2,20,21
 161 90 161 90 88 38 c 1,22,23
 159 54 159 54 202 54 c 0,24,25
 233 54 233 54 278 38 c 128,-1,26
 323 22 323 22 355 22 c 0,27,28
 428 22 428 22 486 53 c 1,29,-1
 496 14 l 1,30,31
 430 -18 430 -18 347 -18 c 0,32,33
 318 -18 318 -18 266.5 -2.5 c 128,-1,34
 215 13 215 13 185 13 c 0,35,36
 153 13 153 13 107.5 6 c 128,-1,37
 62 -1 62 -1 33 -7 c 2,38,-1
 4 -14 l 1,39,-1
 -4 22 l 1,40,41
 53 41 53 41 88.5 92 c 128,-1,42
 124 143 124 143 134 203 c 2,43,-1
 157 345 l 1,44,-1
 46 345 l 1,0,-1
EndSplineSet
EndChar

StartChar: currency
Encoding: 164 164 102
Width: 610
GlyphClass: 2
Flags: W
LayerCount: 2
Fore
SplineSet
9 138 m 1,0,-1
 133 240 l 1,1,2
 96 291 96 291 109 368 c 0,3,4
 121 443 121 443 175 495 c 1,5,-1
 84 596 l 1,6,-1
 120 627 l 1,7,-1
 209 526 l 1,8,9
 279 575 279 575 354 575 c 0,10,11
 433 575 433 575 484 525 c 1,12,-1
 605 626 l 1,13,-1
 630 595 l 1,14,-1
 508 495 l 1,15,16
 545 442 545 442 533 368 c 0,17,18
 521 296 521 296 465 240 c 1,19,-1
 554 138 l 1,20,-1
 520 108 l 1,21,-1
 431 208 l 1,22,23
 369 160 369 160 286 160 c 0,24,25
 205 160 205 160 155 208 c 1,26,-1
 34 109 l 1,27,-1
 9 138 l 1,0,-1
153 368 m 0,28,29
 142 299 142 299 181 250 c 128,-1,30
 220 201 220 201 292 201 c 256,31,32
 365 201 365 201 421 250.5 c 128,-1,33
 477 300 477 300 489 368 c 0,34,35
 500 437 500 437 459.5 485.5 c 128,-1,36
 419 534 419 534 348 534 c 256,37,38
 276 534 276 534 220.5 486 c 128,-1,39
 165 438 165 438 153 368 c 0,28,29
EndSplineSet
EndChar

StartChar: yen
Encoding: 165 165 103
Width: 556
GlyphClass: 2
Flags: W
LayerCount: 2
Fore
SplineSet
72 735 m 1,0,-1
 129 735 l 1,1,-1
 243 488 l 2,2,3
 284 399 284 399 293 376 c 1,4,-1
 295 376 l 1,5,6
 307 391 307 391 336.5 428.5 c 128,-1,7
 366 466 366 466 382 486 c 2,8,-1
 579 735 l 1,9,-1
 635 735 l 1,10,-1
 343 371 l 1,11,-1
 512 371 l 1,12,-1
 507 335 l 1,13,-1
 311 335 l 1,14,-1
 293 225 l 1,15,-1
 488 225 l 1,16,-1
 483 190 l 1,17,-1
 287 190 l 1,18,-1
 256 0 l 1,19,-1
 209 0 l 1,20,-1
 240 190 l 1,21,-1
 42 190 l 1,22,-1
 48 225 l 1,23,-1
 246 225 l 1,24,-1
 264 335 l 1,25,-1
 66 335 l 1,26,-1
 72 371 l 1,27,-1
 244 371 l 1,28,-1
 72 735 l 1,0,-1
EndSplineSet
EndChar

StartChar: brokenbar
Encoding: 166 166 104
Width: 227
GlyphClass: 2
Flags: W
LayerCount: 2
Fore
SplineSet
122 468 m 1,0,-1
 188 866 l 1,1,-1
 233 866 l 1,2,-1
 167 468 l 1,3,-1
 122 468 l 1,0,-1
17 -167 m 1,4,-1
 83 229 l 1,5,-1
 128 229 l 1,6,-1
 62 -167 l 1,7,-1
 17 -167 l 1,4,-1
EndSplineSet
EndChar

StartChar: section
Encoding: 167 167 105
Width: 549
GlyphClass: 2
Flags: W
LayerCount: 2
Fore
SplineSet
26 37 m 1,0,-1
 64 61 l 1,1,2
 79 24 79 24 117 3.5 c 128,-1,3
 155 -17 155 -17 206 -17 c 0,4,5
 272 -17 272 -17 311 7.5 c 128,-1,6
 350 32 350 32 357 73 c 0,7,8
 363 108 363 108 345.5 128.5 c 128,-1,9
 328 149 328 149 282 171 c 2,10,-1
 184 219 l 2,11,12
 130 246 130 246 106 277.5 c 128,-1,13
 82 309 82 309 90 356 c 0,14,15
 96 392 96 392 119.5 424 c 128,-1,16
 143 456 143 456 164 471 c 128,-1,17
 185 486 185 486 221 508 c 1,18,19
 156 563 156 563 165 622 c 0,20,21
 175 683 175 683 227.5 718.5 c 128,-1,22
 280 754 280 754 371 754 c 0,23,24
 431 754 431 754 476.5 727.5 c 128,-1,25
 522 701 522 701 541 656 c 1,26,-1
 506 635 l 1,27,28
 460 714 460 714 363 714 c 0,29,30
 291 714 291 714 254.5 688.5 c 128,-1,31
 218 663 218 663 212 623 c 0,32,33
 208 599 208 599 217 579 c 128,-1,34
 226 559 226 559 248.5 541 c 128,-1,35
 271 523 271 523 290.5 510.5 c 128,-1,36
 310 498 310 498 343 481 c 0,37,38
 356 474 356 474 363 471 c 0,39,40
 435 431 435 431 464 399.5 c 128,-1,41
 493 368 493 368 485 318 c 0,42,43
 472 239 472 239 374 166 c 1,44,45
 413 129 413 129 404 73 c 0,46,47
 395 16 395 16 343.5 -20.5 c 128,-1,48
 292 -57 292 -57 200 -57 c 0,49,50
 135 -57 135 -57 91 -30.5 c 128,-1,51
 47 -4 47 -4 26 37 c 1,0,-1
138 360 m 0,52,53
 131 319 131 319 149 297.5 c 128,-1,54
 167 276 167 276 225 248 c 2,55,-1
 340 190 l 1,56,57
 427 251 427 251 438 318 c 0,58,59
 444 354 444 354 421.5 377 c 128,-1,60
 399 400 399 400 338 434 c 2,61,-1
 252 485 l 1,62,63
 226 468 226 468 212 458.5 c 128,-1,64
 198 449 198 449 179.5 432.5 c 128,-1,65
 161 416 161 416 151 398.5 c 128,-1,66
 141 381 141 381 138 360 c 0,52,53
EndSplineSet
EndChar

StartChar: dieresis
Encoding: 168 168 106
Width: 432
GlyphClass: 2
Flags: W
LayerCount: 2
Fore
SplineSet
157 655 m 1,0,-1
 170 735 l 1,1,-1
 249 735 l 1,2,-1
 235 655 l 1,3,-1
 157 655 l 1,0,-1
321 655 m 1,4,-1
 334 735 l 1,5,-1
 412 735 l 1,6,-1
 399 655 l 1,7,-1
 321 655 l 1,4,-1
EndSplineSet
EndChar

StartChar: copyright
Encoding: 169 169 107
Width: 870
GlyphClass: 2
Flags: W
LayerCount: 2
Fore
SplineSet
104 374 m 0,0,1
 79 225 79 225 158.5 121.5 c 128,-1,2
 238 18 238 18 392 18 c 0,3,4
 545 18 545 18 659 121 c 128,-1,5
 773 224 773 224 798 374 c 256,6,7
 823 524 823 524 742 627.5 c 128,-1,8
 661 731 661 731 510 731 c 0,9,10
 360 731 360 731 244.5 629 c 128,-1,11
 129 527 129 527 104 374 c 0,0,1
68 374 m 256,12,13
 96 542 96 542 223 653.5 c 128,-1,14
 350 765 350 765 516 765 c 0,15,16
 681 765 681 765 771.5 654 c 128,-1,17
 862 543 862 543 834 374 c 0,18,19
 807 209 807 209 679.5 97 c 128,-1,20
 552 -15 552 -15 386 -15 c 256,21,22
 220 -15 220 -15 130 95.5 c 128,-1,23
 40 206 40 206 68 374 c 256,12,13
274 372 m 0,24,25
 291 477 291 477 353.5 544.5 c 128,-1,26
 416 612 416 612 505 612 c 0,27,28
 552 612 552 612 587 585.5 c 128,-1,29
 622 559 622 559 638 507 c 1,30,-1
 596 492 l 1,31,32
 571 573 571 573 498 573 c 0,33,34
 431 573 431 573 382 517.5 c 128,-1,35
 333 462 333 462 318 372 c 0,36,37
 303 280 303 280 334 225.5 c 128,-1,38
 365 171 365 171 431 171 c 0,39,40
 473 171 473 171 509 196 c 128,-1,41
 545 221 545 221 568 258 c 1,42,-1
 606 243 l 1,43,44
 578 197 578 197 530 165 c 128,-1,45
 482 133 482 133 425 133 c 0,46,47
 341 133 341 133 298.5 197.5 c 128,-1,48
 256 262 256 262 274 372 c 0,24,25
EndSplineSet
EndChar

StartChar: ordfeminine
Encoding: 170 170 108
Width: 375
GlyphClass: 2
Flags: W
LayerCount: 2
Fore
SplineSet
44 341 m 1,0,-1
 50 376 l 1,1,-1
 358 376 l 1,2,-1
 352 341 l 1,3,-1
 44 341 l 1,0,-1
113 548 m 0,4,5
 109 521 109 521 129 501 c 128,-1,6
 149 481 149 481 191 481 c 0,7,8
 242 481 242 481 286 515 c 128,-1,9
 330 549 330 549 338 602 c 2,10,-1
 348 662 l 1,11,12
 324 653 324 653 278.5 645.5 c 128,-1,13
 233 638 233 638 203 631.5 c 128,-1,14
 173 625 173 625 146 604 c 128,-1,15
 119 583 119 583 113 548 c 0,4,5
75 546 m 0,16,17
 81 584 81 584 103 609.5 c 128,-1,18
 125 635 125 635 158.5 647.5 c 128,-1,19
 192 660 192 660 224 666.5 c 128,-1,20
 256 673 256 673 294 679.5 c 128,-1,21
 332 686 332 686 354 694 c 1,22,-1
 357 712 l 2,23,24
 363 751 363 751 340.5 776.5 c 128,-1,25
 318 802 318 802 270 802 c 0,26,27
 230 802 230 802 196 781.5 c 128,-1,28
 162 761 162 761 147 743 c 1,29,-1
 124 763 l 1,30,31
 147 791 147 791 189 813 c 128,-1,32
 231 835 231 835 275 835 c 0,33,34
 346 835 346 835 373.5 799 c 128,-1,35
 401 763 401 763 391 702 c 2,36,-1
 351 460 l 1,37,-1
 316 460 l 1,38,-1
 326 519 l 1,39,40
 303 488 303 488 265 468 c 128,-1,41
 227 448 227 448 182 448 c 0,42,43
 125 448 125 448 96.5 476 c 128,-1,44
 68 504 68 504 75 546 c 0,16,17
EndSplineSet
EndChar

StartChar: guillemotleft
Encoding: 171 171 109
Width: 415
GlyphClass: 2
Flags: W
LayerCount: 2
Fore
SplineSet
28 251 m 1,0,-1
 220 472 l 1,1,-1
 249 450 l 1,2,-1
 78 251 l 1,3,-1
 182 52 l 1,4,-1
 145 29 l 1,5,-1
 28 251 l 1,0,-1
188 251 m 1,6,-1
 380 469 l 1,7,-1
 407 444 l 1,8,-1
 238 251 l 1,9,-1
 342 55 l 1,10,-1
 307 32 l 1,11,-1
 188 251 l 1,6,-1
EndSplineSet
EndChar

StartChar: logicalnot
Encoding: 172 172 110
Width: 524
GlyphClass: 2
Flags: W
LayerCount: 2
Fore
SplineSet
55 331 m 1,0,-1
 62 371 l 1,1,-1
 494 371 l 1,2,-1
 454 127 l 1,3,-1
 409 127 l 1,4,-1
 443 331 l 1,5,-1
 55 331 l 1,0,-1
EndSplineSet
EndChar

StartChar: uni00AD
Encoding: 173 173 111
Width: 541
GlyphClass: 2
Flags: W
LayerCount: 2
Fore
SplineSet
68 343 m 1,0,-1
 75 383 l 1,1,-1
 499 383 l 1,2,-1
 492 343 l 1,3,-1
 68 343 l 1,0,-1
EndSplineSet
EndChar

StartChar: registered
Encoding: 174 174 112
Width: 870
GlyphClass: 2
Flags: W
LayerCount: 2
Fore
SplineSet
287 147 m 1,0,-1
 361 597 l 1,1,-1
 521 597 l 2,2,3
 582 597 582 597 611.5 561.5 c 128,-1,4
 641 526 641 526 632 474 c 0,5,6
 618 391 618 391 538 362 c 1,7,8
 569 339 569 339 574 278 c 0,9,10
 582 181 582 181 596 147 c 1,11,-1
 547 147 l 1,12,13
 537 175 537 175 530 269 c 0,14,15
 527 307 527 307 515.5 327 c 128,-1,16
 504 347 504 347 472 347 c 2,17,-1
 363 347 l 1,18,-1
 330 147 l 1,19,-1
 287 147 l 1,0,-1
369 383 m 1,20,-1
 480 383 l 2,21,22
 523 383 523 383 552 407 c 128,-1,23
 581 431 581 431 587 471 c 0,24,25
 593 509 593 509 574.5 534 c 128,-1,26
 556 559 556 559 509 559 c 2,27,-1
 398 559 l 1,28,-1
 369 383 l 1,20,-1
68 374 m 256,29,30
 96 542 96 542 223 653.5 c 128,-1,31
 350 765 350 765 516 765 c 256,32,33
 682 765 682 765 772 654.5 c 128,-1,34
 862 544 862 544 834 374 c 0,35,36
 807 209 807 209 680.5 97 c 128,-1,37
 554 -15 554 -15 386 -15 c 0,38,39
 220 -15 220 -15 130 95.5 c 128,-1,40
 40 206 40 206 68 374 c 256,29,30
104 374 m 0,41,42
 79 225 79 225 158.5 121.5 c 128,-1,43
 238 18 238 18 392 18 c 0,44,45
 545 18 545 18 659 122 c 128,-1,46
 773 226 773 226 798 374 c 0,47,48
 823 524 823 524 742 627.5 c 128,-1,49
 661 731 661 731 510 731 c 0,50,51
 360 731 360 731 244.5 629 c 128,-1,52
 129 527 129 527 104 374 c 0,41,42
EndSplineSet
EndChar

StartChar: macron
Encoding: 175 175 113
Width: 508
GlyphClass: 2
Flags: W
LayerCount: 2
Fore
SplineSet
82 778 m 1,0,-1
 89 819 l 1,1,-1
 598 819 l 1,2,-1
 591 778 l 1,3,-1
 82 778 l 1,0,-1
EndSplineSet
EndChar

StartChar: degree
Encoding: 176 176 114
Width: 395
GlyphClass: 2
Flags: W
LayerCount: 2
Fore
SplineSet
138 628 m 0,0,1
 146 674 146 674 185 708.5 c 128,-1,2
 224 743 224 743 275 743 c 0,3,4
 324 743 324 743 352 710.5 c 128,-1,5
 380 678 380 678 372 628 c 256,6,7
 364 578 364 578 325 545.5 c 128,-1,8
 286 513 286 513 237 513 c 0,9,10
 187 513 187 513 158.5 546 c 128,-1,11
 130 579 130 579 138 628 c 0,0,1
170 628 m 0,12,13
 164 590 164 590 184.5 566.5 c 128,-1,14
 205 543 205 543 241 543 c 0,15,16
 275 543 275 543 304 567 c 128,-1,17
 333 591 333 591 339 628 c 0,18,19
 345 663 345 663 326 687.5 c 128,-1,20
 307 712 307 712 269 712 c 0,21,22
 230 712 230 712 203 687 c 128,-1,23
 176 662 176 662 170 628 c 0,12,13
EndSplineSet
EndChar

StartChar: plusminus
Encoding: 177 177 115
Width: 544
GlyphClass: 2
Flags: W
LayerCount: 2
Fore
SplineSet
63 409 m 1,0,-1
 69 450 l 1,1,-1
 278 450 l 1,2,-1
 310 645 l 1,3,-1
 354 645 l 1,4,-1
 322 450 l 1,5,-1
 530 450 l 1,6,-1
 523 409 l 1,7,-1
 315 409 l 1,8,-1
 283 214 l 1,9,-1
 239 214 l 1,10,-1
 271 409 l 1,11,-1
 63 409 l 1,0,-1
13 90 m 1,12,-1
 19 129 l 1,13,-1
 476 129 l 1,14,-1
 469 90 l 1,15,-1
 13 90 l 1,12,-1
EndSplineSet
EndChar

StartChar: twosuperior
Encoding: 178 178 116
Width: 304
GlyphClass: 2
Flags: W
LayerCount: 2
Fore
SplineSet
104 730 m 1,0,1
 147 834 147 834 245 834 c 0,2,3
 296 834 296 834 322.5 804 c 128,-1,4
 349 774 349 774 341 721 c 0,5,6
 331 658 331 658 253 593 c 0,7,8
 151 508 151 508 127 481 c 0,9,10
 111 462 111 462 101 444 c 1,11,-1
 295 444 l 1,12,-1
 290 413 l 1,13,-1
 53 413 l 1,14,15
 58 441 58 441 84 476 c 128,-1,16
 110 511 110 511 133 532 c 128,-1,17
 156 553 156 553 219 606 c 0,18,19
 228 615 228 615 234 619 c 0,20,21
 297 673 297 673 305 721 c 0,22,23
 311 759 311 759 293 780 c 128,-1,24
 275 801 275 801 238 801 c 0,25,26
 172 801 172 801 134 722 c 1,27,-1
 104 730 l 1,0,1
EndSplineSet
EndChar

StartChar: threesuperior
Encoding: 179 179 117
Width: 305
GlyphClass: 2
Flags: W
LayerCount: 2
Fore
SplineSet
54 481 m 1,0,-1
 87 496 l 1,1,2
 111 435 111 435 171 435 c 0,3,4
 212 435 212 435 243 458.5 c 128,-1,5
 274 482 274 482 282 528 c 0,6,7
 288 566 288 566 266.5 590.5 c 128,-1,8
 245 615 245 615 191 615 c 0,9,10
 171 615 171 615 163 614 c 1,11,-1
 168 647 l 1,12,13
 178 646 178 646 194 646 c 0,14,15
 242 646 242 646 267.5 669.5 c 128,-1,16
 293 693 293 693 299 727 c 0,17,18
 304 759 304 759 286 780.5 c 128,-1,19
 268 802 268 802 232 802 c 0,20,21
 180 802 180 802 139 738 c 1,22,-1
 112 749 l 1,23,24
 158 834 158 834 238 834 c 0,25,26
 290 834 290 834 316 804 c 128,-1,27
 342 774 342 774 335 729 c 0,28,29
 324 662 324 662 261 633 c 1,30,31
 331 607 331 607 318 528 c 0,32,33
 308 469 308 469 266 436 c 128,-1,34
 224 403 224 403 166 403 c 0,35,36
 79 403 79 403 54 481 c 1,0,-1
EndSplineSet
EndChar

StartChar: acute
Encoding: 180 180 118
Width: 312
GlyphClass: 2
Flags: W
LayerCount: 2
Fore
SplineSet
139 659 m 1,0,-1
 279 832 l 1,1,-1
 347 832 l 1,2,-1
 182 659 l 1,3,-1
 139 659 l 1,0,-1
EndSplineSet
EndChar

StartChar: uni00B5
Encoding: 181 181 119
Width: 549
GlyphClass: 2
Flags: W
LayerCount: 2
Fore
SplineSet
2 -240 m 1,0,-1
 128 523 l 1,1,-1
 172 523 l 1,2,-1
 117 191 l 2,3,4
 105 116 105 116 128 68 c 128,-1,5
 151 20 151 20 216 20 c 0,6,7
 294 20 294 20 346.5 80.5 c 128,-1,8
 399 141 399 141 413 222 c 2,9,-1
 463 523 l 1,10,-1
 505 523 l 1,11,-1
 418 0 l 1,12,-1
 378 0 l 1,13,-1
 395 103 l 1,14,-1
 393 103 l 1,15,16
 372 55 372 55 322 18.5 c 128,-1,17
 272 -18 272 -18 202 -18 c 0,18,19
 117 -18 117 -18 95 56 c 1,20,-1
 46 -240 l 1,21,-1
 2 -240 l 1,0,-1
EndSplineSet
EndChar

StartChar: paragraph
Encoding: 182 182 120
Width: 614
GlyphClass: 2
Flags: W
LayerCount: 2
Fore
SplineSet
107 549 m 0,0,1
 124 651 124 651 184.5 712.5 c 128,-1,2
 245 774 245 774 339 774 c 2,3,-1
 606 774 l 1,4,-1
 466 -70 l 1,5,-1
 428 -70 l 1,6,-1
 560 730 l 1,7,-1
 437 730 l 1,8,-1
 304 -70 l 1,9,-1
 264 -70 l 1,10,-1
 331 337 l 1,11,12
 291 324 291 324 253 324 c 0,13,14
 175 324 175 324 132 383.5 c 128,-1,15
 89 443 89 443 107 549 c 0,0,1
EndSplineSet
EndChar

StartChar: periodcentered
Encoding: 183 183 121
Width: 317
GlyphClass: 2
Flags: W
LayerCount: 2
Fore
SplineSet
114 304 m 1,0,-1
 130 400 l 1,1,-1
 227 400 l 1,2,-1
 211 304 l 1,3,-1
 114 304 l 1,0,-1
EndSplineSet
EndChar

StartChar: cedilla
Encoding: 184 184 122
Width: 278
GlyphClass: 2
Flags: W
LayerCount: 2
Fore
SplineSet
-34 -187 m 1,0,1
 7 -197 7 -197 28 -197 c 0,2,3
 106 -197 106 -197 115 -145 c 0,4,5
 123 -97 123 -97 26 -86 c 1,6,-1
 79 -5 l 1,7,-1
 119 -5 l 1,8,-1
 84 -61 l 1,9,10
 169 -78 169 -78 158 -145 c 0,11,12
 151 -186 151 -186 117 -209 c 128,-1,13
 83 -232 83 -232 24 -232 c 0,14,15
 -5 -232 -5 -232 -40 -221 c 1,16,-1
 -34 -187 l 1,0,1
EndSplineSet
EndChar

StartChar: onesuperior
Encoding: 185 185 123
Width: 296
GlyphClass: 2
Flags: W
LayerCount: 2
Fore
SplineSet
132 739 m 1,0,-1
 137 769 l 1,1,-1
 162 769 l 2,2,3
 199 769 199 769 214.5 777.5 c 128,-1,4
 230 786 230 786 233 807 c 2,5,-1
 237 832 l 1,6,-1
 270 832 l 1,7,-1
 200 409 l 1,8,-1
 162 409 l 1,9,-1
 217 739 l 1,10,-1
 132 739 l 1,0,-1
EndSplineSet
EndChar

StartChar: ordmasculine
Encoding: 186 186 124
Width: 375
GlyphClass: 2
Flags: W
LayerCount: 2
Fore
SplineSet
128 641 m 0,0,1
 116 570 116 570 142 525.5 c 128,-1,2
 168 481 168 481 220 481 c 256,3,4
 272 481 272 481 313 526 c 128,-1,5
 354 571 354 571 365 641 c 0,6,7
 377 714 377 714 350.5 757.5 c 128,-1,8
 324 801 324 801 273 801 c 256,9,10
 222 801 222 801 181 757.5 c 128,-1,11
 140 714 140 714 128 641 c 0,0,1
92 641 m 0,12,13
 106 725 106 725 155.5 780 c 128,-1,14
 205 835 205 835 279 835 c 0,15,16
 350 835 350 835 383.5 780 c 128,-1,17
 417 725 417 725 404 641 c 0,18,19
 391 562 391 562 340.5 505 c 128,-1,20
 290 448 290 448 215 448 c 0,21,22
 139 448 139 448 109 505 c 128,-1,23
 79 562 79 562 92 641 c 0,12,13
44 341 m 1,24,-1
 50 376 l 1,25,-1
 358 376 l 1,26,-1
 352 341 l 1,27,-1
 44 341 l 1,24,-1
EndSplineSet
EndChar

StartChar: guillemotright
Encoding: 187 187 125
Width: 414
GlyphClass: 2
Flags: W
LayerCount: 2
Fore
SplineSet
61 444 m 1,0,-1
 98 469 l 1,1,-1
 216 251 l 1,2,-1
 26 32 l 1,3,-1
 -2 55 l 1,4,-1
 166 251 l 1,5,-1
 61 444 l 1,0,-1
156 52 m 1,6,-1
 326 251 l 1,7,-1
 221 450 l 1,8,-1
 258 472 l 1,9,-1
 376 251 l 1,10,-1
 187 29 l 1,11,-1
 156 52 l 1,6,-1
EndSplineSet
EndChar

StartChar: onequarter
Encoding: 188 188 126
Width: 933
GlyphClass: 3
Flags: W
LayerCount: 2
Fore
SplineSet
542 117 m 1,0,-1
 712 117 l 1,1,-1
 756 383 l 1,2,-1
 718 334 l 1,3,-1
 542 117 l 1,0,-1
150 690 m 1,4,-1
 156 727 l 1,5,-1
 184 727 l 2,6,7
 230 727 230 727 246 735.5 c 128,-1,8
 262 744 262 744 266 771 c 2,9,-1
 271 799 l 1,10,-1
 307 799 l 1,11,-1
 225 305 l 1,12,-1
 184 305 l 1,13,-1
 248 690 l 1,14,-1
 150 690 l 1,4,-1
96 -51 m 1,15,-1
 715 785 l 1,16,-1
 761 785 l 1,17,-1
 143 -51 l 1,18,-1
 96 -51 l 1,15,-1
494 112 m 1,19,-1
 771 454 l 1,20,-1
 810 454 l 1,21,-1
 754 117 l 1,22,-1
 827 117 l 1,23,-1
 821 80 l 1,24,-1
 748 80 l 1,25,-1
 728 -42 l 1,26,-1
 685 -42 l 1,27,-1
 706 80 l 1,28,-1
 489 80 l 1,29,-1
 494 112 l 1,19,-1
EndSplineSet
Ligature2: "'frac' Diagonal Fractions lookup 7 subtable" one fraction four
Ligature2: "'frac' Diagonal Fractions lookup 7 subtable" one slash four
EndChar

StartChar: onehalf
Encoding: 189 189 127
Width: 931
GlyphClass: 3
Flags: W
LayerCount: 2
Fore
SplineSet
561 333 m 1,0,1
 616 455 616 455 727 455 c 0,2,3
 786 455 786 455 817.5 419.5 c 128,-1,4
 849 384 849 384 839 322 c 0,5,6
 827 251 827 251 741 178 c 0,7,8
 650 104 650 104 612.5 68 c 128,-1,9
 575 32 575 32 559 0 c 1,10,-1
 786 0 l 1,11,-1
 779 -38 l 1,12,-1
 503 -38 l 1,13,14
 511 11 511 11 553.5 58 c 128,-1,15
 596 105 596 105 712 201 c 0,16,17
 786 262 786 262 796 322 c 0,18,19
 804 368 804 368 782 392 c 128,-1,20
 760 416 760 416 718 416 c 256,21,22
 676 416 676 416 645.5 389 c 128,-1,23
 615 362 615 362 599 322 c 1,24,-1
 561 333 l 1,0,1
150 690 m 1,25,-1
 156 727 l 1,26,-1
 184 727 l 2,27,28
 230 727 230 727 246 735.5 c 128,-1,29
 262 744 262 744 266 771 c 2,30,-1
 271 799 l 1,31,-1
 307 799 l 1,32,-1
 225 305 l 1,33,-1
 184 305 l 1,34,-1
 248 690 l 1,35,-1
 150 690 l 1,25,-1
80 -51 m 1,36,-1
 709 784 l 1,37,-1
 756 784 l 1,38,-1
 127 -51 l 1,39,-1
 80 -51 l 1,36,-1
EndSplineSet
Ligature2: "'frac' Diagonal Fractions lookup 7 subtable" one fraction two
Ligature2: "'frac' Diagonal Fractions lookup 7 subtable" one slash two
EndChar

StartChar: threequarters
Encoding: 190 190 128
Width: 935
GlyphClass: 3
Flags: W
LayerCount: 2
Fore
SplineSet
554 117 m 1,0,-1
 724 117 l 1,1,-1
 768 383 l 1,2,-1
 731 334 l 1,3,-1
 554 117 l 1,0,-1
161 -51 m 1,4,-1
 791 784 l 1,5,-1
 837 784 l 1,6,-1
 209 -51 l 1,7,-1
 161 -51 l 1,4,-1
506 112 m 1,8,-1
 782 454 l 1,9,-1
 822 454 l 1,10,-1
 767 117 l 1,11,-1
 839 117 l 1,12,-1
 833 80 l 1,13,-1
 760 80 l 1,14,-1
 740 -42 l 1,15,-1
 698 -42 l 1,16,-1
 718 80 l 1,17,-1
 501 80 l 1,18,-1
 506 112 l 1,8,-1
78 397 m 1,19,-1
 117 413 l 1,20,21
 146 343 146 343 215 343 c 0,22,23
 262 343 262 343 298.5 370 c 128,-1,24
 335 397 335 397 343 450 c 0,25,26
 351 500 351 500 322 525.5 c 128,-1,27
 293 551 293 551 244 551 c 0,28,29
 225 551 225 551 204 549 c 1,30,-1
 211 590 l 1,31,32
 227 588 227 588 247 588 c 0,33,34
 291 588 291 588 323.5 613.5 c 128,-1,35
 356 639 356 639 363 682 c 0,36,37
 369 721 369 721 348 745.5 c 128,-1,38
 327 770 327 770 286 770 c 0,39,40
 225 770 225 770 177 695 c 1,41,-1
 142 708 l 1,42,43
 200 808 200 808 293 808 c 0,44,45
 355 808 355 808 384.5 772.5 c 128,-1,46
 414 737 414 737 406 684 c 0,47,48
 393 607 393 607 319 573 c 1,49,50
 354 560 354 560 373.5 529 c 128,-1,51
 393 498 393 498 386 450 c 0,52,53
 374 380 374 380 325 342 c 128,-1,54
 276 304 276 304 208 304 c 0,55,56
 159 304 159 304 125.5 329.5 c 128,-1,57
 92 355 92 355 78 397 c 1,19,-1
EndSplineSet
Ligature2: "'frac' Diagonal Fractions lookup 7 subtable" three fraction four
Ligature2: "'frac' Diagonal Fractions lookup 7 subtable" three slash four
EndChar

StartChar: questiondown
Encoding: 191 191 129
Width: 521
GlyphClass: 2
Flags: W
LayerCount: 2
Fore
SplineSet
16 -41 m 0,0,1
 24 5 24 5 48.5 41.5 c 128,-1,2
 73 78 73 78 104 103.5 c 128,-1,3
 135 129 135 129 165 154.5 c 128,-1,4
 195 180 195 180 220 217.5 c 128,-1,5
 245 255 245 255 252 301 c 2,6,-1
 255 319 l 1,7,-1
 301 319 l 1,8,-1
 298 299 l 2,9,10
 290 248 290 248 264.5 208 c 128,-1,11
 239 168 239 168 208.5 142 c 128,-1,12
 178 116 178 116 148 91.5 c 128,-1,13
 118 67 118 67 94 33.5 c 128,-1,14
 70 0 70 0 63 -41 c 0,15,16
 52 -110 52 -110 82.5 -152 c 128,-1,17
 113 -194 113 -194 180 -194 c 0,18,19
 284 -194 284 -194 359 -71 c 1,20,-1
 397 -87 l 1,21,22
 357 -157 357 -157 298 -195.5 c 128,-1,23
 239 -234 239 -234 174 -234 c 0,24,25
 86 -234 86 -234 44 -181 c 128,-1,26
 2 -128 2 -128 16 -41 c 0,0,1
248 434 m 1,27,-1
 263 527 l 1,28,-1
 360 527 l 1,29,-1
 345 434 l 1,30,-1
 248 434 l 1,27,-1
EndSplineSet
EndChar

StartChar: AE
Encoding: 198 198 136
Width: 901
GlyphClass: 2
Flags: W
LayerCount: 2
Fore
SplineSet
213 271 m 1,0,-1
 475 271 l 1,1,-1
 545 692 l 1,2,-1
 536 692 l 1,3,-1
 213 271 l 1,0,-1
-46 0 m 1,4,-1
 520 735 l 1,5,-1
 933 735 l 1,6,-1
 926 694 l 1,7,-1
 591 694 l 1,8,-1
 543 402 l 1,9,-1
 842 402 l 1,10,-1
 835 362 l 1,11,-1
 534 362 l 1,12,-1
 481 41 l 1,13,-1
 823 41 l 1,14,-1
 816 0 l 1,15,-1
 430 0 l 1,16,-1
 469 232 l 1,17,-1
 184 232 l 1,18,-1
 6 0 l 1,19,-1
 -46 0 l 1,4,-1
EndSplineSet
EndChar

StartChar: multiply
Encoding: 215 215 153
Width: 543
GlyphClass: 2
Flags: W
LayerCount: 2
Fore
SplineSet
26 174 m 1,0,-1
 257 361 l 1,1,-1
 91 547 l 1,2,-1
 126 578 l 1,3,-1
 289 387 l 1,4,-1
 517 578 l 1,5,-1
 541 548 l 1,6,-1
 314 361 l 1,7,-1
 482 173 l 1,8,-1
 448 145 l 1,9,-1
 280 333 l 1,10,-1
 50 145 l 1,11,-1
 26 174 l 1,0,-1
EndSplineSet
EndChar

StartChar: Oslash
Encoding: 216 216 154
Width: 682
GlyphClass: 2
Flags: W
LayerCount: 2
Fore
SplineSet
536 669 m 1,0,1
 488 713 488 713 414 713 c 0,2,3
 303 713 303 713 223 619.5 c 128,-1,4
 143 526 143 526 116 367 c 0,5,6
 83 167 83 167 167 78 c 1,7,-1
 536 669 l 1,0,1
560 637 m 1,8,-1
 195 53 l 1,9,10
 239 22 239 22 299 22 c 0,11,12
 411 22 411 22 490 116.5 c 128,-1,13
 569 211 569 211 595 367 c 0,14,15
 624 546 624 546 560 637 c 1,8,-1
68 367 m 0,16,17
 97 541 97 541 192 647.5 c 128,-1,18
 287 754 287 754 421 754 c 0,19,20
 505 754 505 754 562 708 c 1,21,-1
 619 797 l 1,22,-1
 664 797 l 1,23,-1
 588 682 l 1,24,25
 677 576 677 576 643 367 c 0,26,27
 614 194 614 194 519.5 88 c 128,-1,28
 425 -18 425 -18 293 -18 c 0,29,30
 219 -18 219 -18 168 14 c 1,31,-1
 108 -77 l 1,32,-1
 63 -77 l 1,33,-1
 140 38 l 1,34,35
 30 138 30 138 68 367 c 0,16,17
EndSplineSet
EndChar

StartChar: Thorn
Encoding: 222 222 160
Width: 593
GlyphClass: 2
Flags: W
LayerCount: 2
Fore
SplineSet
61 0 m 1,0,-1
 183 736 l 1,1,-1
 229 736 l 1,2,-1
 207 603 l 1,3,-1
 356 603 l 2,4,5
 479 603 479 603 530.5 543.5 c 128,-1,6
 582 484 582 484 565 379 c 0,7,8
 546 263 546 263 465.5 207.5 c 128,-1,9
 385 152 385 152 265 152 c 2,10,-1
 133 152 l 1,11,-1
 107 0 l 1,12,-1
 61 0 l 1,0,-1
139 192 m 1,13,-1
 267 192 l 2,14,15
 487 192 487 192 518 378 c 0,16,17
 549 563 549 563 344 563 c 2,18,-1
 201 563 l 1,19,-1
 139 192 l 1,13,-1
EndSplineSet
EndChar

StartChar: germandbls
Encoding: 223 223 161
Width: 625
GlyphClass: 2
Flags: W
LayerCount: 2
Fore
SplineSet
61 0 m 1,0,-1
 155 566 l 2,1,2
 170 655 170 655 235.5 704.5 c 128,-1,3
 301 754 301 754 388 754 c 0,4,5
 476 754 476 754 524 700.5 c 128,-1,6
 572 647 572 647 558 560 c 0,7,8
 547 493 547 493 514 449.5 c 128,-1,9
 481 406 481 406 443 385 c 1,10,-1
 442 383 l 1,11,12
 466 377 466 377 487.5 363.5 c 128,-1,13
 509 350 509 350 528.5 327 c 128,-1,14
 548 304 548 304 556.5 265.5 c 128,-1,15
 565 227 565 227 557 180 c 0,16,17
 543 96 543 96 481 39 c 128,-1,18
 419 -18 419 -18 328 -18 c 0,19,20
 252 -18 252 -18 189 4 c 1,21,-1
 202 46 l 1,22,23
 260 22 260 22 334 22 c 0,24,25
 397 22 397 22 448 66 c 128,-1,26
 499 110 499 110 511 180 c 0,27,28
 526 268 526 268 482 313 c 128,-1,29
 438 358 438 358 366 358 c 2,30,-1
 308 358 l 1,31,-1
 315 398 l 1,32,-1
 367 398 l 2,33,34
 419 398 419 398 459.5 443 c 128,-1,35
 500 488 500 488 511 556 c 256,36,37
 522 624 522 624 487.5 668.5 c 128,-1,38
 453 713 453 713 381 713 c 0,39,40
 310 713 310 713 260 672.5 c 128,-1,41
 210 632 210 632 199 562 c 2,42,-1
 105 0 l 1,43,-1
 61 0 l 1,0,-1
EndSplineSet
EndChar

StartChar: ae
Encoding: 230 230 168
Width: 877
GlyphClass: 2
Flags: W
LayerCount: 2
Fore
SplineSet
18 122 m 0,0,1
 30 192 30 192 85.5 236.5 c 128,-1,2
 141 281 141 281 254 299 c 0,3,4
 372 317 372 317 414 335 c 1,5,6
 415 340 415 340 416 350 c 128,-1,7
 417 360 417 360 417 363 c 0,8,9
 427 423 427 423 395.5 463 c 128,-1,10
 364 503 364 503 294 503 c 0,11,12
 194 503 194 503 117 417 c 1,13,-1
 90 440 l 1,14,15
 129 484 129 484 184.5 512 c 128,-1,16
 240 540 240 540 300 540 c 0,17,18
 378 540 378 540 416.5 502.5 c 128,-1,19
 455 465 455 465 456 405 c 1,20,21
 490 467 490 467 544.5 503.5 c 128,-1,22
 599 540 599 540 663 540 c 0,23,24
 758 540 758 540 803.5 463 c 128,-1,25
 849 386 849 386 831 278 c 2,26,-1
 826 247 l 1,27,-1
 442 247 l 1,28,-1
 438 222 l 1,29,30
 431 138 431 138 467 79 c 128,-1,31
 503 20 503 20 579 20 c 0,32,33
 634 20 634 20 679 48 c 128,-1,34
 724 76 724 76 753 118 c 1,35,-1
 788 104 l 1,36,37
 707 -18 707 -18 572 -18 c 0,38,39
 500 -18 500 -18 457 24 c 128,-1,40
 414 66 414 66 404 138 c 1,41,42
 372 70 372 70 308 26 c 128,-1,43
 244 -18 244 -18 165 -18 c 0,44,45
 87 -18 87 -18 47.5 20.5 c 128,-1,46
 8 59 8 59 18 122 c 0,0,1
62 125 m 0,47,48
 55 83 55 83 84 51.5 c 128,-1,49
 113 20 113 20 174 20 c 0,50,51
 250 20 250 20 314 71.5 c 128,-1,52
 378 123 378 123 391 204 c 2,53,-1
 407 298 l 1,54,55
 354 278 354 278 250 263 c 0,56,57
 162 250 162 250 116.5 215.5 c 128,-1,58
 71 181 71 181 62 125 c 0,47,48
448 283 m 1,59,-1
 788 283 l 1,60,61
 803 373 803 373 767 437.5 c 128,-1,62
 731 502 731 502 656 502 c 0,63,64
 584 502 584 502 528.5 443 c 128,-1,65
 473 384 473 384 452 303 c 2,66,-1
 448 283 l 1,59,-1
EndSplineSet
EndChar

StartChar: eth
Encoding: 240 240 178
Width: 531
GlyphClass: 2
Flags: W
LayerCount: 2
Fore
SplineSet
41 241 m 0,0,1
 61 360 61 360 132 428.5 c 128,-1,2
 203 497 203 497 301 497 c 0,3,4
 365 497 365 497 401.5 466 c 128,-1,5
 438 435 438 435 449 388 c 1,6,7
 453 564 453 564 378 651 c 1,8,-1
 227 548 l 1,9,-1
 206 578 l 1,10,-1
 351 677 l 1,11,12
 301 716 301 716 229 728 c 1,13,-1
 248 765 l 1,14,15
 334 750 334 750 391 703 c 1,16,-1
 500 778 l 1,17,-1
 520 747 l 1,18,-1
 417 677 l 1,19,20
 441 650 441 650 458 616 c 0,21,22
 516 493 516 493 477 255 c 0,23,24
 457 136 457 136 388.5 59 c 128,-1,25
 320 -18 320 -18 215 -18 c 0,26,27
 112 -18 112 -18 67.5 56 c 128,-1,28
 23 130 23 130 41 241 c 0,0,1
86 243 m 0,29,30
 70 145 70 145 106 82.5 c 128,-1,31
 142 20 142 20 223 20 c 0,32,33
 301 20 301 20 356.5 81 c 128,-1,34
 412 142 412 142 429 245 c 0,35,36
 445 341 445 341 408.5 400 c 128,-1,37
 372 459 372 459 296 459 c 256,38,39
 220 459 220 459 161.5 403 c 128,-1,40
 103 347 103 347 86 243 c 0,29,30
EndSplineSet
EndChar

StartChar: divide
Encoding: 247 247 185
Width: 546
GlyphClass: 2
Flags: W
LayerCount: 2
Fore
SplineSet
266 503 m 1,0,-1
 280 588 l 1,1,-1
 368 588 l 1,2,-1
 353 503 l 1,3,-1
 266 503 l 1,0,-1
40 343 m 1,4,-1
 46 383 l 1,5,-1
 533 383 l 1,6,-1
 526 343 l 1,7,-1
 40 343 l 1,4,-1
206 139 m 1,8,-1
 220 224 l 1,9,-1
 307 224 l 1,10,-1
 293 139 l 1,11,-1
 206 139 l 1,8,-1
EndSplineSet
EndChar

StartChar: oslash
Encoding: 248 248 186
Width: 530
GlyphClass: 2
Flags: W
LayerCount: 2
Fore
SplineSet
44 261 m 0,0,1
 64 382 64 382 135 461 c 128,-1,2
 206 540 206 540 308 540 c 0,3,4
 372 540 372 540 412 510 c 1,5,-1
 458 582 l 1,6,-1
 496 582 l 1,7,-1
 435 486 l 1,8,9
 504 408 504 408 480 261 c 0,10,11
 468 188 468 188 434.5 126 c 128,-1,12
 401 64 401 64 343.5 23 c 128,-1,13
 286 -18 286 -18 215 -18 c 0,14,15
 160 -18 160 -18 121 6 c 1,16,-1
 78 -64 l 1,17,-1
 39 -64 l 1,18,-1
 96 27 l 1,19,20
 58 63 58 63 45 126 c 128,-1,21
 32 189 32 189 44 261 c 0,0,1
408 445 m 1,22,-1
 147 43 l 1,23,24
 176 20 176 20 222 20 c 0,25,26
 299 20 299 20 358.5 87.5 c 128,-1,27
 418 155 418 155 435 261 c 0,28,29
 455 378 455 378 408 445 c 1,22,-1
387 471 m 1,30,31
 352 502 352 502 301 502 c 0,32,33
 227 502 227 502 167 436 c 128,-1,34
 107 370 107 370 89 261 c 0,35,36
 68 136 68 136 123 67 c 1,37,-1
 387 471 l 1,30,31
EndSplineSet
EndChar

StartChar: thorn
Encoding: 254 254 192
Width: 551
GlyphClass: 2
Flags: W
LayerCount: 2
Fore
SplineSet
129 263 m 0,0,1
 112 154 112 154 146.5 87 c 128,-1,2
 181 20 181 20 249 20 c 0,3,4
 323 20 323 20 380.5 85 c 128,-1,5
 438 150 438 150 457 262 c 0,6,7
 475 369 475 369 442 435.5 c 128,-1,8
 409 502 409 502 330 502 c 0,9,10
 264 502 264 502 205 435.5 c 128,-1,11
 146 369 146 369 130 267 c 0,12,13
 129 265 129 265 129 263 c 0,0,1
3 -240 m 1,14,-1
 170 766 l 1,15,-1
 213 766 l 1,16,-1
 153 402 l 1,17,18
 180 463 180 463 233.5 501.5 c 128,-1,19
 287 540 287 540 340 540 c 0,20,21
 435 540 435 540 478 465 c 128,-1,22
 521 390 521 390 500 262 c 0,23,24
 477 126 477 126 406 54 c 128,-1,25
 335 -18 335 -18 247 -18 c 0,26,27
 188 -18 188 -18 151.5 21 c 128,-1,28
 115 60 115 60 106 117 c 1,29,-1
 47 -240 l 1,30,-1
 3 -240 l 1,14,-1
EndSplineSet
EndChar

StartChar: dcroat
Encoding: 273 273 211
Width: 553
GlyphClass: 2
Flags: W
LayerCount: 2
Fore
SplineSet
45 262 m 0,0,1
 67 393 67 393 136 466.5 c 128,-1,2
 205 540 205 540 297 540 c 0,3,4
 358 540 358 540 395 500 c 128,-1,5
 432 460 432 460 439 403 c 1,6,-1
 477 636 l 1,7,-1
 261 636 l 1,8,-1
 267 672 l 1,9,-1
 483 672 l 1,10,-1
 499 766 l 1,11,-1
 542 766 l 1,12,-1
 527 672 l 1,13,-1
 601 672 l 1,14,-1
 595 636 l 1,15,-1
 521 636 l 1,16,-1
 415 0 l 1,17,-1
 373 0 l 1,18,-1
 392 115 l 1,19,20
 362 56 362 56 313 19 c 128,-1,21
 264 -18 264 -18 203 -18 c 0,22,23
 120 -18 120 -18 71 52 c 128,-1,24
 22 122 22 122 45 262 c 0,0,1
89 262 m 256,25,26
 71 153 71 153 105.5 86.5 c 128,-1,27
 140 20 140 20 215 20 c 0,28,29
 283 20 283 20 340 85 c 128,-1,30
 397 150 397 150 417 262 c 0,31,32
 417 264 417 264 417 266 c 0,33,34
 435 372 435 372 398 437 c 128,-1,35
 361 502 361 502 293 502 c 0,36,37
 221 502 221 502 164 436.5 c 128,-1,38
 107 371 107 371 89 262 c 256,25,26
EndSplineSet
EndChar

StartChar: uni0123
Encoding: 291 291 229
Width: 541
GlyphClass: 2
Flags: W
LayerCount: 2
Fore
SplineSet
281 632 m 1,0,-1
 385 805 l 1,1,-1
 418 805 l 1,2,-1
 338 632 l 1,3,-1
 281 632 l 1,0,-1
90 271 m 0,4,5
 73 167 73 167 107.5 103 c 128,-1,6
 142 39 142 39 211 39 c 0,7,8
 286 39 286 39 338.5 100.5 c 128,-1,9
 391 162 391 162 410 272 c 0,10,11
 427 376 427 376 393.5 439 c 128,-1,12
 360 502 360 502 288 502 c 0,13,14
 215 502 215 502 161 437.5 c 128,-1,15
 107 373 107 373 90 271 c 0,4,5
46 271 m 0,16,17
 66 391 66 391 133.5 465.5 c 128,-1,18
 201 540 201 540 292 540 c 0,19,20
 357 540 357 540 390 502 c 128,-1,21
 423 464 423 464 433 412 c 1,22,-1
 451 523 l 1,23,-1
 494 523 l 1,24,-1
 415 46 l 2,25,26
 390 -102 390 -102 332 -173 c 128,-1,27
 274 -244 274 -244 166 -244 c 0,28,29
 115 -244 115 -244 72 -220.5 c 128,-1,30
 29 -197 29 -197 8 -156 c 1,31,-1
 43 -134 l 1,32,33
 89 -205 89 -205 174 -205 c 0,34,35
 258 -205 258 -205 304 -145 c 128,-1,36
 350 -85 350 -85 370 30 c 2,37,-1
 385 125 l 1,38,39
 357 70 357 70 311 35 c 128,-1,40
 265 0 265 0 203 0 c 0,41,42
 112 0 112 0 69 76 c 128,-1,43
 26 152 26 152 46 271 c 0,16,17
EndSplineSet
EndChar

StartChar: Hbar
Encoding: 294 294 232
Width: 723
GlyphClass: 2
Flags: W
LayerCount: 2
Fore
SplineSet
73 579 m 1,0,-1
 80 618 l 1,1,-1
 170 618 l 1,2,-1
 189 735 l 1,3,-1
 235 735 l 1,4,-1
 216 618 l 1,5,-1
 618 618 l 1,6,-1
 637 735 l 1,7,-1
 684 735 l 1,8,-1
 665 618 l 1,9,-1
 755 618 l 1,10,-1
 749 579 l 1,11,-1
 658 579 l 1,12,-1
 563 0 l 1,13,-1
 516 0 l 1,14,-1
 575 360 l 1,15,-1
 173 360 l 1,16,-1
 114 0 l 1,17,-1
 68 0 l 1,18,-1
 164 579 l 1,19,-1
 73 579 l 1,0,-1
611 579 m 1,20,-1
 210 579 l 1,21,-1
 180 400 l 1,22,-1
 582 400 l 1,23,-1
 611 579 l 1,20,-1
EndSplineSet
EndChar

StartChar: hbar
Encoding: 295 295 233
Width: 544
GlyphClass: 2
Flags: W
LayerCount: 2
Fore
SplineSet
78 643 m 1,0,-1
 84 680 l 1,1,-1
 157 680 l 1,2,-1
 171 766 l 1,3,-1
 215 766 l 1,4,-1
 201 680 l 1,5,-1
 408 680 l 1,6,-1
 402 643 l 1,7,-1
 195 643 l 1,8,-1
 157 416 l 1,9,10
 181 461 181 461 234 497.5 c 128,-1,11
 287 534 287 534 349 534 c 0,12,13
 377 534 377 534 400 526 c 128,-1,14
 423 518 423 518 445 498 c 128,-1,15
 467 478 467 478 475.5 435.5 c 128,-1,16
 484 393 484 393 474 332 c 2,17,-1
 419 0 l 1,18,-1
 375 0 l 1,19,-1
 429 323 l 2,20,21
 457 495 457 495 334 495 c 0,22,23
 270 495 270 495 211 439 c 128,-1,24
 152 383 152 383 140 311 c 2,25,-1
 89 0 l 1,26,-1
 44 0 l 1,27,-1
 151 643 l 1,28,-1
 78 643 l 1,0,-1
EndSplineSet
EndChar

StartChar: dotlessi
Encoding: 305 305 243
Width: 218
GlyphClass: 2
Flags: W
LayerCount: 2
Fore
SplineSet
40 0 m 1,0,-1
 127 523 l 1,1,-1
 171 523 l 1,2,-1
 85 0 l 1,3,-1
 40 0 l 1,0,-1
EndSplineSet
EndChar

StartChar: kgreenlandic
Encoding: 312 312 250
Width: 467
GlyphClass: 2
Flags: W
LayerCount: 2
Fore
SplineSet
41 0 m 1,0,-1
 128 523 l 1,1,-1
 172 523 l 1,2,-1
 130 267 l 1,3,-1
 132 267 l 1,4,-1
 438 523 l 1,5,-1
 496 523 l 1,6,-1
 193 268 l 1,7,-1
 422 0 l 1,8,-1
 366 0 l 1,9,-1
 158 237 l 1,10,-1
 119 203 l 1,11,-1
 85 0 l 1,12,-1
 41 0 l 1,0,-1
EndSplineSet
EndChar

StartChar: Lslash
Encoding: 321 321 259
Width: 527
GlyphClass: 2
Flags: W
LayerCount: 2
Fore
SplineSet
176 354 m 1,0,-1
 124 41 l 1,1,-1
 478 41 l 1,2,-1
 472 0 l 1,3,-1
 71 0 l 1,4,-1
 124 322 l 1,5,-1
 0 244 l 1,6,-1
 -17 278 l 1,7,-1
 132 372 l 1,8,-1
 193 735 l 1,9,-1
 239 735 l 1,10,-1
 184 403 l 1,11,-1
 301 476 l 1,12,-1
 318 443 l 1,13,-1
 176 354 l 1,0,-1
EndSplineSet
EndChar

StartChar: lslash
Encoding: 322 322 260
Width: 238
GlyphClass: 2
Flags: W
LayerCount: 2
Fore
SplineSet
156 370 m 1,0,-1
 94 0 l 1,1,-1
 50 0 l 1,2,-1
 106 339 l 1,3,-1
 -9 265 l 1,4,-1
 -25 299 l 1,5,-1
 115 389 l 1,6,-1
 177 766 l 1,7,-1
 221 766 l 1,8,-1
 164 420 l 1,9,-1
 278 492 l 1,10,-1
 294 459 l 1,11,-1
 156 370 l 1,0,-1
EndSplineSet
EndChar

StartChar: Eng
Encoding: 330 330 268
Width: 718
GlyphClass: 2
Flags: W
LayerCount: 2
Fore
SplineSet
61 0 m 1,0,-1
 183 735 l 1,1,-1
 238 735 l 1,2,-1
 531 71 l 1,3,-1
 536 71 l 1,4,5
 543 153 543 153 558 250 c 2,6,-1
 639 735 l 1,7,-1
 686 735 l 1,8,-1
 564 0 l 2,9,10
 544 -118 544 -118 491.5 -181 c 128,-1,11
 439 -244 439 -244 339 -244 c 0,12,13
 289 -244 289 -244 243 -238 c 1,14,-1
 250 -197 l 1,15,16
 292 -203 292 -203 339 -203 c 0,17,18
 414 -203 414 -203 453.5 -156 c 128,-1,19
 493 -109 493 -109 512 0 c 1,20,-1
 261 563 l 1,21,-1
 216 669 l 1,22,-1
 212 669 l 1,23,24
 202 576 202 576 187 483 c 2,25,-1
 107 0 l 1,26,-1
 61 0 l 1,0,-1
EndSplineSet
EndChar

StartChar: eng
Encoding: 331 331 269
Width: 537
GlyphClass: 2
Flags: W
LayerCount: 2
Fore
SplineSet
38 0 m 1,0,-1
 124 523 l 1,1,-1
 166 523 l 1,2,-1
 148 415 l 1,3,-1
 150 415 l 1,4,5
 165 457 165 457 220 498.5 c 128,-1,6
 275 540 275 540 343 540 c 0,7,8
 373 540 373 540 397 532 c 128,-1,9
 421 524 421 524 442 503 c 128,-1,10
 463 482 463 482 470 440.5 c 128,-1,11
 477 399 477 399 467 338 c 2,12,-1
 411 0 l 2,13,14
 390 -129 390 -129 340 -186.5 c 128,-1,15
 290 -244 290 -244 209 -244 c 0,16,17
 190 -244 190 -244 122 -234 c 1,18,-1
 128 -196 l 1,19,20
 184 -204 184 -204 211 -204 c 0,21,22
 277 -204 277 -204 313.5 -155.5 c 128,-1,23
 350 -107 350 -107 367 -4 c 2,24,-1
 422 329 l 2,25,26
 451 502 451 502 328 502 c 0,27,28
 264 502 264 502 204.5 446.5 c 128,-1,29
 145 391 145 391 133 318 c 2,30,-1
 80 0 l 1,31,-1
 38 0 l 1,0,-1
EndSplineSet
EndChar

StartChar: OE
Encoding: 338 338 276
Width: 905
GlyphClass: 2
Flags: W
LayerCount: 2
Fore
SplineSet
69 368 m 256,0,1
 98 546 98 546 199.5 650 c 128,-1,2
 301 754 301 754 436 754 c 0,3,4
 491 754 491 754 536 735 c 1,5,-1
 937 735 l 1,6,-1
 930 694 l 1,7,-1
 573 694 l 1,8,-1
 525 402 l 1,9,-1
 844 402 l 1,10,-1
 838 362 l 1,11,-1
 518 362 l 1,12,-1
 465 41 l 1,13,-1
 827 41 l 1,14,-1
 820 0 l 1,15,-1
 417 0 l 1,16,17
 369 -18 369 -18 308 -18 c 0,18,19
 173 -18 173 -18 106.5 86 c 128,-1,20
 40 190 40 190 69 368 c 256,0,1
117 368 m 0,21,22
 91 209 91 209 147 115.5 c 128,-1,23
 203 22 203 22 315 22 c 0,24,25
 373 22 373 22 419 45 c 1,26,-1
 525 688 l 1,27,28
 488 713 488 713 429 713 c 0,29,30
 313 713 313 713 228 618.5 c 128,-1,31
 143 524 143 524 117 368 c 0,21,22
EndSplineSet
EndChar

StartChar: uni0163
Encoding: 355 355 293
Width: 328
GlyphClass: 2
Flags: W
LayerCount: 2
Fore
SplineSet
58 483 m 1,0,-1
 64 523 l 1,1,-1
 157 523 l 1,2,-1
 186 699 l 1,3,-1
 231 699 l 1,4,-1
 201 523 l 1,5,-1
 328 523 l 1,6,-1
 321 483 l 1,7,-1
 195 483 l 1,8,-1
 139 144 l 2,9,10
 130 89 130 89 146 64.5 c 128,-1,11
 162 40 162 40 209 40 c 2,12,-1
 249 40 l 1,13,-1
 242 0 l 1,14,-1
 197 0 l 2,15,16
 189 0 189 0 183 0 c 1,17,-1
 164 -48 l 1,18,19
 208 -53 208 -53 228.5 -77 c 128,-1,20
 249 -101 249 -101 243 -136 c 0,21,22
 237 -172 237 -172 206 -196.5 c 128,-1,23
 175 -221 175 -221 122 -221 c 0,24,25
 82 -221 82 -221 46 -210 c 1,26,-1
 52 -177 l 1,27,28
 90 -189 90 -189 128 -189 c 0,29,30
 159 -189 159 -189 181 -174 c 128,-1,31
 203 -159 203 -159 207 -134 c 0,32,33
 216 -77 216 -77 114 -70 c 1,34,-1
 146 8 l 1,35,36
 77 33 77 33 93 137 c 2,37,-1
 151 483 l 1,38,-1
 58 483 l 1,0,-1
EndSplineSet
Substitution2: "'locl' Localized Forms in Latin lookup 3 subtable" uni021B
Substitution2: "'locl' Localized Forms in Latin lookup 2 subtable" uni021B
Substitution2: "'aalt' Access All Alternates lookup 0 subtable" uni021B
EndChar

StartChar: tbar
Encoding: 359 359 297
Width: 336
GlyphClass: 2
Flags: W
LayerCount: 2
Fore
SplineSet
58 483 m 1,0,-1
 65 523 l 1,1,-1
 158 523 l 1,2,-1
 187 699 l 1,3,-1
 231 699 l 1,4,-1
 202 523 l 1,5,-1
 336 523 l 1,6,-1
 329 483 l 1,7,-1
 195 483 l 1,8,-1
 172 346 l 1,9,-1
 311 346 l 1,10,-1
 305 308 l 1,11,-1
 166 308 l 1,12,-1
 139 144 l 2,13,14
 130 89 130 89 146.5 64.5 c 128,-1,15
 163 40 163 40 209 40 c 2,16,-1
 257 40 l 1,17,-1
 250 0 l 1,18,-1
 198 0 l 2,19,20
 71 0 71 0 94 137 c 2,21,-1
 122 308 l 1,22,-1
 20 308 l 1,23,-1
 27 346 l 1,24,-1
 128 346 l 1,25,-1
 151 483 l 1,26,-1
 58 483 l 1,0,-1
EndSplineSet
EndChar

StartChar: longs
Encoding: 383 383 321
Width: 281
GlyphClass: 2
Flags: W
LayerCount: 2
Fore
SplineSet
43 0 m 1,0,-1
 143 601 l 2,1,2
 156 677 156 677 197 712.5 c 128,-1,3
 238 748 238 748 300 748 c 2,4,-1
 345 748 l 1,5,-1
 339 710 l 1,6,-1
 298 710 l 2,7,8
 205 710 205 710 186 594 c 2,9,-1
 87 0 l 1,10,-1
 43 0 l 1,0,-1
EndSplineSet
EndChar

StartChar: uni0180
Encoding: 384 384 322
Width: 553
GlyphClass: 2
Flags: W
LayerCount: 2
Fore
SplineSet
130 262 m 0,0,1
 111 150 111 150 148 85 c 128,-1,2
 185 20 185 20 252 20 c 0,3,4
 326 20 326 20 383 85.5 c 128,-1,5
 440 151 440 151 459 262 c 0,6,7
 477 372 477 372 442 437 c 128,-1,8
 407 502 407 502 333 502 c 0,9,10
 267 502 267 502 207.5 437.5 c 128,-1,11
 148 373 148 373 130 262 c 0,0,1
81 644 m 1,12,-1
 87 680 l 1,13,-1
 157 680 l 1,14,-1
 171 766 l 1,15,-1
 215 766 l 1,16,-1
 201 680 l 1,17,-1
 408 680 l 1,18,-1
 402 644 l 1,19,-1
 195 644 l 1,20,-1
 155 401 l 1,21,22
 175 453 175 453 227 496.5 c 128,-1,23
 279 540 279 540 344 540 c 0,24,25
 437 540 437 540 480 465 c 128,-1,26
 523 390 523 390 502 262 c 0,27,28
 479 122 479 122 406.5 52 c 128,-1,29
 334 -18 334 -18 250 -18 c 0,30,31
 190 -18 190 -18 153.5 20 c 128,-1,32
 117 58 117 58 107 114 c 1,33,-1
 88 0 l 1,34,-1
 44 0 l 1,35,-1
 151 644 l 1,36,-1
 81 644 l 1,12,-1
EndSplineSet
EndChar

StartChar: uni0182
Encoding: 386 386 324
Width: 639
GlyphClass: 2
Flags: W
LayerCount: 2
Fore
SplineSet
114 41 m 1,0,-1
 330 41 l 2,1,2
 409 41 409 41 462.5 81.5 c 128,-1,3
 516 122 516 122 529 200 c 0,4,5
 541 275 541 275 500.5 319.5 c 128,-1,6
 460 364 460 364 375 364 c 2,7,-1
 168 364 l 1,8,-1
 114 41 l 1,0,-1
61 0 m 1,9,-1
 183 735 l 1,10,-1
 583 735 l 1,11,-1
 576 694 l 1,12,-1
 222 694 l 1,13,-1
 174 405 l 1,14,-1
 390 405 l 2,15,16
 492 405 492 405 542 349 c 128,-1,17
 592 293 592 293 577 200 c 0,18,19
 562 110 562 110 496.5 55 c 128,-1,20
 431 0 431 0 334 0 c 2,21,-1
 61 0 l 1,9,-1
EndSplineSet
EndChar

StartChar: uni0183
Encoding: 387 387 325
Width: 550
GlyphClass: 2
Flags: W
LayerCount: 2
Fore
SplineSet
127 262 m 0,0,1
 108 150 108 150 145 85 c 128,-1,2
 182 20 182 20 249 20 c 0,3,4
 323 20 323 20 380 85.5 c 128,-1,5
 437 151 437 151 456 262 c 0,6,7
 474 372 474 372 438.5 437 c 128,-1,8
 403 502 403 502 330 502 c 0,9,10
 264 502 264 502 204.5 437.5 c 128,-1,11
 145 373 145 373 127 262 c 0,0,1
41 0 m 1,12,-1
 168 766 l 1,13,-1
 487 766 l 1,14,-1
 480 727 l 1,15,-1
 206 727 l 1,16,-1
 152 401 l 1,17,18
 172 451 172 451 224 495.5 c 128,-1,19
 276 540 276 540 341 540 c 0,20,21
 433 540 433 540 476.5 465 c 128,-1,22
 520 390 520 390 499 262 c 0,23,24
 476 122 476 122 403.5 52 c 128,-1,25
 331 -18 331 -18 248 -18 c 0,26,27
 188 -18 188 -18 150.5 20.5 c 128,-1,28
 113 59 113 59 104 114 c 1,29,-1
 85 0 l 1,30,-1
 41 0 l 1,12,-1
EndSplineSet
EndChar

StartChar: uni0184
Encoding: 388 388 326
Width: 648
GlyphClass: 2
Flags: W
LayerCount: 2
Fore
SplineSet
109 684 m 1,0,-1
 202 735 l 1,1,-1
 234 735 l 1,2,-1
 179 400 l 1,3,-1
 397 400 l 2,4,5
 497 400 497 400 548 342 c 128,-1,6
 599 284 599 284 586 200 c 0,7,8
 572 118 572 118 507.5 59 c 128,-1,9
 443 0 443 0 345 0 c 2,10,-1
 66 0 l 1,11,-1
 170 629 l 1,12,-1
 109 684 l 1,0,-1
119 41 m 1,13,-1
 339 41 l 2,14,15
 414 41 414 41 469.5 83 c 128,-1,16
 525 125 525 125 537 199 c 0,17,18
 548 267 548 267 507.5 313.5 c 128,-1,19
 467 360 467 360 389 360 c 2,20,-1
 172 360 l 1,21,-1
 119 41 l 1,13,-1
EndSplineSet
EndChar

StartChar: uni0185
Encoding: 389 389 327
Width: 553
GlyphClass: 2
Flags: W
LayerCount: 2
Fore
SplineSet
96 710 m 1,0,-1
 190 766 l 1,1,-1
 215 766 l 1,2,-1
 155 401 l 1,3,4
 182 463 182 463 236.5 501.5 c 128,-1,5
 291 540 291 540 344 540 c 0,6,7
 436 540 436 540 479.5 465 c 128,-1,8
 523 390 523 390 502 262 c 0,9,10
 479 123 479 123 406.5 52.5 c 128,-1,11
 334 -18 334 -18 250 -18 c 0,12,13
 189 -18 189 -18 153.5 20 c 128,-1,14
 118 58 118 58 107 115 c 1,15,-1
 88 0 l 1,16,-1
 44 0 l 1,17,-1
 152 655 l 1,18,-1
 96 710 l 1,0,-1
130 262 m 256,19,20
 112 151 112 151 148 85.5 c 128,-1,21
 184 20 184 20 252 20 c 0,22,23
 326 20 326 20 383 86 c 128,-1,24
 440 152 440 152 458 262 c 0,25,26
 476 371 476 371 441 436.5 c 128,-1,27
 406 502 406 502 333 502 c 0,28,29
 267 502 267 502 207.5 437.5 c 128,-1,30
 148 373 148 373 130 262 c 256,19,20
EndSplineSet
EndChar

StartChar: uni0186
Encoding: 390 390 328
Width: 619
GlyphClass: 2
Flags: W
LayerCount: 2
Fore
SplineSet
7 141 m 1,0,-1
 52 155 l 1,1,2
 69 98 69 98 113 60 c 128,-1,3
 157 22 157 22 226 22 c 0,4,5
 336 22 336 22 420.5 115 c 128,-1,6
 505 208 505 208 532 368 c 0,7,8
 558 525 558 525 505.5 619 c 128,-1,9
 453 713 453 713 340 713 c 0,10,11
 274 713 274 713 223.5 676.5 c 128,-1,12
 173 640 173 640 141 588 c 1,13,-1
 104 605 l 1,14,15
 139 664 139 664 201.5 709 c 128,-1,16
 264 754 264 754 346 754 c 0,17,18
 479 754 479 754 544 651.5 c 128,-1,19
 609 549 609 549 579 368 c 0,20,21
 549 188 549 188 450 85 c 128,-1,22
 351 -18 351 -18 218 -18 c 0,23,24
 55 -18 55 -18 7 141 c 1,0,-1
EndSplineSet
EndChar

StartChar: uni018B
Encoding: 395 395 333
Width: 639
GlyphClass: 2
Flags: W
LayerCount: 2
Fore
SplineSet
83 200 m 0,0,1
 70 123 70 123 111 82 c 128,-1,2
 152 41 152 41 231 41 c 2,3,-1
 444 41 l 1,4,-1
 498 364 l 1,5,-1
 296 364 l 2,6,7
 212 364 212 364 153.5 319.5 c 128,-1,8
 95 275 95 275 83 200 c 0,0,1
35 200 m 0,9,10
 50 292 50 292 120.5 348.5 c 128,-1,11
 191 405 191 405 294 405 c 2,12,-1
 504 405 l 1,13,-1
 552 694 l 1,14,-1
 200 694 l 1,15,-1
 207 735 l 1,16,-1
 606 735 l 1,17,-1
 484 0 l 1,18,-1
 215 0 l 2,19,20
 118 0 118 0 69 55 c 128,-1,21
 20 110 20 110 35 200 c 0,9,10
EndSplineSet
EndChar

StartChar: uni018C
Encoding: 396 396 334
Width: 550
GlyphClass: 2
Flags: W
LayerCount: 2
Fore
SplineSet
89 262 m 256,0,1
 71 152 71 152 105 86 c 128,-1,2
 139 20 139 20 214 20 c 0,3,4
 282 20 282 20 340 85 c 128,-1,5
 398 150 398 150 417 262 c 0,6,7
 435 373 435 373 397.5 437.5 c 128,-1,8
 360 502 360 502 293 502 c 0,9,10
 220 502 220 502 163.5 437 c 128,-1,11
 107 372 107 372 89 262 c 256,0,1
45 262 m 0,12,13
 66 391 66 391 135.5 465.5 c 128,-1,14
 205 540 205 540 297 540 c 0,15,16
 360 540 360 540 396.5 498 c 128,-1,17
 433 456 433 456 439 403 c 1,18,-1
 493 727 l 1,19,-1
 214 727 l 1,20,-1
 221 766 l 1,21,-1
 542 766 l 1,22,-1
 415 0 l 1,23,-1
 373 0 l 1,24,-1
 392 115 l 1,25,26
 365 59 365 59 314.5 20.5 c 128,-1,27
 264 -18 264 -18 202 -18 c 0,28,29
 119 -18 119 -18 70.5 52 c 128,-1,30
 22 122 22 122 45 262 c 0,12,13
EndSplineSet
EndChar

StartChar: uni018D
Encoding: 397 397 335
Width: 583
GlyphClass: 2
Flags: W
LayerCount: 2
Fore
SplineSet
98 317 m 0,0,1
 75 180 75 180 262 85 c 1,2,3
 354 123 354 123 419.5 187 c 128,-1,4
 485 251 485 251 496 318 c 0,5,6
 508 393 508 393 467 447.5 c 128,-1,7
 426 502 426 502 332 502 c 0,8,9
 244 502 244 502 178 452 c 128,-1,10
 112 402 112 402 98 317 c 0,0,1
53 314 m 0,11,12
 70 419 70 419 148.5 479.5 c 128,-1,13
 227 540 227 540 339 540 c 0,14,15
 449 540 449 540 503 478 c 128,-1,16
 557 416 557 416 541 320 c 0,17,18
 529 249 529 249 463 177.5 c 128,-1,19
 397 106 397 106 297 62 c 1,20,21
 415 -13 415 -13 402 -93 c 0,22,23
 392 -156 392 -156 336.5 -197.5 c 128,-1,24
 281 -239 281 -239 198 -239 c 0,25,26
 68 -239 68 -239 17 -132 c 1,27,-1
 54 -109 l 1,28,29
 100 -200 100 -200 204 -200 c 0,30,31
 261 -200 261 -200 306 -171 c 128,-1,32
 351 -142 351 -142 359 -94 c 0,33,34
 364 -64 364 -64 341 -34 c 128,-1,35
 318 -4 318 -4 289.5 16 c 128,-1,36
 261 36 261 36 209 64 c 0,37,38
 28 164 28 164 53 314 c 0,11,12
EndSplineSet
EndChar

StartChar: uni018E
Encoding: 398 398 336
Width: 594
GlyphClass: 2
Flags: W
LayerCount: 2
Fore
SplineSet
-9 0 m 1,0,-1
 -2 41 l 1,1,-1
 400 41 l 1,2,-1
 453 361 l 1,3,-1
 100 361 l 1,4,-1
 107 402 l 1,5,-1
 460 402 l 1,6,-1
 508 694 l 1,7,-1
 119 694 l 1,8,-1
 126 735 l 1,9,-1
 562 735 l 1,10,-1
 440 0 l 1,11,-1
 -9 0 l 1,0,-1
EndSplineSet
EndChar

StartChar: uni018F
Encoding: 399 399 337
Width: 671
GlyphClass: 2
Flags: W
LayerCount: 2
Fore
SplineSet
111 343 m 1,0,1
 110 337 110 337 109 328 c 128,-1,2
 108 319 108 319 107 315 c 0,3,4
 99 262 99 262 101.5 215 c 128,-1,5
 104 168 104 168 120 122 c 128,-1,6
 136 76 136 76 178 49 c 128,-1,7
 220 22 220 22 284 22 c 0,8,9
 325 22 325 22 368 38.5 c 128,-1,10
 411 55 411 55 454 90 c 128,-1,11
 497 125 497 125 531.5 190.5 c 128,-1,12
 566 256 566 256 580 343 c 1,13,-1
 111 343 l 1,0,1
60 328 m 2,14,-1
 69 383 l 1,15,-1
 586 383 l 1,16,17
 596 455 596 455 591.5 513.5 c 128,-1,18
 587 572 587 572 565 617.5 c 128,-1,19
 543 663 543 663 499.5 688 c 128,-1,20
 456 713 456 713 392 713 c 0,21,22
 259 713 259 713 167 589 c 1,23,-1
 130 607 l 1,24,25
 173 674 173 674 244.5 714 c 128,-1,26
 316 754 316 754 400 754 c 0,27,28
 501 754 501 754 560.5 702 c 128,-1,29
 620 650 620 650 635.5 565 c 128,-1,30
 651 480 651 480 632 366 c 0,31,32
 601 178 601 178 503 80 c 128,-1,33
 405 -18 405 -18 276 -18 c 0,34,35
 202 -18 202 -18 152.5 12.5 c 128,-1,36
 103 43 103 43 81 94.5 c 128,-1,37
 59 146 59 146 54 204.5 c 128,-1,38
 49 263 49 263 60 328 c 2,14,-1
EndSplineSet
EndChar

StartChar: uni0190
Encoding: 400 400 338
Width: 581
GlyphClass: 2
Flags: W
LayerCount: 2
Fore
SplineSet
40 200 m 0,0,1
 53 280 53 280 112 329 c 128,-1,2
 171 378 171 378 237 392 c 1,3,4
 186 410 186 410 152.5 456.5 c 128,-1,5
 119 503 119 503 131 572 c 0,6,7
 144 649 144 649 211.5 701.5 c 128,-1,8
 279 754 279 754 380 754 c 0,9,10
 530 754 530 754 577 615 c 1,11,-1
 533 599 l 1,12,13
 491 714 491 714 376 714 c 0,14,15
 302 714 302 714 245.5 673 c 128,-1,16
 189 632 189 632 178 568 c 0,17,18
 166 494 166 494 214.5 451.5 c 128,-1,19
 263 409 263 409 339 409 c 0,20,21
 382 409 382 409 391 410 c 1,22,-1
 384 369 l 1,23,24
 374 370 374 370 329 370 c 0,25,26
 276 370 276 370 226.5 353.5 c 128,-1,27
 177 337 177 337 137 297.5 c 128,-1,28
 97 258 97 258 88 201 c 0,29,30
 73 113 73 113 127 67 c 128,-1,31
 181 21 181 21 265 21 c 0,32,33
 322 21 322 21 381.5 51.5 c 128,-1,34
 441 82 441 82 479 127 c 1,35,-1
 514 109 l 1,36,37
 472 52 472 52 402.5 17 c 128,-1,38
 333 -18 333 -18 258 -18 c 0,39,40
 151 -18 151 -18 87 39 c 128,-1,41
 23 96 23 96 40 200 c 0,0,1
EndSplineSet
EndChar

StartChar: uni0191
Encoding: 401 401 339
Width: 569
GlyphClass: 2
Flags: W
LayerCount: 2
Fore
SplineSet
-106 -200 m 1,0,1
 -70 -203 -70 -203 -59 -203 c 0,2,3
 -6 -203 -6 -203 22 -166.5 c 128,-1,4
 50 -130 50 -130 62 -57 c 2,5,-1
 193 735 l 1,6,-1
 613 735 l 1,7,-1
 606 694 l 1,8,-1
 233 694 l 1,9,-1
 182 391 l 1,10,-1
 519 391 l 1,11,-1
 512 352 l 1,12,-1
 176 352 l 1,13,-1
 108 -57 l 2,14,15
 77 -244 77 -244 -59 -244 c 0,16,17
 -83 -244 -83 -244 -112 -240 c 1,18,-1
 -106 -200 l 1,0,1
EndSplineSet
EndChar

StartChar: florin
Encoding: 402 402 340
Width: 312
GlyphClass: 2
Flags: W
LayerCount: 2
Fore
SplineSet
-107 -200 m 1,0,1
 -76 -204 -76 -204 -62 -204 c 0,2,3
 39 -204 39 -204 64 -48 c 2,4,-1
 152 483 l 1,5,-1
 60 483 l 1,6,-1
 66 523 l 1,7,-1
 159 523 l 1,8,-1
 175 620 l 2,9,10
 187 695 187 695 228.5 730.5 c 128,-1,11
 270 766 270 766 331 766 c 2,12,-1
 382 766 l 1,13,-1
 375 727 l 1,14,-1
 329 727 l 2,15,16
 236 727 236 727 217 613 c 2,17,-1
 202 523 l 1,18,-1
 328 523 l 1,19,-1
 322 483 l 1,20,-1
 195 483 l 1,21,-1
 107 -50 l 2,22,23
 75 -244 75 -244 -63 -244 c 0,24,25
 -75 -244 -75 -244 -94 -242 c 128,-1,26
 -113 -240 -113 -240 -114 -240 c 1,27,-1
 -107 -200 l 1,0,1
EndSplineSet
EndChar

StartChar: uni0194
Encoding: 404 404 342
Width: 577
GlyphClass: 2
Flags: W
LayerCount: 2
Fore
SplineSet
72 735 m 1,0,-1
 125 735 l 1,1,-1
 258 153 l 1,2,-1
 264 120 l 1,3,-1
 265 120 l 1,4,-1
 280 153 l 1,5,-1
 603 735 l 1,6,-1
 656 735 l 1,7,-1
 296 94 l 1,8,9
 333 32 333 32 348 -11.5 c 128,-1,10
 363 -55 363 -55 354 -105 c 0,11,12
 345 -162 345 -162 303 -203 c 128,-1,13
 261 -244 261 -244 205 -244 c 256,14,15
 149 -244 149 -244 119.5 -206 c 128,-1,16
 90 -168 90 -168 100 -105 c 0,17,18
 108 -58 108 -58 139.5 -11 c 128,-1,19
 171 36 171 36 223 94 c 1,20,-1
 72 735 l 1,0,-1
148 -104 m 0,21,22
 141 -147 141 -147 158 -175.5 c 128,-1,23
 175 -204 175 -204 211 -204 c 0,24,25
 246 -204 246 -204 274 -174 c 128,-1,26
 302 -144 302 -144 308 -104 c 0,27,28
 319 -36 319 -36 255 65 c 1,29,30
 160 -33 160 -33 148 -104 c 0,21,22
EndSplineSet
EndChar

StartChar: uni0195
Encoding: 405 405 343
Width: 859
GlyphClass: 2
Flags: W
LayerCount: 2
Fore
SplineSet
41 0 m 1,0,-1
 168 766 l 1,1,-1
 212 766 l 1,2,-1
 155 423 l 1,3,-1
 156 422 l 1,4,5
 184 471 184 471 236 505.5 c 128,-1,6
 288 540 288 540 347 540 c 0,7,8
 376 540 376 540 400 532 c 128,-1,9
 424 524 424 524 445.5 504 c 128,-1,10
 467 484 467 484 474.5 442 c 128,-1,11
 482 400 482 400 472 338 c 2,12,-1
 442 161 l 2,13,14
 431 96 431 96 458.5 58 c 128,-1,15
 486 20 486 20 553 20 c 0,16,17
 695 20 695 20 719 167 c 2,18,-1
 778 523 l 1,19,-1
 821 523 l 1,20,-1
 762 164 l 2,21,22
 747 75 747 75 693 28.5 c 128,-1,23
 639 -18 639 -18 547 -18 c 0,24,25
 472 -18 472 -18 428.5 22 c 128,-1,26
 385 62 385 62 400 153 c 2,27,-1
 429 329 l 2,28,29
 458 502 458 502 333 502 c 0,30,31
 269 502 269 502 209.5 446 c 128,-1,32
 150 390 150 390 138 319 c 0,33,34
 138 317 138 317 138 316 c 2,35,-1
 85 0 l 1,36,-1
 41 0 l 1,0,-1
EndSplineSet
EndChar

StartChar: uni0196
Encoding: 406 406 344
Width: 320
GlyphClass: 2
Flags: W
LayerCount: 2
Fore
SplineSet
82 156 m 2,0,-1
 178 735 l 1,1,-1
 225 735 l 1,2,-1
 129 158 l 2,3,4
 117 88 117 88 133.5 55 c 128,-1,5
 150 22 150 22 197 22 c 0,6,7
 231 22 231 22 264 27 c 1,8,-1
 258 -13 l 1,9,10
 210 -18 210 -18 184 -18 c 0,11,12
 53 -18 53 -18 82 156 c 2,0,-1
EndSplineSet
EndChar

StartChar: uni0197
Encoding: 407 407 345
Width: 273
GlyphClass: 2
Flags: W
LayerCount: 2
Fore
SplineSet
47 358 m 1,0,-1
 53 396 l 1,1,-1
 133 396 l 1,2,-1
 189 735 l 1,3,-1
 235 735 l 1,4,-1
 179 396 l 1,5,-1
 260 396 l 1,6,-1
 254 358 l 1,7,-1
 172 358 l 1,8,-1
 113 0 l 1,9,-1
 67 0 l 1,10,-1
 126 358 l 1,11,-1
 47 358 l 1,0,-1
EndSplineSet
EndChar

StartChar: uni0198
Encoding: 408 408 346
Width: 616
GlyphClass: 2
Flags: W
LayerCount: 2
Fore
SplineSet
61 0 m 1,0,-1
 183 735 l 1,1,-1
 229 735 l 1,2,-1
 158 303 l 1,3,-1
 159 303 l 1,4,-1
 567 705 l 2,5,6
 617 754 617 754 682 754 c 0,7,8
 706 754 706 754 737 748 c 1,9,-1
 730 706 l 1,10,11
 694 714 694 714 677 714 c 0,12,13
 639 714 639 714 606 682 c 2,14,-1
 339 420 l 1,15,-1
 561 0 l 1,16,-1
 500 0 l 1,17,-1
 301 384 l 1,18,-1
 146 233 l 1,19,-1
 107 0 l 1,20,-1
 61 0 l 1,0,-1
EndSplineSet
EndChar

StartChar: uni0199
Encoding: 409 409 347
Width: 468
GlyphClass: 2
Flags: W
LayerCount: 2
Fore
SplineSet
42 0 m 1,0,-1
 145 620 l 2,1,2
 157 691 157 691 202.5 731 c 128,-1,3
 248 771 248 771 318 771 c 0,4,5
 331 771 331 771 349.5 769 c 128,-1,6
 368 767 368 767 372 767 c 1,7,-1
 365 727 l 1,8,9
 332 731 332 731 318 731 c 0,10,11
 269 731 269 731 233.5 701.5 c 128,-1,12
 198 672 198 672 188 614 c 2,13,-1
 123 221 l 1,14,-1
 427 523 l 1,15,-1
 485 523 l 1,16,-1
 275 316 l 1,17,-1
 422 0 l 1,18,-1
 369 0 l 1,19,-1
 240 282 l 1,20,-1
 113 158 l 1,21,-1
 86 0 l 1,22,-1
 42 0 l 1,0,-1
EndSplineSet
EndChar

StartChar: uni019A
Encoding: 410 410 348
Width: 234
GlyphClass: 2
Flags: W
LayerCount: 2
Fore
SplineSet
29 371 m 1,0,-1
 35 409 l 1,1,-1
 116 409 l 1,2,-1
 175 766 l 1,3,-1
 219 766 l 1,4,-1
 160 409 l 1,5,-1
 240 409 l 1,6,-1
 234 371 l 1,7,-1
 154 371 l 1,8,-1
 92 0 l 1,9,-1
 48 0 l 1,10,-1
 110 371 l 1,11,-1
 29 371 l 1,0,-1
EndSplineSet
EndChar

StartChar: uni019B
Encoding: 411 411 349
Width: 450
GlyphClass: 2
Flags: W
LayerCount: 2
Fore
SplineSet
-37 0 m 1,0,-1
 248 543 l 1,1,-1
 239 606 l 1,2,-1
 100 514 l 1,3,-1
 84 544 l 1,4,-1
 230 639 l 1,5,6
 207 725 207 725 150 725 c 2,7,-1
 132 725 l 1,8,-1
 139 764 l 1,9,-1
 165 764 l 2,10,11
 234 764 234 764 268 664 c 1,12,-1
 375 736 l 1,13,-1
 392 706 l 1,14,-1
 276 630 l 1,15,-1
 392 0 l 1,16,-1
 342 0 l 1,17,-1
 283 352 l 2,18,19
 271 423 271 423 262 485 c 1,20,-1
 259 485 l 1,21,22
 232 427 232 427 195 354 c 2,23,-1
 14 0 l 1,24,-1
 -37 0 l 1,0,-1
EndSplineSet
EndChar

StartChar: uni019C
Encoding: 412 412 350
Width: 925
GlyphClass: 2
Flags: W
LayerCount: 2
Fore
SplineSet
94 197 m 2,0,-1
 183 735 l 1,1,-1
 228 735 l 1,2,-1
 139 200 l 2,3,4
 109 21 109 21 232 21 c 0,5,6
 297 21 297 21 356 78 c 128,-1,7
 415 135 415 135 429 221 c 2,8,-1
 514 735 l 1,9,-1
 561 735 l 1,10,-1
 473 200 l 2,11,12
 460 119 460 119 482 70 c 128,-1,13
 504 21 504 21 568 21 c 0,14,15
 637 21 637 21 692 76.5 c 128,-1,16
 747 132 747 132 760 215 c 2,17,-1
 846 735 l 1,18,-1
 892 735 l 1,19,-1
 771 0 l 1,20,-1
 726 0 l 1,21,-1
 741 94 l 1,22,-1
 740 94 l 1,23,24
 713 44 713 44 661 13 c 128,-1,25
 609 -18 609 -18 551 -18 c 0,26,27
 484 -18 484 -18 454.5 21 c 128,-1,28
 425 60 425 60 424 116 c 1,29,30
 409 75 409 75 351.5 28.5 c 128,-1,31
 294 -18 294 -18 214 -18 c 0,32,33
 58 -18 58 -18 94 197 c 2,0,-1
EndSplineSet
EndChar

StartChar: uni019D
Encoding: 413 413 351
Width: 727
GlyphClass: 2
Flags: W
LayerCount: 2
Fore
SplineSet
192 735 m 1,0,-1
 247 735 l 1,1,-1
 539 66 l 1,2,-1
 544 66 l 1,3,4
 551 147 551 147 568 253 c 2,5,-1
 648 735 l 1,6,-1
 695 735 l 1,7,-1
 574 0 l 1,8,-1
 518 0 l 1,9,-1
 271 563 l 1,10,-1
 226 669 l 1,11,-1
 222 669 l 1,12,13
 212 576 212 576 195 470 c 2,14,-1
 112 -29 l 2,15,16
 94 -136 94 -136 52 -190 c 128,-1,17
 10 -244 10 -244 -69 -244 c 0,18,19
 -72 -244 -72 -244 -102 -240 c 1,20,-1
 -96 -201 l 1,21,22
 -81 -203 -81 -203 -68 -203 c 0,23,24
 -4 -203 -4 -203 24 -159 c 128,-1,25
 52 -115 52 -115 66 -27 c 2,26,-1
 192 735 l 1,0,-1
EndSplineSet
EndChar

StartChar: uni019E
Encoding: 414 414 352
Width: 546
GlyphClass: 2
Flags: W
LayerCount: 2
Fore
SplineSet
38 0 m 1,0,-1
 124 523 l 1,1,-1
 166 523 l 1,2,-1
 148 419 l 1,3,-1
 150 419 l 1,4,5
 175 467 175 467 227.5 503.5 c 128,-1,6
 280 540 280 540 343 540 c 0,7,8
 367 540 367 540 386 535.5 c 128,-1,9
 405 531 405 531 424.5 517.5 c 128,-1,10
 444 504 444 504 455.5 482.5 c 128,-1,11
 467 461 467 461 471 424 c 128,-1,12
 475 387 475 387 467 338 c 2,13,-1
 371 -240 l 1,14,-1
 328 -240 l 1,15,-1
 422 329 l 2,16,17
 451 502 451 502 328 502 c 0,18,19
 264 502 264 502 204.5 447 c 128,-1,20
 145 392 145 392 133 321 c 0,21,22
 133 319 133 319 133 318 c 2,23,-1
 80 0 l 1,24,-1
 38 0 l 1,0,-1
EndSplineSet
EndChar

StartChar: uni019F
Encoding: 415 415 353
Width: 682
GlyphClass: 2
Flags: W
LayerCount: 2
Fore
SplineSet
69 368 m 256,0,1
 98 542 98 542 193 648 c 128,-1,2
 288 754 288 754 421 754 c 256,3,4
 553 754 553 754 612 647.5 c 128,-1,5
 671 541 671 541 643 367 c 256,6,7
 614 193 614 193 519 87.5 c 128,-1,8
 424 -18 424 -18 293 -18 c 0,9,10
 160 -18 160 -18 100 88 c 128,-1,11
 40 194 40 194 69 368 c 256,0,1
591 348 m 1,12,-1
 113 348 l 1,13,14
 93 200 93 200 142 111 c 128,-1,15
 191 22 191 22 299 22 c 0,16,17
 406 22 406 22 484 110.5 c 128,-1,18
 562 199 562 199 591 348 c 1,12,-1
120 386 m 1,19,-1
 598 386 l 1,20,21
 619 536 619 536 570 624.5 c 128,-1,22
 521 713 521 713 414 713 c 256,23,24
 307 713 307 713 228 624.5 c 128,-1,25
 149 536 149 536 120 386 c 1,19,-1
EndSplineSet
EndChar

StartChar: uni01A2
Encoding: 418 418 356
Width: 964
GlyphClass: 2
Flags: W
LayerCount: 2
Fore
SplineSet
67 361 m 0,0,1
 97 545 97 545 197.5 649.5 c 128,-1,2
 298 754 298 754 421 754 c 0,3,4
 478 754 478 754 563 734 c 128,-1,5
 648 714 648 714 733 714 c 0,6,7
 789 714 789 714 932 735 c 1,8,-1
 810 0 l 1,9,-1
 764 0 l 1,10,-1
 878 689 l 1,11,12
 791 675 791 675 726 675 c 0,13,14
 646 675 646 675 587 686 c 1,15,-1
 481 49 l 1,16,17
 397 -18 397 -18 293 -18 c 0,18,19
 171 -18 171 -18 105 86.5 c 128,-1,20
 39 191 39 191 67 361 c 0,0,1
115 361 m 0,21,22
 89 204 89 204 145.5 113 c 128,-1,23
 202 22 202 22 299 22 c 0,24,25
 332 22 332 22 363 31 c 128,-1,26
 394 40 394 40 404.5 46 c 128,-1,27
 415 52 415 52 438 66 c 1,28,-1
 542 693 l 1,29,30
 534 695 534 695 517 699.5 c 128,-1,31
 500 704 500 704 491 707 c 128,-1,32
 482 710 482 710 461 712 c 128,-1,33
 440 714 440 714 414 714 c 0,34,35
 371 714 371 714 326 693 c 128,-1,36
 281 672 281 672 238.5 631 c 128,-1,37
 196 590 196 590 163 520 c 128,-1,38
 130 450 130 450 115 361 c 0,21,22
EndSplineSet
EndChar

StartChar: uni01A3
Encoding: 419 419 357
Width: 782
GlyphClass: 2
Flags: W
LayerCount: 2
Fore
SplineSet
44 261 m 0,0,1
 66 396 66 396 140 468 c 128,-1,2
 214 540 214 540 313 540 c 0,3,4
 359 540 359 540 436.5 526 c 128,-1,5
 514 512 514 512 587 512 c 0,6,7
 661 512 661 512 740 526 c 1,8,-1
 652 0 l 1,9,-1
 609 0 l 1,10,-1
 689 482 l 1,11,12
 616 473 616 473 579 473 c 0,13,14
 513 473 513 473 477 478 c 1,15,-1
 412 81 l 1,16,17
 336 -18 336 -18 221 -18 c 0,18,19
 126 -18 126 -18 73.5 53.5 c 128,-1,20
 21 125 21 125 44 261 c 0,0,1
89 261 m 0,21,22
 71 153 71 153 109 86.5 c 128,-1,23
 147 20 147 20 227 20 c 0,24,25
 311 20 311 20 372 100 c 1,26,-1
 435 484 l 1,27,28
 365 502 365 502 307 502 c 0,29,30
 219 502 219 502 162.5 433.5 c 128,-1,31
 106 365 106 365 89 261 c 0,21,22
EndSplineSet
EndChar

StartChar: uni01A5
Encoding: 421 421 359
Width: 550
GlyphClass: 2
Flags: W
LayerCount: 2
Fore
SplineSet
128 263 m 0,0,1
 110 153 110 153 145 86.5 c 128,-1,2
 180 20 180 20 250 20 c 0,3,4
 322 20 322 20 379.5 85.5 c 128,-1,5
 437 151 437 151 456 262 c 0,6,7
 474 368 474 368 440.5 435 c 128,-1,8
 407 502 407 502 330 502 c 0,9,10
 263 502 263 502 204.5 435.5 c 128,-1,11
 146 369 146 369 128 263 c 0,0,1
2 -240 m 1,12,-1
 144 618 l 2,13,14
 157 697 157 697 205.5 733 c 128,-1,15
 254 769 254 769 312 769 c 0,16,17
 329 769 329 769 349 767 c 128,-1,18
 369 765 369 765 372 765 c 1,19,-1
 365 726 l 1,20,21
 348 728 348 728 310 728 c 0,22,23
 256 728 256 728 225 693.5 c 128,-1,24
 194 659 194 659 186 612 c 2,25,-1
 151 403 l 1,26,27
 177 460 177 460 228.5 500 c 128,-1,28
 280 540 280 540 341 540 c 0,29,30
 432 540 432 540 476 464.5 c 128,-1,31
 520 389 520 389 499 262 c 0,32,33
 476 125 476 125 404.5 53.5 c 128,-1,34
 333 -18 333 -18 247 -18 c 0,35,36
 185 -18 185 -18 149.5 20 c 128,-1,37
 114 58 114 58 105 116 c 1,38,-1
 46 -240 l 1,39,-1
 2 -240 l 1,12,-1
EndSplineSet
EndChar

StartChar: uni01A6
Encoding: 422 422 360
Width: 582
GlyphClass: 2
Flags: W
LayerCount: 2
Fore
SplineSet
137 282 m 1,0,-1
 299 282 l 2,1,2
 371 282 371 282 425.5 316.5 c 128,-1,3
 480 351 480 351 494 432 c 0,4,5
 505 496 505 496 471.5 534.5 c 128,-1,6
 438 573 438 573 351 573 c 2,7,-1
 185 573 l 1,8,-1
 137 282 l 1,0,-1
43 0 m 1,9,-1
 165 735 l 1,10,-1
 212 735 l 1,11,-1
 192 613 l 1,12,-1
 371 613 l 2,13,14
 472 613 472 613 512.5 562.5 c 128,-1,15
 553 512 553 512 540 434 c 0,16,17
 515 284 515 284 347 255 c 1,18,19
 384 239 384 239 399.5 208 c 128,-1,20
 415 177 415 177 424 124 c 0,21,22
 450 -18 450 -18 473 -78 c 1,23,-1
 421 -78 l 1,24,25
 409 -41 409 -41 394 32.5 c 128,-1,26
 379 106 379 106 373 134 c 0,27,28
 360 187 360 187 333 214.5 c 128,-1,29
 306 242 306 242 252 242 c 2,30,-1
 130 242 l 1,31,-1
 90 0 l 1,32,-1
 43 0 l 1,9,-1
EndSplineSet
EndChar

StartChar: uni01A7
Encoding: 423 423 361
Width: 591
GlyphClass: 2
Flags: W
LayerCount: 2
Fore
SplineSet
32 188 m 0,0,1
 38 224 38 224 57 254 c 128,-1,2
 76 284 76 284 96.5 303.5 c 128,-1,3
 117 323 117 323 154.5 341.5 c 128,-1,4
 192 360 192 360 218 369.5 c 128,-1,5
 244 379 244 379 288 393.5 c 128,-1,6
 332 408 332 408 355 416 c 128,-1,7
 378 424 378 424 413.5 440.5 c 128,-1,8
 449 457 449 457 468.5 472.5 c 128,-1,9
 488 488 488 488 505 513.5 c 128,-1,10
 522 539 522 539 527 569 c 0,11,12
 538 635 538 635 496 674 c 128,-1,13
 454 713 454 713 368 713 c 0,14,15
 248 713 248 713 165 615 c 1,16,-1
 126 630 l 1,17,18
 165 682 165 682 230.5 718 c 128,-1,19
 296 754 296 754 372 754 c 0,20,21
 480 754 480 754 534.5 703.5 c 128,-1,22
 589 653 589 653 575 569 c 0,23,24
 570 537 570 537 557 510.5 c 128,-1,25
 544 484 544 484 521 463.5 c 128,-1,26
 498 443 498 443 478 429 c 128,-1,27
 458 415 458 415 423 400.5 c 128,-1,28
 388 386 388 386 367.5 378.5 c 128,-1,29
 347 371 347 371 307 359 c 0,30,31
 255 341 255 341 226.5 330.5 c 128,-1,32
 198 320 198 320 161.5 299 c 128,-1,33
 125 278 125 278 105 250 c 128,-1,34
 85 222 85 222 79 186 c 0,35,36
 66 109 66 109 114 65.5 c 128,-1,37
 162 22 162 22 248 22 c 0,38,39
 313 22 313 22 375 55.5 c 128,-1,40
 437 89 437 89 478 139 c 1,41,-1
 517 120 l 1,42,43
 469 58 469 58 398 20 c 128,-1,44
 327 -18 327 -18 243 -18 c 0,45,46
 128 -18 128 -18 72 36.5 c 128,-1,47
 16 91 16 91 32 188 c 0,0,1
EndSplineSet
EndChar

StartChar: uni01A8
Encoding: 424 424 362
Width: 459
GlyphClass: 2
Flags: W
LayerCount: 2
Fore
SplineSet
14 123 m 0,0,1
 18 150 18 150 33.5 173 c 128,-1,2
 49 196 49 196 68 210.5 c 128,-1,3
 87 225 87 225 116.5 239 c 128,-1,4
 146 253 146 253 167.5 260.5 c 128,-1,5
 189 268 189 268 222 277 c 0,6,7
 290 297 290 297 331.5 323.5 c 128,-1,8
 373 350 373 350 382 400 c 0,9,10
 389 445 389 445 357 473.5 c 128,-1,11
 325 502 325 502 264 502 c 0,12,13
 216 502 216 502 175 477.5 c 128,-1,14
 134 453 134 453 107 415 c 1,15,-1
 78 435 l 1,16,17
 109 480 109 480 160 510 c 128,-1,18
 211 540 211 540 270 540 c 0,19,20
 347 540 347 540 391.5 503.5 c 128,-1,21
 436 467 436 467 425 400 c 0,22,23
 419 366 419 366 402 340 c 128,-1,24
 385 314 385 314 356 296 c 128,-1,25
 327 278 327 278 303 268.5 c 128,-1,26
 279 259 279 259 242 248 c 0,27,28
 147 218 147 218 121 203 c 0,29,30
 66 172 66 172 58 123 c 0,31,32
 50 76 50 76 84 48 c 128,-1,33
 118 20 118 20 184 20 c 0,34,35
 233 20 233 20 278.5 44.5 c 128,-1,36
 324 69 324 69 357 112 c 1,37,-1
 386 92 l 1,38,39
 307 -18 307 -18 178 -18 c 0,40,41
 88 -18 88 -18 46 23 c 128,-1,42
 4 64 4 64 14 123 c 0,0,1
EndSplineSet
EndChar

StartChar: uni01A9
Encoding: 425 425 363
Width: 590
GlyphClass: 2
Flags: W
LayerCount: 2
Fore
SplineSet
39 0 m 1,0,-1
 45 35 l 1,1,-1
 377 368 l 1,2,-1
 155 700 l 1,3,-1
 161 735 l 1,4,-1
 587 735 l 1,5,-1
 581 694 l 1,6,-1
 216 694 l 1,7,-1
 431 368 l 1,8,-1
 108 41 l 1,9,-1
 478 41 l 1,10,-1
 472 0 l 1,11,-1
 39 0 l 1,0,-1
EndSplineSet
EndChar

StartChar: uni01AA
Encoding: 426 426 364
Width: 408
GlyphClass: 2
Flags: W
LayerCount: 2
Fore
SplineSet
64 621 m 0,0,1
 57 579 57 579 81 554 c 128,-1,2
 105 529 105 529 146 529 c 0,3,4
 213 529 213 529 264 570 c 1,5,6
 268 594 268 594 267.5 616.5 c 128,-1,7
 267 639 267 639 260 662.5 c 128,-1,8
 253 686 253 686 232.5 700.5 c 128,-1,9
 212 715 212 715 179 715 c 0,10,11
 137 715 137 715 104 689.5 c 128,-1,12
 71 664 71 664 64 621 c 0,0,1
21 619 m 0,13,14
 31 682 31 682 78 718 c 128,-1,15
 125 754 125 754 184 754 c 0,16,17
 261 754 261 754 291 702 c 128,-1,18
 321 650 321 650 306 565 c 2,19,-1
 198 -91 l 2,20,21
 189 -147 189 -147 205 -175 c 128,-1,22
 221 -203 221 -203 271 -203 c 0,23,24
 276 -203 276 -203 315 -200 c 1,25,-1
 308 -240 l 1,26,-1
 290 -242 l 2,27,28
 272 -244 272 -244 258 -244 c 0,29,30
 128 -244 128 -244 154 -92 c 2,31,-1
 256 526 l 1,32,33
 208 490 208 490 135 490 c 0,34,35
 78 490 78 490 45 526 c 128,-1,36
 12 562 12 562 21 619 c 0,13,14
EndSplineSet
EndChar

StartChar: uni01AB
Encoding: 427 427 365
Width: 352
GlyphClass: 2
Flags: W
LayerCount: 2
Fore
SplineSet
58 483 m 1,0,-1
 64 523 l 1,1,-1
 157 523 l 1,2,-1
 186 699 l 1,3,-1
 231 699 l 1,4,-1
 201 523 l 1,5,-1
 328 523 l 1,6,-1
 321 483 l 1,7,-1
 195 483 l 1,8,-1
 139 144 l 2,9,10
 130 89 130 89 146 64.5 c 128,-1,11
 162 40 162 40 209 40 c 0,12,13
 265 40 265 40 285 44 c 1,14,-1
 270 -47 l 2,15,16
 253 -149 253 -149 211.5 -196.5 c 128,-1,17
 170 -244 170 -244 100 -244 c 0,18,19
 80 -244 80 -244 60 -240 c 1,20,-1
 67 -200 l 1,21,22
 99 -203 99 -203 104 -203 c 0,23,24
 156 -203 156 -203 184.5 -170 c 128,-1,25
 213 -137 213 -137 227 -51 c 2,26,-1
 235 0 l 1,27,28
 227 0 227 0 219 0 c 0,29,30
 202 0 202 0 182 1 c 0,31,32
 126 5 126 5 104 37.5 c 128,-1,33
 82 70 82 70 93 137 c 2,34,-1
 151 483 l 1,35,-1
 58 483 l 1,0,-1
EndSplineSet
EndChar

StartChar: uni01AC
Encoding: 428 428 366
Width: 551
GlyphClass: 2
Flags: W
LayerCount: 2
Fore
SplineSet
46 620 m 0,0,1
 65 735 65 735 230 735 c 2,2,-1
 610 735 l 1,3,-1
 603 694 l 1,4,-1
 376 694 l 1,5,-1
 261 0 l 1,6,-1
 214 0 l 1,7,-1
 329 694 l 1,8,-1
 225 694 l 2,9,10
 162 694 162 694 129 676.5 c 128,-1,11
 96 659 96 659 89 617 c 0,12,13
 89 615 89 615 88 590 c 1,14,-1
 45 590 l 1,15,16
 46 619 46 619 46 620 c 0,0,1
EndSplineSet
EndChar

StartChar: uni01AD
Encoding: 429 429 367
Width: 329
GlyphClass: 2
Flags: W
LayerCount: 2
Fore
SplineSet
58 483 m 1,0,-1
 64 523 l 1,1,-1
 157 523 l 1,2,-1
 172 611 l 2,3,4
 184 682 184 682 230 722.5 c 128,-1,5
 276 763 276 763 345 763 c 0,6,7
 359 763 359 763 376.5 760.5 c 128,-1,8
 394 758 394 758 398 758 c 1,9,-1
 392 719 l 1,10,11
 368 722 368 722 344 722 c 0,12,13
 294 722 294 722 259.5 693 c 128,-1,14
 225 664 225 664 215 607 c 2,15,-1
 201 523 l 1,16,-1
 328 523 l 1,17,-1
 321 483 l 1,18,-1
 195 483 l 1,19,-1
 139 144 l 2,20,21
 130 89 130 89 146 64.5 c 128,-1,22
 162 40 162 40 209 40 c 2,23,-1
 249 40 l 1,24,-1
 242 0 l 1,25,-1
 198 0 l 2,26,27
 71 0 71 0 93 137 c 2,28,-1
 151 483 l 1,29,-1
 58 483 l 1,0,-1
EndSplineSet
EndChar

StartChar: uni01AE
Encoding: 430 430 368
Width: 532
GlyphClass: 2
Flags: W
LayerCount: 2
Fore
SplineSet
85 694 m 1,0,-1
 92 735 l 1,1,-1
 593 735 l 1,2,-1
 586 694 l 1,3,-1
 358 694 l 1,4,-1
 228 -89 l 2,5,6
 218 -150 218 -150 233.5 -176.5 c 128,-1,7
 249 -203 249 -203 301 -203 c 0,8,9
 322 -203 322 -203 348 -199 c 1,10,-1
 341 -240 l 1,11,12
 313 -244 313 -244 289 -244 c 0,13,14
 222 -244 222 -244 194.5 -208.5 c 128,-1,15
 167 -173 167 -173 181 -88 c 2,16,-1
 311 694 l 1,17,-1
 85 694 l 1,0,-1
EndSplineSet
EndChar

StartChar: uni01B1
Encoding: 433 433 371
Width: 734
GlyphClass: 2
Flags: W
LayerCount: 2
Fore
SplineSet
57 301 m 0,0,1
 93 517 93 517 323 598 c 1,2,-1
 339 694 l 1,3,-1
 127 694 l 1,4,-1
 134 735 l 1,5,-1
 385 735 l 1,6,-1
 358 571 l 1,7,8
 251 540 251 540 186 468.5 c 128,-1,9
 121 397 121 397 105 301 c 0,10,11
 85 178 85 178 145.5 100.5 c 128,-1,12
 206 23 206 23 325 23 c 256,13,14
 444 23 444 23 529.5 101 c 128,-1,15
 615 179 615 179 636 301 c 0,16,17
 652 396 652 396 611 468 c 128,-1,18
 570 540 570 540 474 571 c 1,19,-1
 501 735 l 1,20,-1
 751 735 l 1,21,-1
 744 694 l 1,22,-1
 532 694 l 1,23,-1
 516 598 l 1,24,25
 720 519 720 519 684 301 c 0,26,27
 661 165 661 165 563.5 73.5 c 128,-1,28
 466 -18 466 -18 318 -18 c 0,29,30
 171 -18 171 -18 102.5 73 c 128,-1,31
 34 164 34 164 57 301 c 0,0,1
EndSplineSet
EndChar

StartChar: uni01B2
Encoding: 434 434 372
Width: 699
GlyphClass: 2
Flags: W
LayerCount: 2
Fore
SplineSet
101 238 m 2,0,-1
 183 735 l 1,1,-1
 229 735 l 1,2,-1
 147 238 l 2,3,4
 111 22 111 22 304 22 c 0,5,6
 416 22 416 22 503 130.5 c 128,-1,7
 590 239 590 239 619 413 c 0,8,9
 642 554 642 554 613.5 633.5 c 128,-1,10
 585 713 585 713 512 713 c 0,11,12
 483 713 483 713 455 707 c 1,13,-1
 462 749 l 1,14,15
 505 754 505 754 525 754 c 0,16,17
 612 754 612 754 654 671 c 128,-1,18
 696 588 696 588 667 415 c 0,19,20
 635 223 635 223 536 102.5 c 128,-1,21
 437 -18 437 -18 297 -18 c 0,22,23
 177 -18 177 -18 128 43 c 128,-1,24
 79 104 79 104 101 238 c 2,0,-1
EndSplineSet
EndChar

StartChar: uni01B3
Encoding: 435 435 373
Width: 561
GlyphClass: 2
Flags: W
LayerCount: 2
Fore
SplineSet
72 735 m 1,0,-1
 128 735 l 1,1,-1
 244 454 l 2,2,3
 264 409 264 409 288 347 c 1,4,-1
 290 347 l 1,5,6
 297 355 297 355 370 454 c 2,7,-1
 540 686 l 2,8,9
 590 754 590 754 662 754 c 0,10,11
 682 754 682 754 697 752 c 1,12,-1
 690 711 l 1,13,14
 660 714 660 714 659 714 c 0,15,16
 614 714 614 714 577 664 c 2,17,-1
 306 303 l 1,18,-1
 256 0 l 1,19,-1
 209 0 l 1,20,-1
 259 303 l 1,21,-1
 72 735 l 1,0,-1
EndSplineSet
EndChar

StartChar: uni01B4
Encoding: 436 436 374
Width: 453
GlyphClass: 2
Flags: W
LayerCount: 2
Fore
SplineSet
50 523 m 1,0,-1
 101 523 l 1,1,-1
 164 167 l 2,2,3
 172 115 172 115 186 37 c 1,4,-1
 188 37 l 1,5,6
 216 94 216 94 253 169 c 2,7,-1
 403 470 l 2,8,9
 437 538 437 538 511 538 c 0,10,11
 515 538 515 538 547 535 c 1,12,-1
 540 495 l 1,13,14
 527 498 527 498 513 498 c 0,15,16
 488 498 488 498 469.5 483.5 c 128,-1,17
 451 469 451 469 443 453 c 2,18,-1
 163 -93 l 2,19,20
 123 -171 123 -171 85 -205.5 c 128,-1,21
 47 -240 47 -240 4 -240 c 2,22,-1
 -24 -240 l 1,23,-1
 -18 -200 l 1,24,-1
 2 -200 l 2,25,26
 71 -200 71 -200 129 -74 c 2,27,-1
 155 -21 l 1,28,-1
 50 523 l 1,0,-1
EndSplineSet
EndChar

StartChar: uni01B5
Encoding: 437 437 375
Width: 599
GlyphClass: 2
Flags: W
LayerCount: 2
Fore
SplineSet
121 346 m 1,0,-1
 127 383 l 1,1,-1
 297 383 l 1,2,-1
 550 694 l 1,3,-1
 154 694 l 1,4,-1
 161 735 l 1,5,-1
 614 735 l 1,6,-1
 607 698 l 1,7,-1
 349 383 l 1,8,-1
 503 383 l 1,9,-1
 497 346 l 1,10,-1
 318 346 l 1,11,-1
 67 41 l 1,12,-1
 509 41 l 1,13,-1
 503 0 l 1,14,-1
 6 0 l 1,15,-1
 12 37 l 1,16,-1
 265 346 l 1,17,-1
 121 346 l 1,0,-1
EndSplineSet
EndChar

StartChar: uni01B6
Encoding: 438 438 376
Width: 448
GlyphClass: 2
Flags: W
LayerCount: 2
Fore
SplineSet
-11 0 m 1,0,-1
 -5 33 l 1,1,-1
 180 249 l 1,2,-1
 69 249 l 1,3,-1
 75 286 l 1,4,-1
 211 286 l 1,5,-1
 381 483 l 1,6,-1
 94 483 l 1,7,-1
 101 523 l 1,8,-1
 442 523 l 1,9,-1
 436 491 l 1,10,-1
 262 286 l 1,11,-1
 376 286 l 1,12,-1
 370 249 l 1,13,-1
 229 249 l 1,14,-1
 51 39 l 1,15,-1
 372 39 l 1,16,-1
 366 0 l 1,17,-1
 -11 0 l 1,0,-1
EndSplineSet
EndChar

StartChar: uni01B7
Encoding: 439 439 377
Width: 663
GlyphClass: 2
Flags: W
LayerCount: 2
Fore
SplineSet
-9 -91 m 1,0,-1
 33 -71 l 1,1,2
 51 -127 51 -127 101 -162.5 c 128,-1,3
 151 -198 151 -198 222 -198 c 0,4,5
 346 -198 346 -198 426 -125 c 128,-1,6
 506 -52 506 -52 526 69 c 0,7,8
 545 183 545 183 481.5 250 c 128,-1,9
 418 317 418 317 266 317 c 2,10,-1
 211 317 l 1,11,-1
 218 360 l 1,12,-1
 560 694 l 1,13,-1
 140 694 l 1,14,-1
 147 735 l 1,15,-1
 636 735 l 1,16,-1
 632 708 l 1,17,-1
 271 356 l 1,18,-1
 295 356 l 1,19,20
 450 352 450 352 522.5 276 c 128,-1,21
 595 200 595 200 573 70 c 0,22,23
 549 -73 549 -73 451.5 -156 c 128,-1,24
 354 -239 354 -239 216 -239 c 0,25,26
 128 -239 128 -239 70.5 -196.5 c 128,-1,27
 13 -154 13 -154 -9 -91 c 1,0,-1
EndSplineSet
EndChar

StartChar: uni01B8
Encoding: 440 440 378
Width: 663
GlyphClass: 2
Flags: W
LayerCount: 2
Fore
SplineSet
21 70 m 0,0,1
 43 200 43 200 143.5 278 c 128,-1,2
 244 356 244 356 393 356 c 2,3,-1
 418 356 l 1,4,-1
 175 708 l 1,5,-1
 179 735 l 1,6,-1
 667 735 l 1,7,-1
 660 694 l 1,8,-1
 241 694 l 1,9,-1
 472 360 l 1,10,-1
 465 317 l 1,11,-1
 410 317 l 2,12,13
 258 317 258 317 173 250 c 128,-1,14
 88 183 88 183 69 69 c 0,15,16
 49 -52 49 -52 104 -125 c 128,-1,17
 159 -198 159 -198 283 -198 c 0,18,19
 355 -198 355 -198 416 -162.5 c 128,-1,20
 477 -127 477 -127 514 -71 c 1,21,-1
 550 -91 l 1,22,23
 507 -154 507 -154 435.5 -196.5 c 128,-1,24
 364 -239 364 -239 276 -239 c 0,25,26
 138 -239 138 -239 67.5 -156 c 128,-1,27
 -3 -73 -3 -73 21 70 c 0,0,1
EndSplineSet
EndChar

StartChar: uni01B9
Encoding: 441 441 379
Width: 504
GlyphClass: 2
Flags: W
LayerCount: 2
Fore
SplineSet
4 -11 m 0,0,1
 21 94 21 94 98.5 153.5 c 128,-1,2
 176 213 176 213 282 213 c 2,3,-1
 317 213 l 1,4,-1
 112 491 l 1,5,-1
 117 523 l 1,6,-1
 477 523 l 1,7,-1
 470 483 l 1,8,-1
 171 483 l 1,9,-1
 371 210 l 1,10,-1
 365 178 l 1,11,-1
 293 178 l 2,12,13
 191 178 191 178 127 127 c 128,-1,14
 63 76 63 76 49 -11 c 0,15,16
 35 -95 35 -95 71 -149.5 c 128,-1,17
 107 -204 107 -204 185 -204 c 0,18,19
 290 -204 290 -204 361 -104 c 1,20,-1
 395 -119 l 1,21,22
 314 -244 314 -244 178 -244 c 0,23,24
 83 -244 83 -244 35 -179.5 c 128,-1,25
 -13 -115 -13 -115 4 -11 c 0,0,1
EndSplineSet
EndChar

StartChar: uni01BA
Encoding: 442 442 380
Width: 436
GlyphClass: 2
Flags: W
LayerCount: 2
Fore
SplineSet
-12 -106 m 0,0,1
 -5 -66 -5 -66 27 -35.5 c 128,-1,2
 59 -5 59 -5 101.5 14.5 c 128,-1,3
 144 34 144 34 186 53 c 128,-1,4
 228 72 228 72 260 100 c 128,-1,5
 292 128 292 128 298 164 c 0,6,7
 312 249 312 249 161 249 c 2,8,-1
 127 249 l 1,9,-1
 132 279 l 1,10,-1
 356 483 l 1,11,-1
 90 483 l 1,12,-1
 96 523 l 1,13,-1
 418 523 l 1,14,-1
 413 491 l 1,15,-1
 181 279 l 1,16,-1
 200 278 l 2,17,18
 281 277 281 277 316 247 c 128,-1,19
 351 217 351 217 343 165 c 0,20,21
 336 123 336 123 303.5 90.5 c 128,-1,22
 271 58 271 58 228.5 37 c 128,-1,23
 186 16 186 16 143.5 -2.5 c 128,-1,24
 101 -21 101 -21 70 -46.5 c 128,-1,25
 39 -72 39 -72 34 -103 c 0,26,27
 28 -140 28 -140 49.5 -161 c 128,-1,28
 71 -182 71 -182 117 -182 c 0,29,30
 149 -182 149 -182 204 -174 c 1,31,-1
 198 -213 l 1,32,33
 152 -221 152 -221 106 -221 c 0,34,35
 43 -221 43 -221 11 -191 c 128,-1,36
 -21 -161 -21 -161 -12 -106 c 0,0,1
EndSplineSet
EndChar

StartChar: uni01BB
Encoding: 443 443 381
Width: 540
GlyphClass: 2
Flags: W
LayerCount: 2
Fore
SplineSet
125 340 m 1,0,-1
 131 379 l 1,1,-1
 353 379 l 1,2,3
 451 468 451 468 465 557 c 0,4,5
 478 633 478 633 442 673.5 c 128,-1,6
 406 714 406 714 335 714 c 0,7,8
 273 714 273 714 224 675.5 c 128,-1,9
 175 637 175 637 144 569 c 1,10,-1
 104 580 l 1,11,12
 138 659 138 659 200 706.5 c 128,-1,13
 262 754 262 754 344 754 c 0,14,15
 434 754 434 754 481.5 702 c 128,-1,16
 529 650 529 650 513 556 c 0,17,18
 498 466 498 466 409 379 c 1,19,-1
 515 379 l 1,20,-1
 509 340 l 1,21,-1
 370 340 l 1,22,23
 355 327 355 327 321 298.5 c 128,-1,24
 287 270 287 270 273.5 259 c 128,-1,25
 260 248 260 248 233 224.5 c 128,-1,26
 206 201 206 201 194.5 190 c 128,-1,27
 183 179 183 179 163 160 c 128,-1,28
 143 141 143 141 133 128.5 c 128,-1,29
 123 116 123 116 110 100 c 128,-1,30
 97 84 97 84 88 69.5 c 128,-1,31
 79 55 79 55 73 40 c 1,32,-1
 427 40 l 1,33,-1
 420 0 l 1,34,-1
 11 0 l 1,35,36
 22 67 22 67 93.5 143.5 c 128,-1,37
 165 220 165 220 309 340 c 1,38,-1
 125 340 l 1,0,-1
EndSplineSet
EndChar

StartChar: uni01BC
Encoding: 444 444 382
Width: 521
GlyphClass: 2
Flags: W
LayerCount: 2
Fore
SplineSet
18 104 m 1,0,-1
 59 121 l 1,1,2
 89 21 89 21 205 21 c 0,3,4
 282 21 282 21 336 71.5 c 128,-1,5
 390 122 390 122 404 206 c 0,6,7
 417 284 417 284 371 340 c 128,-1,8
 325 396 325 396 210 396 c 0,9,10
 168 396 168 396 117 388 c 1,11,-1
 202 694 l 1,12,-1
 149 694 l 1,13,-1
 156 735 l 1,14,-1
 501 735 l 1,15,-1
 494 694 l 1,16,-1
 245 694 l 1,17,-1
 175 433 l 1,18,19
 208 435 208 435 234 435 c 0,20,21
 354 435 354 435 411 370 c 128,-1,22
 468 305 468 305 452 206 c 0,23,24
 435 103 435 103 366.5 42.5 c 128,-1,25
 298 -18 298 -18 198 -18 c 0,26,27
 53 -18 53 -18 18 104 c 1,0,-1
EndSplineSet
EndChar

StartChar: uni01BD
Encoding: 445 445 383
Width: 423
GlyphClass: 2
Flags: W
LayerCount: 2
Fore
SplineSet
15 72 m 1,0,-1
 52 92 l 1,1,2
 65 60 65 60 92.5 40 c 128,-1,3
 120 20 120 20 156 20 c 0,4,5
 218 20 218 20 255.5 54.5 c 128,-1,6
 293 89 293 89 302 142 c 0,7,8
 312 202 312 202 272.5 241 c 128,-1,9
 233 280 233 280 161 280 c 0,10,11
 117 280 117 280 96 277 c 1,12,-1
 161 483 l 1,13,-1
 113 483 l 1,14,-1
 120 523 l 1,15,-1
 385 523 l 1,16,-1
 378 483 l 1,17,-1
 199 483 l 1,18,-1
 148 319 l 1,19,-1
 174 319 l 2,20,21
 265 319 265 319 311 268.5 c 128,-1,22
 357 218 357 218 345 143 c 0,23,24
 333 70 333 70 282.5 26 c 128,-1,25
 232 -18 232 -18 149 -18 c 0,26,27
 51 -18 51 -18 15 72 c 1,0,-1
EndSplineSet
EndChar

StartChar: uni01BE
Encoding: 446 446 384
Width: 410
GlyphClass: 2
Flags: W
LayerCount: 2
Fore
SplineSet
78 483 m 1,0,-1
 85 523 l 1,1,-1
 157 523 l 1,2,-1
 185 691 l 1,3,-1
 228 691 l 1,4,-1
 201 523 l 1,5,-1
 335 523 l 1,6,-1
 329 483 l 1,7,-1
 194 483 l 1,8,-1
 179 391 l 2,9,10
 173 354 173 354 187 323 c 128,-1,11
 201 292 201 292 225 271 c 128,-1,12
 249 250 249 250 273 229 c 128,-1,13
 297 208 297 208 311.5 179 c 128,-1,14
 326 150 326 150 320 114 c 0,15,16
 310 53 310 53 267 17.5 c 128,-1,17
 224 -18 224 -18 147 -18 c 0,18,19
 51 -18 51 -18 12 70 c 1,20,-1
 47 91 l 1,21,22
 85 20 85 20 152 20 c 0,23,24
 262 20 262 20 277 114 c 0,25,26
 282 142 282 142 266.5 166 c 128,-1,27
 251 190 251 190 226.5 209.5 c 128,-1,28
 202 229 202 229 178.5 251.5 c 128,-1,29
 155 274 155 274 141 308.5 c 128,-1,30
 127 343 127 343 134 384 c 2,31,-1
 151 483 l 1,32,-1
 78 483 l 1,0,-1
EndSplineSet
EndChar

StartChar: uni01BF
Encoding: 447 447 385
Width: 547
GlyphClass: 2
Flags: W
LayerCount: 2
Fore
SplineSet
2 -240 m 1,0,-1
 128 523 l 1,1,-1
 172 523 l 1,2,-1
 164 476 l 1,3,4
 252 540 252 540 339 540 c 0,5,6
 433 540 433 540 478 482.5 c 128,-1,7
 523 425 523 425 506 325 c 0,8,9
 460 49 460 49 85 0 c 1,10,-1
 46 -240 l 1,11,-1
 2 -240 l 1,0,-1
92 39 m 1,12,13
 425 87 425 87 463 321 c 0,14,15
 478 410 478 410 438.5 456 c 128,-1,16
 399 502 399 502 327 502 c 0,17,18
 245 502 245 502 156 429 c 1,19,-1
 92 39 l 1,12,13
EndSplineSet
EndChar

StartChar: uni01C0
Encoding: 448 448 386
Width: 199
GlyphClass: 2
Flags: W
LayerCount: 2
Fore
SplineSet
-4 -222 m 1,0,-1
 169 822 l 1,1,-1
 212 822 l 1,2,-1
 39 -222 l 1,3,-1
 -4 -222 l 1,0,-1
EndSplineSet
EndChar

StartChar: uni01C1
Encoding: 449 449 387
Width: 346
GlyphClass: 2
Flags: W
LayerCount: 2
Fore
SplineSet
-4 -222 m 1,0,-1
 169 822 l 1,1,-1
 212 822 l 1,2,-1
 39 -222 l 1,3,-1
 -4 -222 l 1,0,-1
142 -222 m 1,4,-1
 315 822 l 1,5,-1
 357 822 l 1,6,-1
 184 -222 l 1,7,-1
 142 -222 l 1,4,-1
EndSplineSet
EndChar

StartChar: uni01C2
Encoding: 450 450 388
Width: 290
GlyphClass: 2
Flags: W
LayerCount: 2
Fore
SplineSet
43 430 m 1,0,-1
 49 465 l 1,1,-1
 155 465 l 1,2,-1
 214 822 l 1,3,-1
 256 822 l 1,4,-1
 197 465 l 1,5,-1
 301 465 l 1,6,-1
 295 430 l 1,7,-1
 191 430 l 1,8,-1
 160 243 l 1,9,-1
 264 243 l 1,10,-1
 258 208 l 1,11,-1
 155 208 l 1,12,-1
 83 -223 l 1,13,-1
 41 -223 l 1,14,-1
 112 208 l 1,15,-1
 7 208 l 1,16,-1
 12 243 l 1,17,-1
 118 243 l 1,18,-1
 149 430 l 1,19,-1
 43 430 l 1,0,-1
EndSplineSet
EndChar

StartChar: uni01DD
Encoding: 477 477 415
Width: 524
GlyphClass: 2
Flags: W
LayerCount: 2
Fore
SplineSet
39 243 m 0,0,1
 40 248 40 248 42 259 c 128,-1,2
 44 270 44 270 45 275 c 1,3,-1
 431 275 l 1,4,5
 447 369 447 369 411 435.5 c 128,-1,6
 375 502 375 502 291 502 c 0,7,8
 236 502 236 502 189.5 473 c 128,-1,9
 143 444 143 444 115 403 c 1,10,-1
 81 417 l 1,11,12
 162 540 162 540 298 540 c 0,13,14
 402 540 402 540 447 461 c 128,-1,15
 492 382 492 382 472 258 c 0,16,17
 452 137 452 137 379 59.5 c 128,-1,18
 306 -18 306 -18 209 -18 c 256,19,20
 111 -18 111 -18 66 58 c 128,-1,21
 21 134 21 134 39 243 c 0,0,1
82 239 m 1,22,23
 67 149 67 149 103 84.5 c 128,-1,24
 139 20 139 20 215 20 c 0,25,26
 294 20 294 20 351 85 c 128,-1,27
 408 150 408 150 425 239 c 1,28,-1
 82 239 l 1,22,23
EndSplineSet
EndChar

StartChar: uni01E4
Encoding: 484 484 422
Width: 702
GlyphClass: 2
Flags: W
LayerCount: 2
Fore
SplineSet
69 368 m 0,0,1
 97 540 97 540 194 647 c 128,-1,2
 291 754 291 754 437 754 c 0,3,4
 521 754 521 754 571.5 711 c 128,-1,5
 622 668 622 668 640 611 c 1,6,-1
 598 595 l 1,7,8
 552 713 552 713 430 713 c 256,9,10
 308 713 308 713 225 618 c 128,-1,11
 142 523 142 523 117 368 c 0,12,13
 91 210 91 210 143 116 c 128,-1,14
 195 22 195 22 314 22 c 0,15,16
 395 22 395 22 455 68 c 128,-1,17
 515 114 515 114 546 190 c 1,18,-1
 345 190 l 1,19,-1
 350 224 l 1,20,-1
 558 224 l 1,21,22
 566 249 566 249 571 278 c 2,23,-1
 582 344 l 1,24,-1
 359 344 l 1,25,-1
 365 384 l 1,26,-1
 634 384 l 1,27,-1
 607 224 l 1,28,-1
 694 224 l 1,29,-1
 689 190 l 1,30,-1
 602 190 l 1,31,-1
 570 0 l 1,32,-1
 533 0 l 1,33,-1
 554 137 l 1,34,35
 521 69 521 69 459.5 25.5 c 128,-1,36
 398 -18 398 -18 307 -18 c 0,37,38
 166 -18 166 -18 103 87 c 128,-1,39
 40 192 40 192 69 368 c 0,0,1
EndSplineSet
EndChar

StartChar: uni01E5
Encoding: 485 485 423
Width: 546
GlyphClass: 2
Flags: W
LayerCount: 2
Fore
SplineSet
46 273 m 256,0,1
 66 391 66 391 133.5 465.5 c 128,-1,2
 201 540 201 540 293 540 c 0,3,4
 357 540 357 540 390.5 501.5 c 128,-1,5
 424 463 424 463 433 412 c 1,6,-1
 451 523 l 1,7,-1
 494 523 l 1,8,-1
 416 51 l 2,9,10
 404 -20 404 -20 390 -62 c 1,11,-1
 469 -62 l 1,12,-1
 463 -94 l 1,13,-1
 378 -94 l 1,14,15
 346 -168 346 -168 296 -206 c 128,-1,16
 246 -244 246 -244 167 -244 c 0,17,18
 113 -244 113 -244 71.5 -220.5 c 128,-1,19
 30 -197 30 -197 8 -156 c 1,20,-1
 43 -134 l 1,21,22
 89 -205 89 -205 175 -205 c 0,23,24
 280 -205 280 -205 332 -94 c 1,25,-1
 134 -94 l 1,26,-1
 140 -62 l 1,27,-1
 347 -62 l 1,28,29
 361 -24 361 -24 372 46 c 2,30,-1
 387 137 l 1,31,32
 359 82 359 82 312.5 46 c 128,-1,33
 266 10 266 10 204 10 c 0,34,35
 113 10 113 10 69.5 82.5 c 128,-1,36
 26 155 26 155 46 273 c 256,0,1
90 272 m 0,37,38
 73 171 73 171 108.5 110.5 c 128,-1,39
 144 50 144 50 212 50 c 0,40,41
 286 50 286 50 339.5 111 c 128,-1,42
 393 172 393 172 410 278 c 0,43,44
 426 377 426 377 392.5 439.5 c 128,-1,45
 359 502 359 502 290 502 c 0,46,47
 216 502 216 502 161.5 437 c 128,-1,48
 107 372 107 372 90 272 c 0,37,38
EndSplineSet
EndChar

StartChar: uni01EF
Encoding: 495 495 433
Width: 504
GlyphClass: 2
Flags: W
LayerCount: 2
Fore
SplineSet
149 789 m 1,0,-1
 199 789 l 1,1,-1
 302 665 l 1,2,-1
 446 789 l 1,3,-1
 494 789 l 1,4,-1
 317 632 l 1,5,-1
 274 632 l 1,6,-1
 149 789 l 1,0,-1
-23 -119 m 1,7,-1
 17 -104 l 1,8,9
 55 -204 55 -204 159 -204 c 0,10,11
 237 -204 237 -204 291 -149.5 c 128,-1,12
 345 -95 345 -95 359 -9 c 0,13,14
 373 76 373 76 326 127 c 128,-1,15
 279 178 279 178 178 178 c 2,16,-1
 106 178 l 1,17,-1
 111 210 l 1,18,-1
 401 483 l 1,19,-1
 101 483 l 1,20,-1
 108 523 l 1,21,-1
 469 523 l 1,22,-1
 463 491 l 1,23,-1
 167 214 l 1,24,-1
 209 213 l 2,25,26
 313 208 313 208 366.5 149.5 c 128,-1,27
 420 91 420 91 403 -9 c 0,28,29
 385 -115 385 -115 316.5 -179.5 c 128,-1,30
 248 -244 248 -244 153 -244 c 0,31,32
 17 -244 17 -244 -23 -119 c 1,7,-1
EndSplineSet
EndChar

StartChar: uni01F6
Encoding: 502 502 440
Width: 1006
GlyphClass: 2
Flags: W
LayerCount: 2
Fore
SplineSet
61 0 m 1,0,-1
 183 735 l 1,1,-1
 229 735 l 1,2,-1
 174 400 l 1,3,-1
 551 400 l 1,4,-1
 606 735 l 1,5,-1
 653 735 l 1,6,-1
 562 181 l 2,7,8
 548 98 548 98 585.5 59 c 128,-1,9
 623 20 623 20 689 20 c 0,10,11
 753 20 753 20 802 62.5 c 128,-1,12
 851 105 851 105 863 179 c 2,13,-1
 920 523 l 1,14,-1
 967 523 l 1,15,-1
 909 173 l 2,16,17
 894 82 894 82 830.5 32 c 128,-1,18
 767 -18 767 -18 684 -18 c 0,19,20
 597 -18 597 -18 547 28 c 128,-1,21
 497 74 497 74 513 173 c 2,22,-1
 544 359 l 1,23,-1
 167 359 l 1,24,-1
 107 0 l 1,25,-1
 61 0 l 1,0,-1
EndSplineSet
EndChar

StartChar: uni01F7
Encoding: 503 503 441
Width: 628
GlyphClass: 2
Flags: W
LayerCount: 2
Fore
SplineSet
23 -234 m 1,0,-1
 183 735 l 1,1,-1
 230 735 l 1,2,-1
 215 646 l 1,3,4
 337 754 337 754 448 754 c 0,5,6
 547 754 547 754 589.5 684.5 c 128,-1,7
 632 615 632 615 612 495 c 0,8,9
 599 417 599 417 556.5 345.5 c 128,-1,10
 514 274 514 274 464 224 c 128,-1,11
 414 174 414 174 343.5 127.5 c 128,-1,12
 273 81 273 81 221.5 55 c 128,-1,13
 170 29 170 29 109 2 c 1,14,-1
 70 -234 l 1,15,-1
 23 -234 l 1,0,-1
116 46 m 1,16,17
 169 70 169 70 211.5 92 c 128,-1,18
 254 114 254 114 318.5 158 c 128,-1,19
 383 202 383 202 428.5 247 c 128,-1,20
 474 292 474 292 513.5 357.5 c 128,-1,21
 553 423 553 423 564 493 c 0,22,23
 580 591 580 591 548 652.5 c 128,-1,24
 516 714 516 714 431 714 c 0,25,26
 376 714 376 714 311 675.5 c 128,-1,27
 246 637 246 637 206 592 c 1,28,-1
 116 46 l 1,16,17
EndSplineSet
EndChar

StartChar: Aringacute
Encoding: 506 506 444
Width: 613
GlyphClass: 2
Flags: W
LayerCount: 2
Fore
SplineSet
-46 0 m 1,0,-1
 352 735 l 1,1,-1
 412 735 l 1,2,-1
 567 0 l 1,3,-1
 514 0 l 1,4,-1
 468 232 l 1,5,-1
 130 232 l 1,6,-1
 6 0 l 1,7,-1
 -46 0 l 1,0,-1
150 271 m 1,8,-1
 460 271 l 1,9,-1
 400 573 l 2,10,11
 382 662 382 662 377 691 c 1,12,-1
 373 691 l 1,13,14
 367 680 367 680 311 573 c 2,15,-1
 150 271 l 1,8,-1
279 894 m 0,16,17
 287 943 287 943 330 979 c 0,18,19
 362 1007 362 1007 402 1013 c 1,20,-1
 491 1127 l 1,21,-1
 560 1127 l 1,22,-1
 449 1013 l 1,23,24
 486 1007 486 1007 509 980 c 0,25,26
 538 944 538 944 530 894 c 256,27,28
 522 844 522 844 481 808.5 c 128,-1,29
 440 773 440 773 386 773 c 0,30,31
 333 773 333 773 302 808.5 c 128,-1,32
 271 844 271 844 279 894 c 0,16,17
317 894 m 0,33,34
 311 856 311 856 331.5 830.5 c 128,-1,35
 352 805 352 805 391 805 c 256,36,37
 430 805 430 805 458.5 830 c 128,-1,38
 487 855 487 855 494 894 c 0,39,40
 500 931 500 931 480.5 957 c 128,-1,41
 461 983 461 983 420 983 c 256,42,43
 380 983 380 983 351.5 957 c 128,-1,44
 323 931 323 931 317 894 c 0,33,34
EndSplineSet
EndChar

StartChar: aringacute
Encoding: 507 507 445
Width: 524
GlyphClass: 2
Flags: W
LayerCount: 2
Fore
SplineSet
18 122 m 0,0,1
 30 193 30 193 86 237 c 128,-1,2
 142 281 142 281 253.5 298.5 c 128,-1,3
 365 316 365 316 413 335 c 1,4,-1
 417 363 l 2,5,6
 427 424 427 424 395 463.5 c 128,-1,7
 363 503 363 503 292 503 c 0,8,9
 246 503 246 503 199.5 480 c 128,-1,10
 153 457 153 457 117 417 c 1,11,-1
 91 440 l 1,12,13
 130 484 130 484 184.5 512 c 128,-1,14
 239 540 239 540 297 540 c 0,15,16
 395 540 395 540 434 488 c 128,-1,17
 473 436 473 436 459 351 c 2,18,-1
 401 0 l 1,19,-1
 358 0 l 1,20,-1
 376 104 l 1,21,22
 351 55 351 55 292.5 18.5 c 128,-1,23
 234 -18 234 -18 165 -18 c 0,24,25
 86 -18 86 -18 47 21.5 c 128,-1,26
 8 61 8 61 18 122 c 0,0,1
62 124 m 0,27,28
 55 82 55 82 84 51 c 128,-1,29
 113 20 113 20 175 20 c 0,30,31
 251 20 251 20 314.5 71.5 c 128,-1,32
 378 123 378 123 391 204 c 2,33,-1
 407 298 l 1,34,35
 357 280 357 280 248 263 c 0,36,37
 80 235 80 235 62 124 c 0,27,28
206 726 m 0,38,39
 214 775 214 775 255 811 c 0,40,41
 286 839 286 839 325 845 c 1,42,-1
 411 959 l 1,43,-1
 477 959 l 1,44,-1
 369 845 l 1,45,46
 405 839 405 839 428 812 c 0,47,48
 456 776 456 776 448 726 c 256,49,50
 440 676 440 676 399.5 640.5 c 128,-1,51
 359 605 359 605 307 605 c 0,52,53
 256 605 256 605 227 640.5 c 128,-1,54
 198 676 198 676 206 726 c 0,38,39
240 726 m 0,55,56
 234 688 234 688 254 662.5 c 128,-1,57
 274 637 274 637 312 637 c 256,58,59
 350 637 350 637 378 662 c 128,-1,60
 406 687 406 687 412 726 c 0,61,62
 418 763 418 763 399.5 789 c 128,-1,63
 381 815 381 815 342 815 c 256,64,65
 303 815 303 815 274.5 789 c 128,-1,66
 246 763 246 763 240 726 c 0,55,56
EndSplineSet
EndChar

StartChar: uni021C
Encoding: 540 540 478
Width: 559
GlyphClass: 2
Flags: W
LayerCount: 2
Fore
SplineSet
-24 -187 m 1,0,1
 37 -197 37 -197 100 -197 c 0,2,3
 224 -197 224 -197 313 -129.5 c 128,-1,4
 402 -62 402 -62 421 54 c 0,5,6
 431 117 431 117 419 164 c 128,-1,7
 407 211 407 211 378 235 c 128,-1,8
 349 259 349 259 316.5 270 c 128,-1,9
 284 281 284 281 245 281 c 0,10,11
 210 281 210 281 158 262 c 1,12,-1
 165 304 l 1,13,-1
 251 326 l 2,14,15
 351 353 351 353 413.5 411.5 c 128,-1,16
 476 470 476 470 489 544 c 0,17,18
 502 625 502 625 461 669 c 128,-1,19
 420 713 420 713 335 713 c 0,20,21
 222 713 222 713 148 602 c 1,22,-1
 111 621 l 1,23,24
 149 678 149 678 207.5 716 c 128,-1,25
 266 754 266 754 341 754 c 0,26,27
 456 754 456 754 504 696.5 c 128,-1,28
 552 639 552 639 537 547 c 0,29,30
 523 460 523 460 455.5 397.5 c 128,-1,31
 388 335 388 335 315 311 c 1,32,-1
 315 310 l 1,33,34
 348 304 348 304 377 288 c 128,-1,35
 406 272 406 272 432.5 243 c 128,-1,36
 459 214 459 214 469.5 165 c 128,-1,37
 480 116 480 116 469 54 c 0,38,39
 448 -75 448 -75 345.5 -157 c 128,-1,40
 243 -239 243 -239 95 -239 c 0,41,42
 30 -239 30 -239 -32 -231 c 1,43,-1
 -24 -187 l 1,0,1
EndSplineSet
EndChar

StartChar: uni021D
Encoding: 541 541 479
Width: 427
GlyphClass: 2
Flags: W
LayerCount: 2
Fore
SplineSet
-26 -197 m 1,0,1
 17 -205 17 -205 58 -205 c 0,2,3
 145 -205 145 -205 205.5 -152.5 c 128,-1,4
 266 -100 266 -100 281 -7 c 0,5,6
 294 74 294 74 258.5 118 c 128,-1,7
 223 162 223 162 165 162 c 0,8,9
 161 162 161 162 106 151 c 1,10,-1
 112 190 l 1,11,-1
 168 203 l 2,12,13
 236 220 236 220 280.5 266.5 c 128,-1,14
 325 313 325 313 334 371 c 0,15,16
 343 426 343 426 319 464 c 128,-1,17
 295 502 295 502 234 502 c 0,18,19
 202 502 202 502 169.5 483.5 c 128,-1,20
 137 465 137 465 112 431 c 1,21,-1
 80 450 l 1,22,23
 108 491 108 491 151 515.5 c 128,-1,24
 194 540 194 540 242 540 c 0,25,26
 323 540 323 540 355.5 491 c 128,-1,27
 388 442 388 442 377 375 c 0,28,29
 366 306 366 306 322.5 258.5 c 128,-1,30
 279 211 279 211 219 188 c 1,31,32
 270 177 270 177 304.5 128.5 c 128,-1,33
 339 80 339 80 324 -6 c 0,34,35
 306 -116 306 -116 233.5 -180 c 128,-1,36
 161 -244 161 -244 53 -244 c 0,37,38
 19 -244 19 -244 -33 -237 c 1,39,-1
 -26 -197 l 1,0,1
EndSplineSet
EndChar

StartChar: uni0220
Encoding: 544 544 482
Width: 704
GlyphClass: 2
Flags: W
LayerCount: 2
Fore
SplineSet
61 0 m 1,0,-1
 183 735 l 1,1,-1
 228 735 l 1,2,-1
 211 629 l 1,3,-1
 211 629 l 1,4,5
 244 674 244 674 311 714 c 128,-1,6
 378 754 378 754 459 754 c 0,7,8
 677 754 677 754 635 505 c 2,9,-1
 512 -240 l 1,10,-1
 465 -240 l 1,11,-1
 586 496 l 2,12,13
 605 609 605 609 570.5 661 c 128,-1,14
 536 713 536 713 442 713 c 0,15,16
 364 713 364 713 285 653 c 128,-1,17
 206 593 206 593 193 516 c 2,18,-1
 107 0 l 1,19,-1
 61 0 l 1,0,-1
EndSplineSet
EndChar

StartChar: uni0221
Encoding: 545 545 483
Width: 728
GlyphClass: 2
Flags: W
LayerCount: 2
Fore
SplineSet
413 -126 m 1,0,1
 418 -158 418 -158 444.5 -181 c 128,-1,2
 471 -204 471 -204 508 -204 c 0,3,4
 547 -204 547 -204 573.5 -185 c 128,-1,5
 600 -166 600 -166 605 -136 c 0,6,7
 611 -102 611 -102 591.5 -81 c 128,-1,8
 572 -60 572 -60 534 -60 c 0,9,10
 469 -60 469 -60 413 -126 c 1,0,1
45 262 m 0,11,12
 66 391 66 391 135.5 465.5 c 128,-1,13
 205 540 205 540 297 540 c 0,14,15
 358 540 358 540 395 500 c 128,-1,16
 432 460 432 460 439 403 c 1,17,-1
 499 766 l 1,18,-1
 542 766 l 1,19,-1
 417 7 l 2,20,21
 406 -57 406 -57 409 -83 c 1,22,23
 432 -57 432 -57 467 -38.5 c 128,-1,24
 502 -20 502 -20 540 -20 c 0,25,26
 601 -20 601 -20 627.5 -53.5 c 128,-1,27
 654 -87 654 -87 646 -134 c 0,28,29
 638 -182 638 -182 598.5 -213 c 128,-1,30
 559 -244 559 -244 502 -244 c 0,31,32
 416 -244 416 -244 384 -163 c 1,33,34
 371 -180 371 -180 339 -237 c 1,35,-1
 303 -223 l 1,36,37
 337 -161 337 -161 368 -123 c 1,38,39
 359 -89 359 -89 373 0 c 2,40,-1
 392 115 l 1,41,42
 365 59 365 59 314.5 20.5 c 128,-1,43
 264 -18 264 -18 202 -18 c 0,44,45
 119 -18 119 -18 70.5 52 c 128,-1,46
 22 122 22 122 45 262 c 0,11,12
89 262 m 0,47,48
 71 153 71 153 105 86.5 c 128,-1,49
 139 20 139 20 214 20 c 0,50,51
 282 20 282 20 340 84.5 c 128,-1,52
 398 149 398 149 417 262 c 0,53,54
 435 373 435 373 397.5 437.5 c 128,-1,55
 360 502 360 502 293 502 c 0,56,57
 220 502 220 502 163.5 437 c 128,-1,58
 107 372 107 372 89 262 c 0,47,48
EndSplineSet
EndChar

StartChar: uni0222
Encoding: 546 546 484
Width: 652
GlyphClass: 2
Flags: W
LayerCount: 2
Fore
SplineSet
42 231 m 0,0,1
 56 318 56 318 118 381.5 c 128,-1,2
 180 445 180 445 259 470 c 1,3,4
 197 491 197 491 164.5 543 c 128,-1,5
 132 595 132 595 145 672 c 0,6,7
 151 707 151 707 161 735 c 1,8,-1
 206 735 l 1,9,10
 205 728 205 728 202 715.5 c 128,-1,11
 199 703 199 703 196.5 693 c 128,-1,12
 194 683 194 683 193 674 c 0,13,14
 180 596 180 596 225.5 542 c 128,-1,15
 271 488 271 488 360 488 c 0,16,17
 443 488 443 488 509.5 540 c 128,-1,18
 576 592 576 592 590 674 c 0,19,20
 591 678 591 678 596 735 c 1,21,-1
 642 735 l 1,22,23
 644 711 644 711 638 672 c 0,24,25
 625 591 625 591 571.5 540 c 128,-1,26
 518 489 518 489 450 470 c 1,27,28
 524 451 524 451 566 384.5 c 128,-1,29
 608 318 608 318 594 231 c 0,30,31
 577 129 577 129 494 55.5 c 128,-1,32
 411 -18 411 -18 276 -18 c 0,33,34
 145 -18 145 -18 85 55 c 128,-1,35
 25 128 25 128 42 231 c 0,0,1
90 231 m 0,36,37
 75 141 75 141 129 81.5 c 128,-1,38
 183 22 183 22 283 22 c 0,39,40
 381 22 381 22 456 80.5 c 128,-1,41
 531 139 531 139 546 231 c 0,42,43
 561 319 561 319 506 382.5 c 128,-1,44
 451 446 451 446 353 446 c 0,45,46
 259 446 259 446 182 385 c 128,-1,47
 105 324 105 324 90 231 c 0,36,37
EndSplineSet
EndChar

StartChar: uni0223
Encoding: 547 547 485
Width: 529
GlyphClass: 2
Flags: W
LayerCount: 2
Fore
SplineSet
41 240 m 0,0,1
 57 339 57 339 112.5 406.5 c 128,-1,2
 168 474 168 474 233 488 c 1,3,4
 180 504 180 504 152.5 554.5 c 128,-1,5
 125 605 125 605 138 687 c 0,6,7
 145 731 145 731 155 754 c 1,8,-1
 196 754 l 1,9,10
 195 750 195 750 189.5 724.5 c 128,-1,11
 184 699 184 699 182 688 c 0,12,13
 169 609 169 609 200 558 c 128,-1,14
 231 507 231 507 301 507 c 0,15,16
 368 507 368 507 417.5 556.5 c 128,-1,17
 467 606 467 606 480 688 c 0,18,19
 487 729 487 729 488 754 c 1,20,-1
 531 754 l 1,21,22
 532 734 532 734 524 687 c 0,23,24
 511 607 511 607 467 554.5 c 128,-1,25
 423 502 423 502 363 488 c 1,26,27
 424 475 424 475 457.5 407.5 c 128,-1,28
 491 340 491 340 475 240 c 0,29,30
 457 132 457 132 387 57 c 128,-1,31
 317 -18 317 -18 214 -18 c 0,32,33
 113 -18 113 -18 67.5 55 c 128,-1,34
 22 128 22 128 41 240 c 0,0,1
85 240 m 0,35,36
 69 145 69 145 106.5 82.5 c 128,-1,37
 144 20 144 20 220 20 c 0,38,39
 295 20 295 20 354.5 80 c 128,-1,40
 414 140 414 140 430 240 c 0,41,42
 446 337 446 337 408 402 c 128,-1,43
 370 467 370 467 294 467 c 0,44,45
 224 467 224 467 163 405.5 c 128,-1,46
 102 344 102 344 85 240 c 0,35,36
EndSplineSet
EndChar

StartChar: uni0224
Encoding: 548 548 486
Width: 602
GlyphClass: 2
Flags: W
LayerCount: 2
Fore
SplineSet
6 0 m 1,0,-1
 12 37 l 1,1,-1
 550 694 l 1,2,-1
 154 694 l 1,3,-1
 161 735 l 1,4,-1
 614 735 l 1,5,-1
 607 698 l 1,6,-1
 67 41 l 1,7,-1
 402 41 l 2,8,9
 480 41 480 41 511 2.5 c 128,-1,10
 542 -36 542 -36 528 -119 c 0,11,12
 518 -180 518 -180 484 -240 c 1,13,-1
 441 -240 l 1,14,15
 476 -173 476 -173 484 -122 c 0,16,17
 494 -60 494 -60 473 -30 c 128,-1,18
 452 0 452 0 380 0 c 2,19,-1
 6 0 l 1,0,-1
EndSplineSet
EndChar

StartChar: uni0225
Encoding: 549 549 487
Width: 495
GlyphClass: 2
Flags: W
LayerCount: 2
Fore
SplineSet
-11 0 m 1,0,-1
 -5 33 l 1,1,-1
 381 485 l 1,2,-1
 94 485 l 1,3,-1
 101 525 l 1,4,-1
 442 525 l 1,5,-1
 437 493 l 1,6,-1
 51 39 l 1,7,-1
 334 39 l 2,8,9
 400 39 400 39 424 0.5 c 128,-1,10
 448 -38 448 -38 435 -116 c 0,11,12
 423 -188 423 -188 398 -240 c 1,13,-1
 357 -240 l 1,14,15
 385 -179 385 -179 395 -120 c 0,16,17
 405 -57 405 -57 386 -28.5 c 128,-1,18
 367 0 367 0 314 0 c 2,19,-1
 -11 0 l 1,0,-1
EndSplineSet
EndChar

StartChar: uni0234
Encoding: 564 564 502
Width: 396
GlyphClass: 2
Flags: W
LayerCount: 2
Fore
SplineSet
86 -126 m 1,0,1
 90 -158 90 -158 117 -181 c 128,-1,2
 144 -204 144 -204 180 -204 c 0,3,4
 219 -204 219 -204 245 -185 c 128,-1,5
 271 -166 271 -166 276 -136 c 0,6,7
 282 -102 282 -102 262.5 -81 c 128,-1,8
 243 -60 243 -60 205 -60 c 0,9,10
 143 -60 143 -60 86 -126 c 1,0,1
-24 -223 m 1,11,12
 17 -150 17 -150 40 -123 c 1,13,14
 31 -82 31 -82 45 3 c 2,15,-1
 171 766 l 1,16,-1
 215 766 l 1,17,-1
 90 8 l 2,18,19
 80 -52 80 -52 83 -83 c 1,20,21
 141 -20 141 -20 212 -20 c 0,22,23
 273 -20 273 -20 300.5 -54 c 128,-1,24
 328 -88 328 -88 321 -134 c 0,25,26
 313 -182 313 -182 272.5 -213 c 128,-1,27
 232 -244 232 -244 175 -244 c 0,28,29
 132 -244 132 -244 101.5 -221 c 128,-1,30
 71 -198 71 -198 58 -164 c 1,31,32
 37 -189 37 -189 12 -237 c 1,33,-1
 -24 -223 l 1,11,12
EndSplineSet
EndChar

StartChar: uni0235
Encoding: 565 565 503
Width: 721
GlyphClass: 2
Flags: W
LayerCount: 2
Fore
SplineSet
409 -126 m 1,0,1
 413 -158 413 -158 440 -181 c 128,-1,2
 467 -204 467 -204 505 -204 c 0,3,4
 544 -204 544 -204 568.5 -185 c 128,-1,5
 593 -166 593 -166 598 -136 c 0,6,7
 603 -103 603 -103 585.5 -81.5 c 128,-1,8
 568 -60 568 -60 529 -60 c 0,9,10
 466 -60 466 -60 409 -126 c 1,0,1
38 0 m 1,11,-1
 124 523 l 1,12,-1
 166 523 l 1,13,-1
 148 415 l 1,14,-1
 150 415 l 1,15,16
 164 455 164 455 219 497.5 c 128,-1,17
 274 540 274 540 343 540 c 0,18,19
 367 540 367 540 386 535.5 c 128,-1,20
 405 531 405 531 424.5 517.5 c 128,-1,21
 444 504 444 504 455.5 482.5 c 128,-1,22
 467 461 467 461 471 424 c 128,-1,23
 475 387 475 387 467 338 c 2,24,-1
 412 8 l 2,25,26
 402 -54 402 -54 406 -83 c 1,27,28
 464 -20 464 -20 537 -20 c 0,29,30
 596 -20 596 -20 623.5 -53.5 c 128,-1,31
 651 -87 651 -87 643 -134 c 0,32,33
 635 -182 635 -182 595.5 -213 c 128,-1,34
 556 -244 556 -244 499 -244 c 0,35,36
 456 -244 456 -244 425 -221 c 128,-1,37
 394 -198 394 -198 380 -164 c 1,38,39
 361 -188 361 -188 335 -237 c 1,40,-1
 300 -223 l 1,41,42
 329 -165 329 -165 364 -123 c 1,43,44
 354 -83 354 -83 369 5 c 2,45,-1
 422 329 l 2,46,47
 451 502 451 502 328 502 c 0,48,49
 264 502 264 502 204.5 446.5 c 128,-1,50
 145 391 145 391 133 318 c 2,51,-1
 80 0 l 1,52,-1
 38 0 l 1,11,-1
EndSplineSet
EndChar

StartChar: uni0236
Encoding: 566 566 504
Width: 424
GlyphClass: 2
Flags: W
LayerCount: 2
Fore
SplineSet
112 -126 m 1,0,1
 116 -158 116 -158 143 -181 c 128,-1,2
 170 -204 170 -204 208 -204 c 0,3,4
 248 -204 248 -204 272.5 -185 c 128,-1,5
 297 -166 297 -166 302 -136 c 0,6,7
 307 -104 307 -104 289 -82 c 128,-1,8
 271 -60 271 -60 232 -60 c 0,9,10
 169 -60 169 -60 112 -126 c 1,0,1
58 483 m 1,11,-1
 64 523 l 1,12,-1
 157 523 l 1,13,-1
 186 699 l 1,14,-1
 231 699 l 1,15,-1
 201 523 l 1,16,-1
 335 523 l 1,17,-1
 329 483 l 1,18,-1
 195 483 l 1,19,-1
 116 7 l 2,20,21
 105 -57 105 -57 109 -83 c 1,22,23
 167 -20 167 -20 240 -20 c 0,24,25
 300 -20 300 -20 327 -54 c 128,-1,26
 354 -88 354 -88 347 -134 c 0,27,28
 339 -182 339 -182 299 -213 c 128,-1,29
 259 -244 259 -244 202 -244 c 0,30,31
 159 -244 159 -244 128 -221 c 128,-1,32
 97 -198 97 -198 83 -164 c 1,33,34
 64 -188 64 -188 39 -237 c 1,35,-1
 3 -223 l 1,36,37
 43 -148 43 -148 67 -123 c 1,38,39
 57 -81 57 -81 71 5 c 2,40,-1
 151 483 l 1,41,-1
 58 483 l 1,11,-1
EndSplineSet
EndChar

StartChar: uni0237
Encoding: 567 567 505
Width: 259
GlyphClass: 2
Flags: W
LayerCount: 2
Fore
SplineSet
-86 -200 m 1,0,-1
 -62 -200 l 2,1,2
 32 -200 32 -200 54 -67 c 2,3,-1
 152 523 l 1,4,-1
 195 523 l 1,5,-1
 97 -71 l 2,6,7
 83 -153 83 -153 42.5 -196.5 c 128,-1,8
 2 -240 2 -240 -60 -240 c 2,9,-1
 -93 -240 l 1,10,-1
 -86 -200 l 1,0,-1
EndSplineSet
EndChar

StartChar: uni0238
Encoding: 568 568 506
Width: 881
GlyphClass: 2
Flags: W
CounterMasks: 1 0e
LayerCount: 2
Fore
SplineSet
45 262 m 0,0,1
 67 392 67 392 136.5 466 c 128,-1,2
 206 540 206 540 297 540 c 0,3,4
 358 540 358 540 395 500 c 128,-1,5
 432 460 432 460 439 403 c 1,6,-1
 499 766 l 1,7,-1
 542 766 l 1,8,-1
 482 401 l 1,9,10
 504 453 504 453 555 496.5 c 128,-1,11
 606 540 606 540 671 540 c 0,12,13
 762 540 762 540 806.5 465.5 c 128,-1,14
 851 391 851 391 830 262 c 0,15,16
 807 122 807 122 733.5 52 c 128,-1,17
 660 -18 660 -18 578 -18 c 0,18,19
 517 -18 517 -18 480 20.5 c 128,-1,20
 443 59 443 59 433 114 c 1,21,-1
 415 0 l 1,22,-1
 373 0 l 1,23,-1
 392 115 l 1,24,25
 365 58 365 58 314 20 c 128,-1,26
 263 -18 263 -18 202 -18 c 0,27,28
 120 -18 120 -18 71 51.5 c 128,-1,29
 22 121 22 121 45 262 c 0,0,1
89 262 m 0,30,31
 71 152 71 152 105 86 c 128,-1,32
 139 20 139 20 214 20 c 0,33,34
 281 20 281 20 337 81 c 128,-1,35
 393 142 393 142 414 245 c 1,36,-1
 419 279 l 1,37,38
 432 380 432 380 394.5 441 c 128,-1,39
 357 502 357 502 293 502 c 0,40,41
 221 502 221 502 164 437.5 c 128,-1,42
 107 373 107 373 89 262 c 0,30,31
455 243 m 1,43,44
 442 142 442 142 477.5 81 c 128,-1,45
 513 20 513 20 579 20 c 0,46,47
 653 20 653 20 710 85.5 c 128,-1,48
 767 151 767 151 786 262 c 0,49,50
 804 372 804 372 768.5 437 c 128,-1,51
 733 502 733 502 660 502 c 0,52,53
 594 502 594 502 537.5 440.5 c 128,-1,54
 481 379 481 379 461 278 c 1,55,-1
 455 243 l 1,43,44
EndSplineSet
EndChar

StartChar: uni0239
Encoding: 569 569 507
Width: 882
GlyphClass: 2
Flags: W
LayerCount: 2
Fore
SplineSet
45 262 m 0,0,1
 66 388 66 388 135 464 c 128,-1,2
 204 540 204 540 296 540 c 0,3,4
 353 540 353 540 391 504.5 c 128,-1,5
 429 469 429 469 440 405 c 1,6,-1
 460 523 l 1,7,-1
 502 523 l 1,8,-1
 482 404 l 1,9,10
 513 465 513 465 564.5 502.5 c 128,-1,11
 616 540 616 540 674 540 c 0,12,13
 766 540 766 540 809 464.5 c 128,-1,14
 852 389 852 389 831 262 c 0,15,16
 809 127 809 127 737.5 54.5 c 128,-1,17
 666 -18 666 -18 579 -18 c 0,18,19
 518 -18 518 -18 481.5 20 c 128,-1,20
 445 58 445 58 435 117 c 1,21,-1
 376 -240 l 1,22,-1
 332 -240 l 1,23,-1
 391 116 l 1,24,25
 361 57 361 57 312.5 19.5 c 128,-1,26
 264 -18 264 -18 204 -18 c 0,27,28
 116 -18 116 -18 69.5 55 c 128,-1,29
 23 128 23 128 45 262 c 0,0,1
89 262 m 0,30,31
 71 152 71 152 106 86 c 128,-1,32
 141 20 141 20 213 20 c 0,33,34
 283 20 283 20 338 83 c 128,-1,35
 393 146 393 146 413 248 c 1,36,-1
 419 280 l 1,37,38
 431 378 431 378 396 440 c 128,-1,39
 361 502 361 502 293 502 c 0,40,41
 215 502 215 502 160.5 434.5 c 128,-1,42
 106 367 106 367 89 262 c 0,30,31
457 249 m 1,43,44
 444 145 444 145 478.5 82.5 c 128,-1,45
 513 20 513 20 583 20 c 0,46,47
 655 20 655 20 711.5 85 c 128,-1,48
 768 150 768 150 787 262 c 0,49,50
 804 367 804 367 772.5 434.5 c 128,-1,51
 741 502 741 502 663 502 c 0,52,53
 597 502 597 502 539.5 440.5 c 128,-1,54
 482 379 482 379 462 281 c 1,55,-1
 457 249 l 1,43,44
EndSplineSet
EndChar

StartChar: uni023A
Encoding: 570 570 508
Width: 613
GlyphClass: 2
Flags: W
LayerCount: 2
Fore
SplineSet
150 271 m 1,0,-1
 230 271 l 1,1,-1
 412 508 l 1,2,-1
 400 573 l 2,3,4
 397 590 397 590 388.5 632 c 128,-1,5
 380 674 380 674 377 691 c 1,6,-1
 373 691 l 1,7,8
 318 586 318 586 311 573 c 2,9,-1
 150 271 l 1,0,-1
271 271 m 1,10,-1
 460 271 l 1,11,-1
 421 466 l 1,12,-1
 271 271 l 1,10,-1
-46 0 m 1,13,-1
 352 735 l 1,14,-1
 413 735 l 1,15,-1
 450 557 l 1,16,-1
 612 766 l 1,17,-1
 653 766 l 1,18,-1
 459 515 l 1,19,-1
 567 0 l 1,20,-1
 514 0 l 1,21,-1
 468 232 l 1,22,-1
 240 232 l 1,23,-1
 -6 -87 l 1,24,-1
 -47 -87 l 1,25,-1
 199 232 l 1,26,-1
 130 232 l 1,27,-1
 6 0 l 1,28,-1
 -46 0 l 1,13,-1
EndSplineSet
EndChar

StartChar: uni023B
Encoding: 571 571 509
Width: 614
GlyphClass: 2
Flags: W
LayerCount: 2
Fore
SplineSet
69 368 m 0,0,1
 99 549 99 549 197.5 651.5 c 128,-1,2
 296 754 296 754 429 754 c 0,3,4
 486 754 486 754 533 727 c 1,5,-1
 572 797 l 1,6,-1
 608 797 l 1,7,-1
 561 707 l 1,8,9
 607 667 607 667 622 605 c 1,10,-1
 579 588 l 1,11,12
 565 635 565 635 537 664 c 1,13,-1
 211 48 l 1,14,15
 257 22 257 22 308 22 c 0,16,17
 377 22 377 22 433 60.5 c 128,-1,18
 489 99 489 99 525 155 c 1,19,-1
 565 141 l 1,20,21
 463 -18 463 -18 302 -18 c 0,22,23
 238 -18 238 -18 189 7 c 1,24,-1
 142 -77 l 1,25,-1
 105 -77 l 1,26,-1
 159 23 l 1,27,28
 98 68 98 68 73.5 157 c 128,-1,29
 49 246 49 246 69 368 c 0,0,1
182 66 m 1,30,-1
 511 687 l 1,31,32
 476 713 476 713 423 713 c 0,33,34
 310 713 310 713 226.5 619 c 128,-1,35
 143 525 143 525 117 368 c 0,36,37
 100 263 100 263 117 185 c 128,-1,38
 134 107 134 107 182 66 c 1,30,-1
EndSplineSet
EndChar

StartChar: uni023C
Encoding: 572 572 510
Width: 474
GlyphClass: 2
Flags: W
LayerCount: 2
Fore
SplineSet
45 262 m 0,0,1
 65 382 65 382 134.5 461 c 128,-1,2
 204 540 204 540 307 540 c 0,3,4
 353 540 353 540 384 522 c 1,5,-1
 421 596 l 1,6,-1
 455 596 l 1,7,-1
 410 504 l 1,8,9
 445 473 445 473 456 419 c 1,10,-1
 416 406 l 1,11,12
 409 434 409 434 388 461 c 1,13,-1
 175 28 l 1,14,15
 195 20 195 20 220 20 c 0,16,17
 268 20 268 20 311.5 51 c 128,-1,18
 355 82 355 82 382 122 c 1,19,-1
 417 108 l 1,20,21
 387 56 387 56 332.5 19 c 128,-1,22
 278 -18 278 -18 213 -18 c 0,23,24
 182 -18 182 -18 157 -11 c 1,25,-1
 128 -72 l 1,26,-1
 92 -72 l 1,27,-1
 129 1 l 1,28,29
 73 31 73 31 51.5 100 c 128,-1,30
 30 169 30 169 45 262 c 0,0,1
149 43 m 1,31,-1
 365 483 l 1,32,33
 340 502 340 502 300 502 c 0,34,35
 223 502 223 502 164.5 434.5 c 128,-1,36
 106 367 106 367 89 262 c 0,37,38
 76 185 76 185 92 126.5 c 128,-1,39
 108 68 108 68 149 43 c 1,31,-1
EndSplineSet
EndChar

StartChar: uni023D
Encoding: 573 573 511
Width: 524
GlyphClass: 2
Flags: W
LayerCount: 2
Fore
SplineSet
40 401 m 1,0,-1
 47 439 l 1,1,-1
 141 439 l 1,2,-1
 190 735 l 1,3,-1
 236 735 l 1,4,-1
 187 439 l 1,5,-1
 398 439 l 1,6,-1
 392 401 l 1,7,-1
 180 401 l 1,8,-1
 121 41 l 1,9,-1
 476 41 l 1,10,-1
 469 0 l 1,11,-1
 68 0 l 1,12,-1
 134 401 l 1,13,-1
 40 401 l 1,0,-1
EndSplineSet
EndChar

StartChar: uni023E
Encoding: 574 574 512
Width: 533
GlyphClass: 2
Flags: W
LayerCount: 2
Fore
SplineSet
359 694 m 1,0,-1
 316 434 l 1,1,-1
 499 694 l 1,2,-1
 359 694 l 1,0,-1
84 694 m 1,3,-1
 91 735 l 1,4,-1
 527 735 l 1,5,-1
 571 797 l 1,6,-1
 609 797 l 1,7,-1
 565 735 l 1,8,-1
 593 735 l 1,9,-1
 586 694 l 1,10,-1
 537 694 l 1,11,-1
 304 363 l 1,12,-1
 244 0 l 1,13,-1
 197 0 l 1,14,-1
 242 275 l 1,15,-1
 26 -33 l 1,16,-1
 -13 -33 l 1,17,-1
 254 346 l 1,18,-1
 312 694 l 1,19,-1
 84 694 l 1,3,-1
EndSplineSet
EndChar

StartChar: uni023F
Encoding: 575 575 513
Width: 459
GlyphClass: 2
Flags: W
LayerCount: 2
Fore
SplineSet
9 92 m 1,0,-1
 46 112 l 1,1,2
 87 20 87 20 190 20 c 0,3,4
 255 20 255 20 298.5 48.5 c 128,-1,5
 342 77 342 77 349 123 c 0,6,7
 353 149 353 149 344 169 c 128,-1,8
 335 189 335 189 313 202 c 128,-1,9
 291 215 291 215 270.5 223.5 c 128,-1,10
 250 232 250 232 218 244 c 0,11,12
 209 247 209 247 205 248 c 0,13,14
 173 259 173 259 151 269.5 c 128,-1,15
 129 280 129 280 106.5 297.5 c 128,-1,16
 84 315 84 315 75.5 340.5 c 128,-1,17
 67 366 67 366 73 400 c 0,18,19
 84 466 84 466 140 503 c 128,-1,20
 196 540 196 540 275 540 c 0,21,22
 333 540 333 540 374.5 510.5 c 128,-1,23
 416 481 416 481 432 435 c 1,24,-1
 398 415 l 1,25,26
 383 455 383 455 349.5 478.5 c 128,-1,27
 316 502 316 502 269 502 c 0,28,29
 205 502 205 502 164.5 473.5 c 128,-1,30
 124 445 124 445 117 400 c 0,31,32
 109 350 109 350 142 323 c 128,-1,33
 175 296 175 296 236 277 c 0,34,35
 273 266 273 266 298 255.5 c 128,-1,36
 323 245 323 245 349 227 c 128,-1,37
 375 209 375 209 386 183 c 128,-1,38
 397 157 397 157 391 123 c 0,39,40
 381 63 381 63 327 22.5 c 128,-1,41
 273 -18 273 -18 183 -18 c 0,42,43
 118 -18 118 -18 71 12 c 1,44,45
 81 -104 81 -104 94 -141 c 0,46,47
 118 -209 118 -209 184 -209 c 0,48,49
 207 -209 207 -209 223 -206 c 1,50,-1
 218 -241 l 1,51,52
 186 -244 186 -244 178 -244 c 0,53,54
 144 -244 144 -244 119 -229.5 c 128,-1,55
 94 -215 94 -215 81 -200 c 128,-1,56
 68 -185 68 -185 58 -144.5 c 128,-1,57
 48 -104 48 -104 45.5 -84.5 c 128,-1,58
 43 -65 43 -65 39 -11 c 0,59,60
 38 -2 38 -2 37 3 c 0,61,62
 31 50 31 50 9 92 c 1,0,-1
EndSplineSet
EndChar

StartChar: uni0240
Encoding: 576 576 514
Width: 448
GlyphClass: 2
Flags: W
LayerCount: 2
Fore
SplineSet
-11 0 m 1,0,-1
 -5 33 l 1,1,-1
 381 483 l 1,2,-1
 94 483 l 1,3,-1
 101 523 l 1,4,-1
 442 523 l 1,5,-1
 436 491 l 1,6,-1
 46 34 l 1,7,8
 80 32 80 32 108 13.5 c 128,-1,9
 136 -5 136 -5 152 -31 c 128,-1,10
 168 -57 168 -57 184.5 -87.5 c 128,-1,11
 201 -118 201 -118 214 -143.5 c 128,-1,12
 227 -169 227 -169 248 -186.5 c 128,-1,13
 269 -204 269 -204 296 -204 c 0,14,15
 324 -204 324 -204 334 -202 c 1,16,-1
 328 -240 l 1,17,18
 312 -244 312 -244 286 -244 c 0,19,20
 249 -244 249 -244 221 -219 c 128,-1,21
 193 -194 193 -194 174.5 -158.5 c 128,-1,22
 156 -123 156 -123 137.5 -87.5 c 128,-1,23
 119 -52 119 -52 90 -26.5 c 128,-1,24
 61 -1 61 -1 24 0 c 2,25,-1
 -11 0 l 1,0,-1
EndSplineSet
EndChar

StartChar: uni0241
Encoding: 577 577 515
Width: 528
GlyphClass: 2
Flags: W
LayerCount: 2
Fore
SplineSet
117 607 m 1,0,1
 156 677 156 677 216.5 715.5 c 128,-1,2
 277 754 277 754 342 754 c 0,3,4
 430 754 430 754 473 701 c 128,-1,5
 516 648 516 648 502 561 c 0,6,7
 494 515 494 515 469 478 c 128,-1,8
 444 441 444 441 414 415.5 c 128,-1,9
 384 390 384 390 353.5 364 c 128,-1,10
 323 338 323 338 298 301.5 c 128,-1,11
 273 265 273 265 266 219 c 2,12,-1
 229 0 l 1,13,-1
 183 0 l 1,14,-1
 220 222 l 2,15,16
 228 272 228 272 253 311.5 c 128,-1,17
 278 351 278 351 308 377 c 128,-1,18
 338 403 338 403 368.5 428 c 128,-1,19
 399 453 399 453 423.5 486.5 c 128,-1,20
 448 520 448 520 455 561 c 0,21,22
 466 630 466 630 435 672 c 128,-1,23
 404 714 404 714 337 714 c 0,24,25
 281 714 281 714 234.5 679.5 c 128,-1,26
 188 645 188 645 156 592 c 1,27,-1
 117 607 l 1,0,1
EndSplineSet
EndChar

StartChar: uni0250
Encoding: 592 592 516
Width: 524
GlyphClass: 2
Flags: W
LayerCount: 2
Fore
SplineSet
110 225 m 1,0,1
 162 244 162 244 271 260 c 0,2,3
 358 274 358 274 403 308.5 c 128,-1,4
 448 343 448 343 457 398 c 0,5,6
 464 440 464 440 434.5 471 c 128,-1,7
 405 502 405 502 342 502 c 0,8,9
 267 502 267 502 203 451 c 128,-1,10
 139 400 139 400 125 319 c 2,11,-1
 110 225 l 1,0,1
59 172 m 2,12,-1
 117 523 l 1,13,-1
 158 523 l 1,14,-1
 141 419 l 1,15,16
 167 468 167 468 225.5 504 c 128,-1,17
 284 540 284 540 353 540 c 0,18,19
 432 540 432 540 471.5 501.5 c 128,-1,20
 511 463 511 463 500 400 c 0,21,22
 488 329 488 329 432 285 c 128,-1,23
 376 241 376 241 264 223 c 0,24,25
 148 205 148 205 104 188 c 1,26,-1
 99 158 l 2,27,28
 89 97 89 97 122.5 58 c 128,-1,29
 156 19 156 19 226 19 c 0,30,31
 323 19 323 19 401 106 c 1,32,-1
 427 83 l 1,33,34
 389 39 389 39 334 10.5 c 128,-1,35
 279 -18 279 -18 222 -18 c 0,36,37
 126 -18 126 -18 85.5 33.5 c 128,-1,38
 45 85 45 85 59 172 c 2,12,-1
EndSplineSet
EndChar

StartChar: uni0251
Encoding: 593 593 517
Width: 545
GlyphClass: 2
Flags: W
LayerCount: 2
Fore
SplineSet
89 262 m 0,0,1
 71 151 71 151 106.5 85.5 c 128,-1,2
 142 20 142 20 214 20 c 0,3,4
 280 20 280 20 339.5 84 c 128,-1,5
 399 148 399 148 417 260 c 0,6,7
 435 371 435 371 397.5 436.5 c 128,-1,8
 360 502 360 502 293 502 c 0,9,10
 220 502 220 502 163.5 437 c 128,-1,11
 107 372 107 372 89 262 c 0,0,1
45 262 m 0,12,13
 66 390 66 390 135 465 c 128,-1,14
 204 540 204 540 296 540 c 0,15,16
 359 540 359 540 397 496 c 128,-1,17
 435 452 435 452 438 404 c 1,18,-1
 458 523 l 1,19,-1
 500 523 l 1,20,-1
 414 0 l 1,21,-1
 372 0 l 1,22,-1
 391 112 l 1,23,24
 363 57 363 57 313 19.5 c 128,-1,25
 263 -18 263 -18 204 -18 c 0,26,27
 121 -18 121 -18 71.5 52.5 c 128,-1,28
 22 123 22 123 45 262 c 0,12,13
EndSplineSet
EndChar

StartChar: uni0252
Encoding: 594 594 518
Width: 546
GlyphClass: 2
Flags: W
LayerCount: 2
Fore
SplineSet
38 0 m 1,0,-1
 124 523 l 1,1,-1
 167 523 l 1,2,-1
 147 403 l 1,3,4
 166 451 166 451 219 495.5 c 128,-1,5
 272 540 272 540 335 540 c 0,6,7
 428 540 428 540 471.5 465 c 128,-1,8
 515 390 515 390 494 262 c 0,9,10
 471 122 471 122 398.5 52 c 128,-1,11
 326 -18 326 -18 243 -18 c 0,12,13
 183 -18 183 -18 145.5 19.5 c 128,-1,14
 108 57 108 57 98 112 c 1,15,-1
 80 0 l 1,16,-1
 38 0 l 1,0,-1
121 260 m 0,17,18
 103 151 103 151 140 85.5 c 128,-1,19
 177 20 177 20 245 20 c 0,20,21
 318 20 318 20 375 85.5 c 128,-1,22
 432 151 432 151 450 262 c 0,23,24
 468 372 468 372 433.5 437 c 128,-1,25
 399 502 399 502 325 502 c 0,26,27
 259 502 259 502 199 436.5 c 128,-1,28
 139 371 139 371 121 260 c 0,17,18
EndSplineSet
EndChar

StartChar: uni0253
Encoding: 595 595 519
Width: 548
GlyphClass: 2
Flags: W
LayerCount: 2
Fore
SplineSet
126 261 m 0,0,1
 108 150 108 150 143.5 85 c 128,-1,2
 179 20 179 20 247 20 c 0,3,4
 321 20 321 20 379 86 c 128,-1,5
 437 152 437 152 455 262 c 0,6,7
 473 371 473 371 438 436.5 c 128,-1,8
 403 502 403 502 329 502 c 0,9,10
 262 502 262 502 203 436.5 c 128,-1,11
 144 371 144 371 126 261 c 0,0,1
40 0 m 1,12,-1
 127 521 l 2,13,14
 147 639 147 639 202.5 705 c 128,-1,15
 258 771 258 771 348 771 c 0,16,17
 408 771 408 771 463 752 c 1,18,-1
 452 714 l 1,19,20
 388 731 388 731 346 731 c 0,21,22
 205 731 205 731 170 515 c 2,23,-1
 151 401 l 1,24,25
 174 456 174 456 224.5 498 c 128,-1,26
 275 540 275 540 339 540 c 0,27,28
 433 540 433 540 475.5 464.5 c 128,-1,29
 518 389 518 389 497 262 c 0,30,31
 474 126 474 126 403.5 54 c 128,-1,32
 333 -18 333 -18 246 -18 c 0,33,34
 184 -18 184 -18 148.5 21 c 128,-1,35
 113 60 113 60 103 114 c 1,36,-1
 85 0 l 1,37,-1
 40 0 l 1,12,-1
EndSplineSet
EndChar

StartChar: uni0254
Encoding: 596 596 520
Width: 474
GlyphClass: 2
Flags: W
LayerCount: 2
Fore
SplineSet
-1 108 m 1,0,-1
 38 122 l 1,1,2
 51 81 51 81 84.5 50.5 c 128,-1,3
 118 20 118 20 166 20 c 0,4,5
 241 20 241 20 300.5 86.5 c 128,-1,6
 360 153 360 153 378 261 c 0,7,8
 395 366 395 366 359 434 c 128,-1,9
 323 502 323 502 246 502 c 0,10,11
 201 502 201 502 162 475 c 128,-1,12
 123 448 123 448 100 406 c 1,13,-1
 64 419 l 1,14,15
 90 471 90 471 141 505.5 c 128,-1,16
 192 540 192 540 253 540 c 0,17,18
 354 540 354 540 398 461.5 c 128,-1,19
 442 383 442 383 422 261 c 0,20,21
 401 134 401 134 328.5 58 c 128,-1,22
 256 -18 256 -18 160 -18 c 0,23,24
 97 -18 97 -18 54.5 18.5 c 128,-1,25
 12 55 12 55 -1 108 c 1,0,-1
EndSplineSet
EndChar

StartChar: uni0255
Encoding: 597 597 521
Width: 472
GlyphClass: 2
Flags: W
LayerCount: 2
Fore
SplineSet
165 35 m 1,0,1
 197 20 197 20 250 20 c 0,2,3
 295 20 295 20 327.5 39 c 128,-1,4
 360 58 360 58 364 87 c 0,5,6
 368 110 368 110 354 125 c 128,-1,7
 340 140 340 140 309 140 c 0,8,9
 265 140 265 140 226.5 107.5 c 128,-1,10
 188 75 188 75 165 35 c 1,0,1
45 263 m 0,11,12
 65 382 65 382 134 461 c 128,-1,13
 203 540 203 540 307 540 c 0,14,15
 369 540 369 540 406.5 504.5 c 128,-1,16
 444 469 444 469 454 419 c 1,17,-1
 414 406 l 1,18,19
 406 444 406 444 376 473 c 128,-1,20
 346 502 346 502 300 502 c 0,21,22
 221 502 221 502 163.5 435 c 128,-1,23
 106 368 106 368 89 262 c 0,24,25
 66 123 66 123 133 57 c 1,26,27
 166 109 166 109 213 143.5 c 128,-1,28
 260 178 260 178 316 178 c 0,29,30
 366 178 366 178 390 151 c 128,-1,31
 414 124 414 124 408 87 c 0,32,33
 400 41 400 41 353.5 11.5 c 128,-1,34
 307 -18 307 -18 240 -18 c 256,35,36
 174 -18 174 -18 143 -3 c 1,37,38
 134 -19 134 -19 115 -65 c 1,39,-1
 77 -55 l 1,40,41
 87 -23 87 -23 109 15 c 1,42,43
 16 88 16 88 45 263 c 0,11,12
EndSplineSet
EndChar

StartChar: uni0256
Encoding: 598 598 522
Width: 557
GlyphClass: 2
Flags: W
LayerCount: 2
Fore
SplineSet
45 262 m 0,0,1
 67 392 67 392 136.5 466 c 128,-1,2
 206 540 206 540 297 540 c 0,3,4
 358 540 358 540 395 500 c 128,-1,5
 432 460 432 460 439 403 c 1,6,-1
 499 766 l 1,7,-1
 542 766 l 1,8,-1
 409 -41 l 2,9,10
 394 -129 394 -129 411.5 -166.5 c 128,-1,11
 429 -204 429 -204 478 -204 c 0,12,13
 502 -204 502 -204 535 -199 c 1,14,-1
 529 -239 l 1,15,16
 500 -244 500 -244 466 -244 c 0,17,18
 402 -244 402 -244 374.5 -200 c 128,-1,19
 347 -156 347 -156 366 -44 c 2,20,-1
 392 115 l 1,21,22
 365 58 365 58 314 20 c 128,-1,23
 263 -18 263 -18 202 -18 c 0,24,25
 119 -18 119 -18 70.5 52 c 128,-1,26
 22 122 22 122 45 262 c 0,0,1
89 262 m 0,27,28
 71 153 71 153 105 86.5 c 128,-1,29
 139 20 139 20 214 20 c 0,30,31
 282 20 282 20 340 85 c 128,-1,32
 398 150 398 150 417 262 c 0,33,34
 435 373 435 373 397.5 437.5 c 128,-1,35
 360 502 360 502 293 502 c 0,36,37
 222 502 222 502 164.5 437 c 128,-1,38
 107 372 107 372 89 262 c 0,27,28
EndSplineSet
EndChar

StartChar: uni0257
Encoding: 599 599 523
Width: 557
GlyphClass: 2
Flags: W
LayerCount: 2
Fore
SplineSet
45 262 m 0,0,1
 67 392 67 392 136.5 466 c 128,-1,2
 206 540 206 540 297 540 c 0,3,4
 358 540 358 540 395.5 499.5 c 128,-1,5
 433 459 433 459 439 402 c 1,6,-1
 477 633 l 2,7,8
 488 700 488 700 533.5 735.5 c 128,-1,9
 579 771 579 771 646 771 c 0,10,11
 670 771 670 771 702 767 c 1,12,-1
 695 727 l 1,13,14
 655 730 655 730 647 730 c 0,15,16
 537 730 537 730 518 622 c 2,17,-1
 415 0 l 1,18,-1
 373 0 l 1,19,-1
 392 116 l 1,20,21
 365 59 365 59 314 20.5 c 128,-1,22
 263 -18 263 -18 202 -18 c 0,23,24
 119 -18 119 -18 70.5 52 c 128,-1,25
 22 122 22 122 45 262 c 0,0,1
89 262 m 256,26,27
 71 152 71 152 105 86 c 128,-1,28
 139 20 139 20 214 20 c 0,29,30
 281 20 281 20 339.5 85 c 128,-1,31
 398 150 398 150 417 262 c 0,32,33
 435 373 435 373 397.5 437.5 c 128,-1,34
 360 502 360 502 293 502 c 0,35,36
 221 502 221 502 164 437 c 128,-1,37
 107 372 107 372 89 262 c 256,26,27
EndSplineSet
EndChar

StartChar: uni0258
Encoding: 600 600 524
Width: 524
GlyphClass: 2
Flags: W
LayerCount: 2
Fore
SplineSet
40 248 m 1,0,1
 41 254 41 254 42.5 263 c 128,-1,2
 44 272 44 272 45 278 c 0,3,4
 63 389 63 389 133.5 464.5 c 128,-1,5
 204 540 204 540 301 540 c 0,6,7
 400 540 400 540 446.5 463.5 c 128,-1,8
 493 387 493 387 473 265 c 0,9,10
 452 139 452 139 378.5 60.5 c 128,-1,11
 305 -18 305 -18 205 -18 c 0,12,13
 134 -18 134 -18 90 16.5 c 128,-1,14
 46 51 46 51 28 105 c 1,15,-1
 68 119 l 1,16,17
 83 76 83 76 120 48 c 128,-1,18
 157 20 157 20 211 20 c 0,19,20
 294 20 294 20 352.5 86.5 c 128,-1,21
 411 153 411 153 427 248 c 1,22,-1
 40 248 l 1,0,1
90 283 m 1,23,-1
 432 283 l 1,24,25
 444 371 444 371 410 436.5 c 128,-1,26
 376 502 376 502 295 502 c 0,27,28
 219 502 219 502 162 437.5 c 128,-1,29
 105 373 105 373 90 283 c 1,23,-1
EndSplineSet
EndChar

StartChar: uni025A
Encoding: 602 602 526
Width: 590
GlyphClass: 2
Flags: W
LayerCount: 2
Fore
SplineSet
35 222 m 1,0,-1
 425 396 l 1,1,2
 412 441 412 441 378 471.5 c 128,-1,3
 344 502 344 502 288 502 c 0,4,5
 236 502 236 502 189.5 473 c 128,-1,6
 143 444 143 444 117 403 c 1,7,-1
 81 417 l 1,8,9
 162 540 162 540 295 540 c 256,10,11
 428 540 428 540 464 414 c 1,12,-1
 540 455 l 1,13,14
 554 391 554 391 609 391 c 0,15,16
 630 391 630 391 637 393 c 1,17,-1
 631 357 l 1,18,19
 617 354 617 354 602 354 c 0,20,21
 569 354 569 354 548 367.5 c 128,-1,22
 527 381 527 381 520 402 c 1,23,-1
 471 377 l 1,24,25
 480 326 480 326 470 260 c 0,26,27
 450 141 450 141 379 61.5 c 128,-1,28
 308 -18 308 -18 203 -18 c 0,29,30
 114 -18 114 -18 69 50 c 128,-1,31
 24 118 24 118 35 222 c 1,0,-1
78 202 m 1,32,33
 75 116 75 116 112 68 c 128,-1,34
 149 20 149 20 210 20 c 0,35,36
 295 20 295 20 352 89 c 128,-1,37
 409 158 409 158 425 253 c 0,38,39
 425 255 425 255 426 257 c 0,40,41
 434 307 434 307 430 358 c 1,42,-1
 78 202 l 1,32,33
EndSplineSet
EndChar

StartChar: uni025B
Encoding: 603 603 527
Width: 431
GlyphClass: 2
Flags: W
LayerCount: 2
Fore
SplineSet
24 135 m 0,0,1
 34 193 34 193 74 229 c 128,-1,2
 114 265 114 265 166 277 c 1,3,-1
 166 278 l 1,4,5
 126 291 126 291 102.5 322 c 128,-1,6
 79 353 79 353 88 402 c 0,7,8
 98 463 98 463 145.5 501.5 c 128,-1,9
 193 540 193 540 272 540 c 0,10,11
 375 540 375 540 413 451 c 1,12,-1
 374 432 l 1,13,14
 343 502 343 502 267 502 c 0,15,16
 207 502 207 502 172.5 474 c 128,-1,17
 138 446 138 446 131 401 c 0,18,19
 123 355 123 355 154 324.5 c 128,-1,20
 185 294 185 294 258 294 c 2,21,-1
 287 294 l 1,22,-1
 281 259 l 1,23,-1
 252 259 l 2,24,25
 168 259 168 259 122 222.5 c 128,-1,26
 76 186 76 186 68 135 c 0,27,28
 59 83 59 83 92 51.5 c 128,-1,29
 125 20 125 20 189 20 c 0,30,31
 231 20 231 20 272 42.5 c 128,-1,32
 313 65 313 65 338 95 c 1,33,-1
 368 74 l 1,34,35
 334 33 334 33 284.5 7.5 c 128,-1,36
 235 -18 235 -18 183 -18 c 0,37,38
 100 -18 100 -18 56 22.5 c 128,-1,39
 12 63 12 63 24 135 c 0,0,1
EndSplineSet
EndChar

StartChar: uni025C
Encoding: 604 604 528
Width: 432
GlyphClass: 2
Flags: W
LayerCount: 2
Fore
SplineSet
-7 74 m 1,0,-1
 30 95 l 1,1,2
 46 65 46 65 80 42.5 c 128,-1,3
 114 20 114 20 154 20 c 0,4,5
 218 20 218 20 262.5 51.5 c 128,-1,6
 307 83 307 83 316 135 c 0,7,8
 324 186 324 186 290 222.5 c 128,-1,9
 256 259 256 259 172 259 c 2,10,-1
 143 259 l 1,11,-1
 149 294 l 1,12,-1
 178 294 l 2,13,14
 251 294 251 294 291.5 324.5 c 128,-1,15
 332 355 332 355 339 401 c 0,16,17
 346 446 346 446 321.5 474 c 128,-1,18
 297 502 297 502 238 502 c 0,19,20
 161 502 161 502 107 432 c 1,21,-1
 74 451 l 1,22,23
 142 540 142 540 244 540 c 0,24,25
 323 540 323 540 358 501 c 128,-1,26
 393 462 393 462 383 402 c 0,27,28
 375 353 375 353 341.5 322.5 c 128,-1,29
 308 292 308 292 262 278 c 1,30,-1
 263 277 l 1,31,32
 311 265 311 265 340.5 229 c 128,-1,33
 370 193 370 193 360 135 c 0,34,35
 348 63 348 63 290.5 22.5 c 128,-1,36
 233 -18 233 -18 150 -18 c 0,37,38
 98 -18 98 -18 56 7.5 c 128,-1,39
 14 33 14 33 -7 74 c 1,0,-1
EndSplineSet
EndChar

StartChar: uni025D
Encoding: 605 605 529
Width: 471
GlyphClass: 2
Flags: W
LayerCount: 2
Fore
SplineSet
-7 74 m 1,0,-1
 30 95 l 1,1,2
 44 68 44 68 78.5 44 c 128,-1,3
 113 20 113 20 152 20 c 0,4,5
 220 20 220 20 263.5 52 c 128,-1,6
 307 84 307 84 316 135 c 256,7,8
 324 186 324 186 290 222.5 c 128,-1,9
 256 259 256 259 171 259 c 2,10,-1
 143 259 l 1,11,-1
 149 294 l 1,12,-1
 177 294 l 2,13,14
 250 294 250 294 291 324.5 c 128,-1,15
 332 355 332 355 339 401 c 0,16,17
 347 448 347 448 321 475 c 128,-1,18
 295 502 295 502 238 502 c 0,19,20
 162 502 162 502 107 432 c 1,21,-1
 74 451 l 1,22,23
 143 540 143 540 244 540 c 0,24,25
 358 540 358 540 381 459 c 1,26,-1
 455 494 l 1,27,28
 462 464 462 464 482 444 c 128,-1,29
 502 424 502 424 530 424 c 0,30,31
 550 424 550 424 557 426 c 1,32,-1
 551 389 l 1,33,34
 537 386 537 386 521 386 c 0,35,36
 487 386 487 386 464.5 403.5 c 128,-1,37
 442 421 442 421 434 443 c 1,38,-1
 385 419 l 1,39,40
 385 411 385 411 381 392 c 0,41,42
 372 349 372 349 338.5 319.5 c 128,-1,43
 305 290 305 290 263 278 c 1,44,-1
 263 277 l 1,45,46
 310 265 310 265 340 229 c 128,-1,47
 370 193 370 193 360 135 c 0,48,49
 348 62 348 62 291 22 c 128,-1,50
 234 -18 234 -18 147 -18 c 0,51,52
 95 -18 95 -18 53 9 c 128,-1,53
 11 36 11 36 -7 74 c 1,0,-1
EndSplineSet
EndChar

StartChar: uni025E
Encoding: 606 606 530
Width: 522
GlyphClass: 2
Flags: W
LayerCount: 2
Fore
SplineSet
45 264 m 0,0,1
 66 393 66 393 139 466.5 c 128,-1,2
 212 540 212 540 312 540 c 0,3,4
 396 540 396 540 439 500.5 c 128,-1,5
 482 461 482 461 471 395 c 0,6,7
 463 345 463 345 431 312.5 c 128,-1,8
 399 280 399 280 359 268 c 1,9,-1
 358 267 l 1,10,11
 403 257 403 257 430 221.5 c 128,-1,12
 457 186 457 186 448 130 c 0,13,14
 436 60 436 60 377.5 21 c 128,-1,15
 319 -18 319 -18 224 -18 c 0,16,17
 131 -18 131 -18 76.5 52.5 c 128,-1,18
 22 123 22 123 45 264 c 0,0,1
89 264 m 0,19,20
 78 198 78 198 88 148 c 128,-1,21
 98 98 98 98 121.5 71.5 c 128,-1,22
 145 45 145 45 173 32.5 c 128,-1,23
 201 20 201 20 231 20 c 0,24,25
 307 20 307 20 352 50 c 128,-1,26
 397 80 397 80 405 128 c 0,27,28
 413 174 413 174 382.5 210.5 c 128,-1,29
 352 247 352 247 270 247 c 2,30,-1
 238 247 l 1,31,-1
 244 283 l 1,32,-1
 276 283 l 2,33,34
 350 283 350 283 385 316 c 128,-1,35
 420 349 420 349 427 391 c 0,36,37
 436 443 436 443 404.5 472.5 c 128,-1,38
 373 502 373 502 307 502 c 0,39,40
 231 502 231 502 169.5 440 c 128,-1,41
 108 378 108 378 89 264 c 0,19,20
EndSplineSet
EndChar

StartChar: uni025F
Encoding: 607 607 531
Width: 266
GlyphClass: 2
Flags: W
LayerCount: 2
Fore
SplineSet
-3 282 m 1,0,-1
 3 320 l 1,1,-1
 120 320 l 1,2,-1
 154 523 l 1,3,-1
 197 523 l 1,4,-1
 163 320 l 1,5,-1
 268 320 l 1,6,-1
 262 282 l 1,7,-1
 157 282 l 1,8,-1
 99 -68 l 2,9,10
 85 -150 85 -150 44.5 -193.5 c 128,-1,11
 4 -237 4 -237 -58 -237 c 2,12,-1
 -91 -237 l 1,13,-1
 -84 -197 l 1,14,-1
 -60 -197 l 2,15,16
 35 -197 35 -197 57 -64 c 2,17,-1
 114 282 l 1,18,-1
 -3 282 l 1,0,-1
EndSplineSet
EndChar

StartChar: uni0260
Encoding: 608 608 532
Width: 547
GlyphClass: 2
Flags: W
LayerCount: 2
Fore
SplineSet
46 271 m 256,0,1
 66 391 66 391 133.5 465.5 c 128,-1,2
 201 540 201 540 293 540 c 0,3,4
 357 540 357 540 390 501.5 c 128,-1,5
 423 463 423 463 433 412 c 1,6,-1
 469 630 l 2,7,8
 480 696 480 696 528 733.5 c 128,-1,9
 576 771 576 771 640 771 c 0,10,11
 648 771 648 771 694 768 c 1,12,-1
 687 729 l 1,13,14
 661 731 661 731 639 731 c 0,15,16
 591 731 591 731 555 702.5 c 128,-1,17
 519 674 519 674 510 619 c 2,18,-1
 416 47 l 2,19,20
 393 -94 393 -94 335.5 -169 c 128,-1,21
 278 -244 278 -244 167 -244 c 0,22,23
 115 -244 115 -244 73 -221 c 128,-1,24
 31 -198 31 -198 8 -156 c 1,25,-1
 43 -134 l 1,26,27
 92 -205 92 -205 176 -205 c 0,28,29
 331 -205 331 -205 370 35 c 2,30,-1
 385 125 l 1,31,32
 319 0 319 0 204 0 c 0,33,34
 113 0 113 0 69.5 75.5 c 128,-1,35
 26 151 26 151 46 271 c 256,0,1
90 271 m 0,36,37
 73 166 73 166 107.5 102.5 c 128,-1,38
 142 39 142 39 211 39 c 0,39,40
 286 39 286 39 338.5 100.5 c 128,-1,41
 391 162 391 162 410 272 c 0,42,43
 427 375 427 375 393.5 438.5 c 128,-1,44
 360 502 360 502 290 502 c 0,45,46
 216 502 216 502 161.5 438 c 128,-1,47
 107 374 107 374 90 271 c 0,36,37
EndSplineSet
EndChar

StartChar: uni0262
Encoding: 610 610 534
Width: 554
GlyphClass: 2
Flags: W
LayerCount: 2
Fore
SplineSet
44 261 m 0,0,1
 65 386 65 386 142 463.5 c 128,-1,2
 219 541 219 541 330 541 c 0,3,4
 445 541 445 541 491 434 c 1,5,-1
 453 417 l 1,6,7
 409 502 409 502 323 502 c 0,8,9
 234 502 234 502 170.5 436 c 128,-1,10
 107 370 107 370 89 261 c 0,11,12
 71 151 71 151 112 85.5 c 128,-1,13
 153 20 153 20 241 20 c 0,14,15
 319 20 319 20 371 71.5 c 128,-1,16
 423 123 423 123 435 193 c 2,17,-1
 442 237 l 1,18,-1
 269 237 l 1,19,-1
 275 275 l 1,20,-1
 489 275 l 1,21,-1
 443 0 l 1,22,-1
 407 0 l 1,23,-1
 421 87 l 1,24,25
 398 44 398 44 348.5 13 c 128,-1,26
 299 -18 299 -18 233 -18 c 0,27,28
 126 -18 126 -18 74.5 57.5 c 128,-1,29
 23 133 23 133 44 261 c 0,0,1
EndSplineSet
EndChar

StartChar: uni0263
Encoding: 611 611 535
Width: 456
GlyphClass: 2
Flags: W
LayerCount: 2
Fore
SplineSet
51 523 m 1,0,-1
 100 523 l 1,1,-1
 196 85 l 1,2,-1
 436 523 l 1,3,-1
 486 523 l 1,4,-1
 220 49 l 1,5,6
 250 -3 250 -3 263 -41.5 c 128,-1,7
 276 -80 276 -80 269 -120 c 0,8,9
 260 -174 260 -174 224.5 -209 c 128,-1,10
 189 -244 189 -244 142 -244 c 0,11,12
 97 -244 97 -244 73 -210.5 c 128,-1,13
 49 -177 49 -177 58 -120 c 0,14,15
 63 -90 63 -90 80 -59 c 128,-1,16
 97 -28 97 -28 112 -9.5 c 128,-1,17
 127 9 127 9 161 48 c 1,18,-1
 51 523 l 1,0,-1
94 -122 m 0,19,20
 88 -158 88 -158 102.5 -184 c 128,-1,21
 117 -210 117 -210 147 -210 c 0,22,23
 178 -210 178 -210 201.5 -184 c 128,-1,24
 225 -158 225 -158 231 -122 c 0,25,26
 235 -96 235 -96 228.5 -67.5 c 128,-1,27
 222 -39 222 -39 213.5 -23.5 c 128,-1,28
 205 -8 205 -8 186 25 c 1,29,30
 104 -59 104 -59 94 -122 c 0,19,20
EndSplineSet
Substitution2: "'sups' Superscript lookup 5 subtable" uni02E0
Substitution2: "'aalt' Access All Alternates lookup 0 subtable" uni02E0
EndChar

StartChar: uni0264
Encoding: 612 612 536
Width: 449
GlyphClass: 2
Flags: W
LayerCount: 2
Fore
SplineSet
239 366 m 1,0,1
 202 328 202 328 180.5 302 c 128,-1,2
 159 276 159 276 136.5 232.5 c 128,-1,3
 114 189 114 189 106 142 c 0,4,5
 97 89 97 89 118 54.5 c 128,-1,6
 139 20 139 20 184 20 c 0,7,8
 226 20 226 20 257 55 c 128,-1,9
 288 90 288 90 296 142 c 0,10,11
 307 207 307 207 292 257.5 c 128,-1,12
 277 308 277 308 239 366 c 1,0,1
73 498 m 1,13,-1
 79 536 l 1,14,15
 101 540 101 540 115 540 c 0,16,17
 160 540 160 540 189.5 513.5 c 128,-1,18
 219 487 219 487 250 432 c 1,19,20
 298 486 298 486 337 513 c 128,-1,21
 376 540 376 540 420 540 c 0,22,23
 443 540 443 540 455 537 c 1,24,-1
 449 497 l 1,25,26
 429 502 429 502 416 502 c 0,27,28
 380 502 380 502 346 476 c 128,-1,29
 312 450 312 450 270 400 c 1,30,31
 317 327 317 327 335 270.5 c 128,-1,32
 353 214 353 214 340 141 c 0,33,34
 328 69 328 69 284.5 25.5 c 128,-1,35
 241 -18 241 -18 178 -18 c 0,36,37
 111 -18 111 -18 81 25.5 c 128,-1,38
 51 69 51 69 63 141 c 0,39,40
 68 174 68 174 81.5 207 c 128,-1,41
 95 240 95 240 106 260.5 c 128,-1,42
 117 281 117 281 143 313 c 128,-1,43
 169 345 169 345 178.5 355.5 c 128,-1,44
 188 366 188 366 219 400 c 1,45,46
 193 451 193 451 168.5 476.5 c 128,-1,47
 144 502 144 502 108 502 c 0,48,49
 105 502 105 502 73 498 c 1,13,-1
EndSplineSet
EndChar

StartChar: uni0265
Encoding: 613 613 537
Width: 541
GlyphClass: 2
Flags: W
LayerCount: 2
Fore
SplineSet
63 183 m 2,0,-1
 120 523 l 1,1,-1
 163 523 l 1,2,-1
 108 194 l 2,3,4
 79 20 79 20 204 20 c 0,5,6
 267 20 267 20 326.5 75 c 128,-1,7
 386 130 386 130 398 206 c 2,8,-1
 451 523 l 1,9,-1
 493 523 l 1,10,-1
 367 -240 l 1,11,-1
 324 -240 l 1,12,-1
 381 100 l 1,13,-1
 380 100 l 1,14,15
 356 55 356 55 303.5 18.5 c 128,-1,16
 251 -18 251 -18 189 -18 c 0,17,18
 160 -18 160 -18 136 -10 c 128,-1,19
 112 -2 112 -2 90 18.5 c 128,-1,20
 68 39 68 39 60.5 81 c 128,-1,21
 53 123 53 123 63 183 c 2,0,-1
EndSplineSet
EndChar

StartChar: uni0266
Encoding: 614 614 538
Width: 541
GlyphClass: 2
Flags: W
LayerCount: 2
Fore
SplineSet
41 0 m 1,0,-1
 142 608 l 2,1,2
 155 685 155 685 206 728 c 128,-1,3
 257 771 257 771 324 771 c 0,4,5
 366 771 366 771 419 763 c 1,6,-1
 412 724 l 1,7,8
 362 731 362 731 321 731 c 0,9,10
 262 731 262 731 227.5 690 c 128,-1,11
 193 649 193 649 185 600 c 2,12,-1
 155 422 l 1,13,-1
 156 422 l 1,14,15
 182 469 182 469 233.5 504.5 c 128,-1,16
 285 540 285 540 347 540 c 0,17,18
 376 540 376 540 399.5 532.5 c 128,-1,19
 423 525 423 525 444.5 504.5 c 128,-1,20
 466 484 466 484 474 442 c 128,-1,21
 482 400 482 400 472 338 c 2,22,-1
 416 0 l 1,23,-1
 374 0 l 1,24,-1
 429 329 l 2,25,26
 458 502 458 502 333 502 c 0,27,28
 270 502 270 502 210.5 447.5 c 128,-1,29
 151 393 151 393 138 316 c 2,30,-1
 85 0 l 1,31,-1
 41 0 l 1,0,-1
EndSplineSet
Substitution2: "'sups' Superscript lookup 5 subtable" uni02B1
Substitution2: "'aalt' Access All Alternates lookup 0 subtable" uni02B1
EndChar

StartChar: uni0267
Encoding: 615 615 539
Width: 546
GlyphClass: 2
Flags: W
LayerCount: 2
Fore
SplineSet
41 0 m 1,0,-1
 142 607 l 2,1,2
 155 685 155 685 206 728 c 128,-1,3
 257 771 257 771 324 771 c 0,4,5
 366 771 366 771 419 763 c 1,6,-1
 412 724 l 1,7,8
 362 731 362 731 321 731 c 0,9,10
 262 731 262 731 227.5 689.5 c 128,-1,11
 193 648 193 648 184 598 c 2,12,-1
 155 422 l 1,13,-1
 156 422 l 1,14,15
 182 469 182 469 233.5 504.5 c 128,-1,16
 285 540 285 540 347 540 c 0,17,18
 376 540 376 540 399.5 532 c 128,-1,19
 423 524 423 524 444.5 504 c 128,-1,20
 466 484 466 484 474 442 c 128,-1,21
 482 400 482 400 472 338 c 2,22,-1
 404 -69 l 2,23,24
 390 -155 390 -155 351 -199.5 c 128,-1,25
 312 -244 312 -244 234 -244 c 0,26,27
 207 -244 207 -244 180 -241 c 1,28,-1
 187 -202 l 1,29,30
 210 -205 210 -205 235 -205 c 0,31,32
 287 -205 287 -205 319 -174 c 128,-1,33
 351 -143 351 -143 363 -67 c 2,34,-1
 429 329 l 2,35,36
 458 502 458 502 333 502 c 0,37,38
 270 502 270 502 210 447 c 128,-1,39
 150 392 150 392 138 316 c 2,40,-1
 85 0 l 1,41,-1
 41 0 l 1,0,-1
EndSplineSet
EndChar

StartChar: uni0268
Encoding: 616 616 540
Width: 260
GlyphClass: 2
Flags: W
LayerCount: 2
Fore
SplineSet
156 661 m 1,0,-1
 170 746 l 1,1,-1
 244 746 l 1,2,-1
 230 661 l 1,3,-1
 156 661 l 1,0,-1
22 270 m 1,4,-1
 29 309 l 1,5,-1
 114 309 l 1,6,-1
 149 523 l 1,7,-1
 193 523 l 1,8,-1
 157 309 l 1,9,-1
 242 309 l 1,10,-1
 235 270 l 1,11,-1
 151 270 l 1,12,-1
 106 0 l 1,13,-1
 63 0 l 1,14,-1
 108 270 l 1,15,-1
 22 270 l 1,4,-1
EndSplineSet
EndChar

StartChar: uni0269
Encoding: 617 617 541
Width: 307
GlyphClass: 2
Flags: W
LayerCount: 2
Fore
SplineSet
59 135 m 2,0,-1
 123 523 l 1,1,-1
 167 523 l 1,2,-1
 104 137 l 2,3,4
 85 21 85 21 168 21 c 0,5,6
 190 21 190 21 235 27 c 1,7,-1
 228 -13 l 1,8,9
 177 -18 177 -18 155 -18 c 0,10,11
 34 -18 34 -18 59 135 c 2,0,-1
EndSplineSet
EndChar

StartChar: uni026B
Encoding: 619 619 543
Width: 234
GlyphClass: 2
Flags: W
LayerCount: 2
Fore
SplineSet
6 378 m 1,0,-1
 13 417 l 1,1,2
 53 432 53 432 84 432 c 0,3,4
 96 432 96 432 119 426 c 1,5,-1
 175 766 l 1,6,-1
 219 766 l 1,7,-1
 162 417 l 1,8,9
 187 410 187 410 207 410 c 0,10,11
 239 410 239 410 267 425 c 1,12,-1
 261 386 l 1,13,14
 229 370 229 370 200 370 c 0,15,16
 184 370 184 370 155 378 c 1,17,-1
 93 0 l 1,18,-1
 48 0 l 1,19,-1
 112 387 l 1,20,21
 89 393 89 393 77 393 c 0,22,23
 52 393 52 393 6 378 c 1,0,-1
EndSplineSet
EndChar

StartChar: uni026C
Encoding: 620 620 544
Width: 412
GlyphClass: 2
Flags: W
LayerCount: 2
Fore
SplineSet
70 416 m 0,0,1
 77 458 77 458 109.5 488 c 128,-1,2
 142 518 142 518 190 518 c 0,3,4
 228 518 228 518 256.5 495.5 c 128,-1,5
 285 473 285 473 293 448 c 1,6,-1
 346 766 l 1,7,-1
 389 766 l 1,8,-1
 318 333 l 1,9,-1
 422 333 l 1,10,-1
 416 297 l 1,11,-1
 312 297 l 1,12,-1
 263 0 l 1,13,-1
 219 0 l 1,14,-1
 268 297 l 1,15,-1
 197 297 l 2,16,17
 132 297 132 297 96.5 328.5 c 128,-1,18
 61 360 61 360 70 416 c 0,0,1
113 416 m 0,19,20
 107 377 107 377 132.5 355 c 128,-1,21
 158 333 158 333 205 333 c 2,22,-1
 274 333 l 1,23,-1
 278 363 l 2,24,25
 285 413 285 413 255.5 446 c 128,-1,26
 226 479 226 479 187 479 c 0,27,28
 159 479 159 479 138 460.5 c 128,-1,29
 117 442 117 442 113 416 c 0,19,20
EndSplineSet
EndChar

StartChar: uni026D
Encoding: 621 621 545
Width: 309
GlyphClass: 2
Flags: W
LayerCount: 2
Fore
SplineSet
28 -90 m 2,0,-1
 170 766 l 1,1,-1
 214 766 l 1,2,-1
 73 -89 l 2,3,4
 54 -204 54 -204 137 -204 c 0,5,6
 160 -204 160 -204 204 -199 c 1,7,-1
 198 -239 l 1,8,9
 147 -244 147 -244 126 -244 c 0,10,11
 65 -244 65 -244 40.5 -204 c 128,-1,12
 16 -164 16 -164 28 -90 c 2,0,-1
EndSplineSet
EndChar

StartChar: uni026E
Encoding: 622 622 546
Width: 578
GlyphClass: 2
Flags: W
LayerCount: 2
Fore
SplineSet
51 -176 m 1,0,-1
 87 -157 l 1,1,2
 131 -204 131 -204 206 -204 c 0,3,4
 300 -204 300 -204 360 -151 c 128,-1,5
 420 -98 420 -98 434 -14 c 0,6,7
 449 74 449 74 402.5 125.5 c 128,-1,8
 356 177 356 177 251 177 c 2,9,-1
 179 177 l 1,10,-1
 185 210 l 1,11,-1
 475 483 l 1,12,-1
 166 483 l 1,13,-1
 86 0 l 1,14,-1
 43 0 l 1,15,-1
 170 766 l 1,16,-1
 213 766 l 1,17,-1
 173 523 l 1,18,-1
 542 523 l 1,19,-1
 537 491 l 1,20,-1
 240 212 l 1,21,-1
 269 212 l 2,22,23
 380 212 380 212 437.5 153 c 128,-1,24
 495 94 495 94 477 -14 c 0,25,26
 460 -117 460 -117 385 -180.5 c 128,-1,27
 310 -244 310 -244 200 -244 c 0,28,29
 100 -244 100 -244 51 -176 c 1,0,-1
EndSplineSet
EndChar

StartChar: uni026F
Encoding: 623 623 547
Width: 800
GlyphClass: 2
Flags: W
LayerCount: 2
Fore
SplineSet
62 182 m 2,0,-1
 119 523 l 1,1,-1
 163 523 l 1,2,-1
 108 191 l 2,3,4
 94 105 94 105 109 62.5 c 128,-1,5
 124 20 124 20 187 20 c 0,6,7
 247 20 247 20 298.5 72.5 c 128,-1,8
 350 125 350 125 364 209 c 2,9,-1
 416 523 l 1,10,-1
 459 523 l 1,11,-1
 404 190 l 2,12,13
 376 20 376 20 486 20 c 0,14,15
 550 20 550 20 599 71 c 128,-1,16
 648 122 648 122 661 203 c 2,17,-1
 714 523 l 1,18,-1
 757 523 l 1,19,-1
 670 0 l 1,20,-1
 629 0 l 1,21,-1
 644 93 l 1,22,-1
 642 93 l 1,23,24
 621 51 621 51 578.5 16.5 c 128,-1,25
 536 -18 536 -18 472 -18 c 0,26,27
 365 -18 365 -18 360 115 c 1,28,29
 358 108 358 108 350.5 94 c 128,-1,30
 343 80 343 80 326 60 c 128,-1,31
 309 40 309 40 287.5 23 c 128,-1,32
 266 6 266 6 235 -6 c 128,-1,33
 204 -18 204 -18 170 -18 c 0,34,35
 96 -18 96 -18 70.5 32 c 128,-1,36
 45 82 45 82 62 182 c 2,0,-1
EndSplineSet
EndChar

StartChar: uni0270
Encoding: 624 624 548
Width: 812
GlyphClass: 2
Flags: W
LayerCount: 2
Fore
SplineSet
62 182 m 2,0,-1
 119 523 l 1,1,-1
 162 523 l 1,2,-1
 107 191 l 2,3,4
 93 107 93 107 107.5 63.5 c 128,-1,5
 122 20 122 20 185 20 c 0,6,7
 246 20 246 20 298 73 c 128,-1,8
 350 126 350 126 364 209 c 2,9,-1
 416 523 l 1,10,-1
 459 523 l 1,11,-1
 404 190 l 2,12,13
 376 20 376 20 486 20 c 0,14,15
 550 20 550 20 598.5 71 c 128,-1,16
 647 122 647 122 661 203 c 2,17,-1
 713 523 l 1,18,-1
 757 523 l 1,19,-1
 630 -240 l 1,20,-1
 588 -240 l 1,21,-1
 643 93 l 1,22,-1
 642 93 l 1,23,24
 620 49 620 49 576 15.5 c 128,-1,25
 532 -18 532 -18 471 -18 c 0,26,27
 364 -18 364 -18 360 115 c 1,28,29
 355 101 355 101 341 81 c 128,-1,30
 327 61 327 61 304 37.5 c 128,-1,31
 281 14 281 14 244.5 -2 c 128,-1,32
 208 -18 208 -18 168 -18 c 0,33,34
 96 -18 96 -18 71 32.5 c 128,-1,35
 46 83 46 83 62 182 c 2,0,-1
EndSplineSet
EndChar

StartChar: uni0271
Encoding: 625 625 549
Width: 805
GlyphClass: 2
Flags: W
CounterMasks: 1 0e
LayerCount: 2
Fore
SplineSet
38 0 m 1,0,-1
 124 523 l 1,1,-1
 167 523 l 1,2,-1
 151 429 l 1,3,-1
 152 429 l 1,4,5
 172 471 172 471 215.5 505.5 c 128,-1,6
 259 540 259 540 323 540 c 0,7,8
 431 540 431 540 434 408 c 1,9,10
 442 425 442 425 456 444.5 c 128,-1,11
 470 464 470 464 493.5 487.5 c 128,-1,12
 517 511 517 511 551.5 525.5 c 128,-1,13
 586 540 586 540 626 540 c 0,14,15
 699 540 699 540 723.5 490 c 128,-1,16
 748 440 748 440 732 339 c 2,17,-1
 662 -82 l 2,18,19
 649 -158 649 -158 610.5 -201 c 128,-1,20
 572 -244 572 -244 493 -244 c 0,21,22
 469 -244 469 -244 440 -240 c 1,23,-1
 446 -200 l 1,24,25
 449 -200 449 -200 467 -202 c 128,-1,26
 485 -204 485 -204 497 -204 c 0,27,28
 551 -204 551 -204 579.5 -175.5 c 128,-1,29
 608 -147 608 -147 619 -78 c 2,30,-1
 687 332 l 2,31,32
 701 416 701 416 686 459 c 128,-1,33
 671 502 671 502 609 502 c 256,34,35
 547 502 547 502 495.5 449.5 c 128,-1,36
 444 397 444 397 431 313 c 2,37,-1
 379 0 l 1,38,-1
 335 0 l 1,39,-1
 389 332 l 2,40,41
 417 502 417 502 308 502 c 0,42,43
 243 502 243 502 195 451.5 c 128,-1,44
 147 401 147 401 134 320 c 2,45,-1
 81 0 l 1,46,-1
 38 0 l 1,0,-1
EndSplineSet
EndChar

